<svg id="svg" version="1.1" xmlns="http://www.w3.org/2000/svg" xmlns:xlink="http://www.w3.org/1999/xlink" width="400" height="400" viewBox="0, 0, 400,400"><g id="svgg"><path id="path0" d="M206.200 137.175 C 205.760 137.352,204.680 137.720,203.800 137.994 C 197.444 139.974,188.304 146.660,183.697 152.700 C 183.151 153.415,182.396 154.000,182.019 154.000 C 181.642 154.000,181.210 154.123,181.059 154.274 C 180.627 154.706,177.887 155.587,176.955 155.594 C 176.490 155.597,174.801 156.140,173.200 156.800 C 171.599 157.460,169.875 158.000,169.369 158.000 C 168.862 158.000,168.336 158.180,168.200 158.400 C 168.064 158.620,167.506 158.800,166.960 158.800 C 166.413 158.800,165.580 159.160,165.108 159.600 C 164.636 160.040,164.018 160.400,163.735 160.400 C 162.459 160.400,162.015 162.535,162.933 164.255 C 164.330 166.873,164.499 167.048,166.687 168.149 C 169.928 169.781,171.105 169.426,176.936 165.052 C 181.162 161.882,184.000 161.863,184.000 165.005 C 184.000 165.278,184.270 165.726,184.600 166.000 C 184.930 166.274,185.206 166.881,185.213 167.349 C 185.220 167.817,185.490 168.549,185.813 168.976 C 186.136 169.404,186.400 170.038,186.400 170.388 C 186.400 173.837,194.966 173.527,198.188 169.961 L 199.627 168.368 198.913 167.104 C 198.096 165.656,195.985 163.472,191.290 159.219 C 189.481 157.580,188.000 156.097,188.000 155.924 C 188.000 154.053,201.481 144.400,204.095 144.400 C 204.395 144.400,204.847 144.193,205.101 143.939 C 205.784 143.256,212.360 143.285,213.599 143.976 C 217.111 145.937,217.965 148.653,215.020 148.497 C 212.236 148.349,211.600 149.040,211.600 152.213 C 211.600 155.474,211.217 155.790,207.694 155.442 C 202.177 154.898,195.756 154.723,194.401 155.081 C 191.799 155.768,191.666 155.587,202.700 166.334 C 204.735 168.316,206.400 170.058,206.400 170.205 C 206.400 170.352,206.791 170.788,207.268 171.175 L 208.136 171.878 206.776 173.570 C 204.269 176.690,206.848 181.181,211.161 181.206 C 212.730 181.215,213.221 181.702,214.032 184.051 C 215.507 188.324,215.311 188.604,210.600 188.955 C 209.280 189.053,206.850 189.410,205.200 189.748 C 196.665 191.494,196.482 192.000,204.383 192.000 C 210.093 192.000,211.269 192.151,214.494 193.302 C 215.723 193.740,216.394 195.480,216.398 198.236 C 216.400 200.159,216.941 199.932,206.800 202.276 C 203.121 203.127,204.659 204.000,209.836 204.000 C 216.409 204.000,217.280 204.417,217.120 207.488 L 217.000 209.800 214.528 210.200 C 213.168 210.420,211.923 210.735,211.761 210.900 C 211.599 211.065,211.075 211.200,210.595 211.200 C 210.116 211.200,209.402 211.556,209.008 211.992 C 208.074 213.023,208.395 213.125,213.083 213.279 C 216.949 213.406,218.344 214.103,217.732 215.600 C 217.597 215.930,217.400 216.709,217.293 217.332 C 217.187 217.954,216.852 218.558,216.550 218.675 C 215.733 218.988,215.883 219.735,216.891 220.364 C 220.924 222.882,228.909 221.457,227.009 218.558 C 226.234 217.374,226.234 215.881,227.010 214.380 L 227.621 213.200 231.644 213.200 C 234.605 213.200,235.624 213.073,235.506 212.718 C 235.221 211.863,231.858 210.423,230.119 210.411 C 227.299 210.392,225.234 208.768,226.800 207.800 C 227.020 207.664,227.200 206.929,227.200 206.166 C 227.200 204.287,228.100 204.000,234.002 204.000 C 242.526 204.000,240.305 202.458,228.447 200.144 C 227.523 199.964,227.502 199.875,227.756 197.279 C 228.207 192.670,229.243 192.232,239.400 192.355 C 242.722 192.396,245.240 191.930,244.768 191.362 C 244.512 191.053,243.952 190.800,243.525 190.800 C 243.097 190.800,242.428 190.629,242.038 190.421 C 241.332 190.043,236.766 189.311,232.200 188.845 L 229.800 188.600 229.681 186.348 C 229.509 183.071,230.477 181.479,232.833 181.162 C 237.571 180.525,239.642 177.316,237.451 174.005 C 236.873 173.132,236.400 172.170,236.400 171.867 C 236.400 171.219,248.136 159.200,248.768 159.200 C 249.006 159.200,249.200 158.958,249.200 158.662 C 249.200 158.366,249.560 157.798,250.000 157.400 C 252.305 155.314,250.662 154.827,241.271 154.813 C 232.917 154.800,232.018 154.637,231.990 153.129 C 231.971 152.080,230.411 147.940,229.615 146.821 C 229.167 146.191,228.800 145.494,228.800 145.272 C 228.800 145.049,228.665 144.807,228.500 144.733 C 228.335 144.660,227.697 143.926,227.081 143.102 C 223.469 138.265,211.764 134.943,206.200 137.175 " stroke="none" fill="#0b0a0a" fill-rule="evenodd"></path><path id="path1" d="M0.000 200.000 L 0.000 400.000 200.000 400.000 L 400.000 400.000 400.000 200.000 L 400.000 0.000 200.000 0.000 L 0.000 0.000 0.000 200.000 M218.600 136.786 C 224.480 139.277,227.634 141.819,229.627 145.673 C 230.046 146.483,230.562 147.253,230.774 147.384 C 230.985 147.514,231.634 149.147,232.215 151.011 L 233.271 154.400 241.747 154.400 C 253.978 154.400,254.131 154.578,247.500 161.116 C 236.282 172.176,236.599 171.730,238.242 174.148 C 240.214 177.050,238.346 180.742,234.488 181.568 C 230.988 182.316,230.800 182.400,230.800 183.203 C 230.800 183.616,230.620 184.064,230.400 184.200 C 230.180 184.336,230.000 185.231,230.000 186.189 L 230.000 187.932 232.500 188.138 C 235.656 188.399,239.782 189.039,241.600 189.549 C 244.873 190.469,245.360 190.674,245.760 191.310 C 246.625 192.680,245.537 192.929,238.314 193.011 C 230.381 193.101,229.416 193.360,228.803 195.564 C 227.845 199.014,228.068 199.410,231.300 200.008 C 241.786 201.946,243.293 204.800,233.831 204.800 C 228.061 204.800,227.600 204.963,227.600 207.000 C 227.600 207.682,227.384 208.456,227.120 208.720 C 226.747 209.093,227.008 209.200,228.296 209.200 C 229.207 209.200,230.064 209.380,230.200 209.600 C 230.336 209.820,230.941 210.000,231.545 210.000 C 232.665 210.000,236.400 212.100,236.400 212.729 C 236.400 213.727,234.863 214.375,232.581 214.341 C 228.266 214.275,227.600 214.363,227.600 215.000 C 227.600 215.330,227.420 215.600,227.200 215.600 C 226.517 215.600,226.760 217.041,227.629 218.146 C 229.022 219.917,227.386 221.919,224.495 221.981 C 223.997 221.991,223.245 222.215,222.824 222.478 C 222.231 222.848,221.823 222.848,221.011 222.478 C 220.434 222.215,219.566 221.999,219.081 221.999 C 216.667 221.994,214.255 218.602,216.150 217.875 C 216.726 217.654,217.225 215.458,216.829 214.889 C 216.441 214.331,212.569 213.623,211.146 213.850 C 206.897 214.528,206.757 211.474,210.986 210.353 C 211.874 210.118,212.913 209.762,213.295 209.563 C 213.677 209.363,214.637 209.200,215.430 209.200 L 216.870 209.200 216.594 207.500 C 216.197 205.057,216.108 205.020,210.124 204.800 C 201.287 204.475,201.999 202.113,211.446 200.413 C 215.925 199.607,215.851 199.668,215.609 196.970 C 215.287 193.381,214.563 193.088,205.350 192.815 C 201.343 192.697,197.931 192.466,197.768 192.302 C 197.019 191.551,199.025 190.473,202.708 189.648 C 204.848 189.168,207.153 188.601,207.828 188.388 C 208.504 188.175,210.169 188.000,211.528 188.000 C 213.758 188.000,214.000 187.919,214.000 187.175 C 214.000 185.903,212.739 182.345,212.243 182.217 C 206.076 180.626,202.626 176.930,205.163 174.633 C 205.583 174.253,206.152 173.399,206.427 172.735 L 206.927 171.528 199.463 164.151 C 189.376 154.180,189.357 154.247,202.159 154.460 L 210.600 154.600 210.800 151.864 C 211.055 148.382,212.001 147.389,214.685 147.792 C 217.088 148.152,216.071 146.269,212.905 144.500 C 208.631 142.111,197.381 146.919,190.483 154.082 L 188.765 155.866 191.083 158.074 C 192.357 159.288,194.690 161.493,196.266 162.974 C 199.792 166.285,200.580 167.692,199.778 169.243 C 199.013 170.721,196.415 172.800,195.332 172.800 C 194.846 172.800,194.336 172.980,194.200 173.200 C 193.136 174.921,185.600 172.646,185.600 170.603 C 185.600 170.307,185.330 169.510,185.000 168.832 C 184.670 168.155,184.130 167.045,183.800 166.368 C 183.470 165.690,183.200 164.908,183.200 164.630 C 183.200 162.203,181.305 162.494,177.311 165.536 C 171.626 169.867,169.652 170.444,166.284 168.756 C 161.607 166.413,160.188 161.577,163.608 159.638 C 165.406 158.618,165.771 158.471,169.000 157.467 C 170.760 156.920,173.010 156.197,174.000 155.861 C 174.990 155.525,176.610 155.035,177.600 154.773 C 180.623 153.973,182.800 153.111,182.800 152.715 C 182.800 150.883,195.815 140.446,200.522 138.504 C 206.526 136.026,214.924 135.228,218.600 136.786 " stroke="none" fill="#fbfbfb" fill-rule="evenodd"></path><path id="path2" d="M209.900 136.695 C 211.055 136.776,212.945 136.776,214.100 136.695 C 215.255 136.614,214.310 136.548,212.000 136.548 C 209.690 136.548,208.745 136.614,209.900 136.695 M221.600 138.524 C 221.600 138.617,222.365 139.198,223.300 139.815 C 224.235 140.432,224.789 140.680,224.531 140.368 C 224.034 139.767,221.600 138.236,221.600 138.524 M198.200 140.000 C 196.636 141.036,197.192 141.037,198.890 140.001 C 199.611 139.562,200.020 139.204,199.800 139.204 C 199.580 139.205,198.860 139.563,198.200 140.000 M192.567 143.829 L 191.000 145.258 192.700 143.962 C 194.253 142.778,194.632 142.400,194.267 142.400 C 194.193 142.400,193.428 143.043,192.567 143.829 M208.700 143.482 C 209.195 143.578,210.005 143.578,210.500 143.482 C 210.995 143.387,210.590 143.309,209.600 143.309 C 208.610 143.309,208.205 143.387,208.700 143.482 M212.433 143.721 C 213.574 144.549,214.800 145.146,214.800 144.873 C 214.800 144.684,214.342 144.320,213.781 144.064 C 212.847 143.638,212.035 143.432,212.433 143.721 M202.100 145.034 C 201.385 145.346,200.800 145.694,200.800 145.807 C 200.800 146.015,203.606 144.927,203.946 144.587 C 204.286 144.247,203.420 144.457,202.100 145.034 M189.106 146.611 C 188.284 147.375,187.754 148.000,187.927 148.000 C 188.101 148.000,188.854 147.370,189.600 146.600 C 191.341 144.803,191.043 144.810,189.106 146.611 M216.115 146.631 C 217.082 147.806,216.969 148.321,215.700 148.513 L 214.600 148.680 215.713 148.740 C 217.237 148.822,217.570 147.772,216.370 146.667 C 215.503 145.868,215.483 145.865,216.115 146.631 M197.093 147.814 C 196.272 148.372,195.600 148.915,195.600 149.020 C 195.600 149.125,196.320 148.735,197.200 148.153 C 198.597 147.228,199.070 146.800,198.693 146.800 C 198.634 146.800,197.914 147.256,197.093 147.814 M230.084 147.403 C 230.240 147.645,230.544 148.283,230.759 148.822 C 231.006 149.440,231.159 149.559,231.175 149.144 C 231.189 148.784,230.885 148.145,230.500 147.725 C 230.115 147.306,229.928 147.160,230.084 147.403 M184.575 151.300 L 183.400 152.600 184.700 151.425 C 185.415 150.779,186.000 150.194,186.000 150.125 C 186.000 149.816,185.670 150.088,184.575 151.300 M190.900 152.822 C 187.593 156.020,187.629 155.933,189.100 157.230 L 190.200 158.200 189.232 157.102 C 188.699 156.497,188.383 155.867,188.530 155.702 C 188.677 155.536,190.012 154.187,191.498 152.703 C 192.984 151.220,194.110 150.009,194.000 150.012 C 193.890 150.015,192.495 151.280,190.900 152.822 M211.187 152.400 L 211.000 155.000 207.000 154.941 C 203.718 154.892,203.359 154.940,205.000 155.206 C 210.750 156.137,211.712 155.683,211.507 152.134 L 211.373 149.800 211.187 152.400 M177.600 155.200 C 177.067 155.545,177.067 155.588,177.600 155.588 C 177.930 155.588,178.470 155.413,178.800 155.200 C 179.333 154.855,179.333 154.812,178.800 154.812 C 178.470 154.812,177.930 154.987,177.600 155.200 M192.880 155.280 C 192.069 156.091,192.313 156.542,194.900 159.013 L 197.400 161.400 195.045 158.933 C 192.591 156.362,192.352 155.415,194.076 155.085 C 194.884 154.931,194.897 154.902,194.180 154.854 C 193.729 154.825,193.144 155.016,192.880 155.280 M250.100 155.338 C 251.005 156.050,250.983 156.510,250.000 157.400 C 249.560 157.798,249.200 158.287,249.200 158.487 C 249.200 158.686,249.740 158.258,250.400 157.536 C 251.868 155.928,251.872 155.845,250.500 155.258 C 249.543 154.848,249.491 154.859,250.100 155.338 M169.800 157.600 C 168.693 157.882,168.677 157.909,169.600 157.947 C 170.150 157.969,170.870 157.813,171.200 157.600 C 171.881 157.160,171.529 157.160,169.800 157.600 M167.000 158.400 L 165.800 158.705 166.876 158.753 C 167.468 158.779,168.064 158.620,168.200 158.400 C 168.336 158.180,168.392 158.021,168.324 158.047 C 168.256 158.073,167.660 158.232,167.000 158.400 M190.400 158.168 C 190.400 158.412,191.819 159.808,194.258 161.963 C 195.106 162.713,196.205 163.689,196.700 164.133 C 197.195 164.576,197.600 164.851,197.600 164.742 C 197.600 164.634,195.980 163.060,194.000 161.244 C 192.020 159.428,190.400 158.044,190.400 158.168 M164.456 159.634 C 163.936 160.055,163.666 160.394,163.856 160.387 C 164.344 160.369,165.776 159.243,165.571 159.039 C 165.477 158.945,164.975 159.213,164.456 159.634 M198.045 162.323 C 198.526 163.094,199.569 163.796,199.805 163.509 C 199.854 163.449,199.357 162.964,198.701 162.431 C 197.589 161.529,197.544 161.521,198.045 162.323 M241.189 166.422 C 236.240 171.574,235.961 172.082,237.248 173.600 L 238.095 174.600 237.447 173.514 C 236.428 171.804,236.538 171.615,241.443 166.651 C 243.996 164.067,246.016 161.883,245.932 161.799 C 245.848 161.715,243.714 163.795,241.189 166.422 M175.867 165.793 C 173.445 167.599,172.567 168.372,173.600 167.790 C 174.645 167.201,178.400 164.383,178.400 164.187 C 178.400 163.906,178.378 163.920,175.867 165.793 M201.222 165.433 C 201.980 166.221,202.960 167.054,203.400 167.284 C 203.840 167.514,203.342 166.870,202.293 165.851 C 200.052 163.676,199.217 163.350,201.222 165.433 M183.625 164.668 C 183.611 164.925,183.854 165.645,184.165 166.268 C 184.476 166.890,185.043 168.120,185.424 169.000 C 186.566 171.637,186.635 171.747,187.229 171.899 C 187.560 171.985,187.506 171.860,187.100 171.603 C 186.715 171.360,186.400 170.844,186.400 170.457 C 186.400 170.070,186.136 169.404,185.813 168.976 C 185.490 168.549,185.220 167.806,185.213 167.324 C 185.206 166.842,185.007 166.328,184.772 166.183 C 184.537 166.037,184.188 165.532,183.997 165.059 C 183.807 164.587,183.639 164.410,183.625 164.668 M198.508 166.567 C 199.089 167.429,199.472 168.284,199.359 168.467 C 199.245 168.650,199.343 168.800,199.576 168.800 C 200.357 168.800,199.370 166.563,198.152 165.571 C 197.728 165.226,197.868 165.619,198.508 166.567 M204.602 168.802 C 205.002 169.244,205.411 169.522,205.512 169.421 C 205.728 169.205,204.588 168.000,204.167 168.000 C 204.007 168.000,204.203 168.361,204.602 168.802 M198.162 170.057 C 197.743 170.529,196.860 171.268,196.200 171.700 C 195.540 172.132,195.333 172.375,195.740 172.240 C 196.684 171.927,198.680 170.353,198.960 169.700 C 199.272 168.974,199.027 169.084,198.162 170.057 M207.177 171.308 C 207.631 171.910,207.600 172.148,206.970 172.908 L 206.230 173.800 207.202 172.902 C 208.157 172.020,208.160 171.990,207.409 171.302 C 206.679 170.632,206.668 170.632,207.177 171.308 M188.200 172.820 C 188.640 172.998,190.080 173.142,191.400 173.140 C 194.416 173.136,193.858 172.922,190.200 172.681 C 188.573 172.574,187.735 172.632,188.200 172.820 M205.459 174.735 C 204.487 175.809,205.005 177.655,206.742 179.303 C 208.146 180.635,209.911 181.627,209.397 180.795 C 209.263 180.578,208.922 180.400,208.641 180.400 C 206.869 180.400,204.824 176.017,205.958 174.650 C 206.701 173.756,206.280 173.827,205.459 174.735 M237.569 178.509 C 237.222 179.219,236.322 180.120,235.569 180.511 C 234.547 181.041,234.454 181.160,235.200 180.980 C 236.279 180.721,238.400 178.556,238.400 177.715 C 238.400 176.954,238.267 177.082,237.569 178.509 M211.900 181.648 C 212.713 181.882,213.202 182.281,213.206 182.711 C 213.209 183.090,213.395 183.670,213.618 184.000 C 213.916 184.440,213.955 184.279,213.764 183.400 C 213.460 181.997,212.582 181.185,211.424 181.236 C 210.873 181.260,211.031 181.397,211.900 181.648 M230.749 181.877 C 230.281 182.454,230.283 182.503,230.765 182.213 C 231.076 182.026,231.886 181.739,232.565 181.577 L 233.800 181.282 232.549 181.241 C 231.816 181.217,231.071 181.480,230.749 181.877 M214.282 186.421 C 214.408 187.399,214.575 188.275,214.655 188.367 C 214.981 188.742,214.760 185.755,214.421 185.221 C 214.184 184.846,214.135 185.270,214.282 186.421 M229.905 188.437 C 230.254 188.752,235.743 189.210,235.431 188.898 C 235.313 188.780,233.956 188.568,232.414 188.427 C 230.872 188.286,229.743 188.290,229.905 188.437 M208.261 188.700 C 208.159 188.865,209.003 188.949,210.138 188.886 C 213.816 188.682,214.263 188.521,211.324 188.460 C 209.742 188.427,208.364 188.535,208.261 188.700 M204.000 189.600 C 202.938 189.824,202.841 189.902,203.600 189.924 C 204.150 189.941,205.320 189.805,206.200 189.623 C 207.534 189.347,207.600 189.293,206.600 189.299 C 205.940 189.302,204.770 189.438,204.000 189.600 M236.033 189.344 C 236.125 189.423,237.370 189.586,238.800 189.706 C 240.360 189.837,241.000 189.795,240.400 189.602 C 239.412 189.284,235.711 189.065,236.033 189.344 M200.800 190.400 C 199.976 190.664,199.941 190.726,200.600 190.754 C 201.040 190.773,201.670 190.613,202.000 190.400 C 202.701 189.947,202.214 189.947,200.800 190.400 M198.576 191.371 C 197.932 191.846,197.902 191.980,198.400 192.158 C 199.335 192.493,211.986 192.637,211.464 192.306 C 211.209 192.144,208.131 192.009,204.624 192.006 C 198.930 192.001,198.330 191.937,199.024 191.413 C 199.451 191.090,199.699 190.820,199.576 190.813 C 199.454 190.806,199.004 191.057,198.576 191.371 M244.749 191.300 C 245.256 191.946,245.147 192.000,243.349 192.006 C 242.277 192.009,241.167 192.160,240.883 192.340 C 240.595 192.523,241.396 192.589,242.683 192.489 C 245.364 192.281,245.921 191.951,244.917 191.163 C 244.263 190.650,244.249 190.662,244.749 191.300 M232.508 192.307 C 232.236 192.490,233.151 192.565,234.554 192.475 C 236.023 192.382,237.453 192.507,237.951 192.774 C 238.516 193.076,239.043 193.104,239.489 192.854 C 240.067 192.530,240.022 192.467,239.184 192.429 C 238.643 192.404,237.030 192.292,235.600 192.181 C 234.170 192.069,232.779 192.126,232.508 192.307 M214.265 193.574 C 215.310 194.212,215.598 194.716,215.918 196.473 C 216.131 197.643,216.325 198.150,216.350 197.600 C 216.436 195.700,215.638 193.746,214.580 193.264 C 213.020 192.553,212.855 192.715,214.265 193.574 M228.480 194.080 C 228.216 194.344,228.025 195.019,228.054 195.580 L 228.109 196.600 228.293 195.600 C 228.394 195.050,228.661 194.375,228.887 194.100 C 229.411 193.462,229.113 193.447,228.480 194.080 M227.709 198.400 C 227.709 199.390,227.787 199.795,227.882 199.300 C 227.978 198.805,227.978 197.995,227.882 197.500 C 227.787 197.005,227.709 197.410,227.709 198.400 M213.400 200.400 C 212.293 200.682,212.277 200.709,213.200 200.747 C 213.750 200.769,214.470 200.613,214.800 200.400 C 215.481 199.960,215.129 199.960,213.400 200.400 M228.433 200.145 C 228.525 200.225,229.401 200.392,230.379 200.518 C 231.530 200.665,231.954 200.616,231.579 200.379 C 231.045 200.040,228.058 199.819,228.433 200.145 M209.400 201.200 C 208.381 201.638,209.432 201.638,210.800 201.200 C 211.604 200.943,211.643 200.877,211.000 200.868 C 210.560 200.862,209.840 201.011,209.400 201.200 M232.400 200.956 C 232.400 201.042,233.017 201.185,233.772 201.273 C 234.527 201.361,235.056 201.290,234.948 201.116 C 234.755 200.803,232.400 200.655,232.400 200.956 M206.800 202.000 C 205.976 202.264,205.941 202.326,206.600 202.354 C 207.040 202.373,207.670 202.213,208.000 202.000 C 208.701 201.547,208.214 201.547,206.800 202.000 M235.633 201.744 C 235.725 201.823,236.340 202.008,237.000 202.156 C 237.876 202.352,238.038 202.315,237.600 202.018 C 237.060 201.653,235.232 201.398,235.633 201.744 M204.890 202.870 C 203.744 204.016,205.150 204.403,210.149 204.314 L 215.000 204.229 210.400 204.109 C 205.046 203.969,204.494 203.851,205.204 202.995 C 205.790 202.289,205.562 202.198,204.890 202.870 M238.767 202.895 C 239.502 203.872,239.077 203.968,233.400 204.109 L 228.600 204.228 233.600 204.308 C 239.108 204.396,240.301 204.089,239.022 202.914 C 238.325 202.274,238.298 202.272,238.767 202.895 M226.667 207.867 C 225.569 208.964,227.374 210.436,229.719 210.356 C 230.883 210.316,230.844 210.282,229.294 209.976 C 227.080 209.540,226.688 209.271,226.928 208.355 C 227.139 207.545,227.087 207.447,226.667 207.867 M235.419 212.500 C 235.662 213.138,235.329 213.200,231.666 213.200 C 229.456 213.200,227.563 213.335,227.461 213.500 C 227.189 213.937,235.329 213.618,235.780 213.174 C 236.019 212.938,235.974 212.615,235.656 212.300 C 235.252 211.899,235.205 211.939,235.419 212.500 M209.700 213.476 C 210.085 213.576,210.715 213.576,211.100 213.476 C 211.485 213.375,211.170 213.293,210.400 213.293 C 209.630 213.293,209.315 213.375,209.700 213.476 M213.233 213.344 C 213.325 213.423,214.300 213.591,215.400 213.718 C 216.687 213.867,217.115 213.826,216.600 213.603 C 215.836 213.272,212.886 213.045,213.233 213.344 M226.438 217.200 C 226.431 217.530,226.691 218.151,227.015 218.579 C 227.339 219.007,227.494 219.705,227.359 220.129 C 227.198 220.636,227.266 220.806,227.557 220.626 C 228.123 220.277,228.132 218.929,227.572 218.583 C 227.337 218.437,226.988 217.932,226.797 217.459 C 226.596 216.961,226.445 216.852,226.438 217.200 M216.264 218.329 C 215.332 219.360,216.866 222.067,217.834 221.099 C 217.925 221.009,217.549 220.694,216.999 220.400 C 215.822 219.769,215.741 219.278,216.699 218.577 C 217.084 218.296,217.293 217.960,217.164 217.830 C 217.034 217.701,216.630 217.925,216.264 218.329 M223.803 221.419 C 222.705 221.720,221.355 221.880,220.803 221.774 L 219.800 221.582 220.738 221.992 C 221.573 222.357,226.144 221.578,226.767 220.964 C 227.063 220.672,225.848 220.858,223.803 221.419 " stroke="none" fill="#7c7c7c" fill-rule="evenodd"></path><path id="path3" d="M204.600 137.011 C 203.720 137.301,203.270 137.550,203.600 137.563 C 203.930 137.577,205.010 137.333,206.000 137.021 C 206.990 136.709,207.440 136.460,207.000 136.469 C 206.560 136.477,205.480 136.721,204.600 137.011 M216.433 136.544 C 216.525 136.623,217.140 136.808,217.800 136.956 C 218.676 137.152,218.838 137.115,218.400 136.818 C 217.860 136.453,216.032 136.198,216.433 136.544 M201.400 138.214 C 200.395 138.698,200.363 138.753,201.200 138.551 C 201.750 138.419,202.371 138.150,202.580 137.955 C 203.098 137.471,202.814 137.533,201.400 138.214 M223.085 139.203 C 224.880 140.233,227.722 143.169,229.508 145.840 C 229.939 146.484,229.946 146.447,229.554 145.600 C 228.341 142.979,223.000 137.990,221.422 138.004 C 221.190 138.006,221.938 138.546,223.085 139.203 M192.742 143.127 C 190.738 144.644,188.000 147.143,188.000 147.454 C 188.000 147.594,188.856 146.920,189.903 145.955 C 190.950 144.990,192.435 143.713,193.203 143.119 C 193.971 142.524,194.510 142.034,194.400 142.030 C 194.290 142.026,193.544 142.519,192.742 143.127 M208.300 143.889 C 209.015 143.978,210.185 143.978,210.900 143.889 C 211.615 143.801,211.030 143.728,209.600 143.728 C 208.170 143.728,207.585 143.801,208.300 143.889 M212.623 144.437 C 212.746 144.637,213.053 144.800,213.305 144.800 C 213.556 144.800,214.400 145.385,215.181 146.100 L 216.600 147.400 215.255 145.935 C 214.069 144.642,212.034 143.484,212.623 144.437 M200.500 146.196 C 199.785 146.507,199.200 146.856,199.200 146.972 C 199.200 147.219,201.226 146.396,201.780 145.924 C 202.305 145.476,202.014 145.538,200.500 146.196 M230.831 148.262 C 231.254 149.091,231.600 150.031,231.600 150.351 C 231.600 150.671,231.708 150.825,231.840 150.693 C 232.182 150.352,231.264 147.751,230.611 147.209 C 230.271 146.927,230.354 147.325,230.831 148.262 M196.860 148.403 C 195.947 149.064,195.200 149.703,195.200 149.823 C 195.200 150.011,197.454 148.477,198.580 147.522 C 199.527 146.719,198.356 147.318,196.860 148.403 M185.477 149.600 C 184.464 150.700,183.762 151.600,183.917 151.600 C 184.073 151.600,184.975 150.700,185.922 149.600 C 188.148 147.015,187.858 147.015,185.477 149.600 M211.944 148.365 C 211.047 149.091,210.034 155.073,210.899 154.539 C 211.064 154.437,211.200 153.290,211.200 151.992 C 211.200 148.792,212.137 147.835,214.900 148.214 C 215.945 148.358,216.799 148.323,216.797 148.138 C 216.791 147.409,212.899 147.591,211.944 148.365 M191.425 152.829 C 188.095 155.992,188.086 156.056,190.715 158.176 L 192.600 159.697 190.644 157.760 L 188.688 155.823 191.774 152.912 C 193.472 151.310,194.757 150.000,194.631 150.000 C 194.505 150.000,193.062 151.273,191.425 152.829 M232.248 152.200 C 232.391 152.860,232.666 153.670,232.859 154.000 C 233.084 154.384,233.118 154.168,232.952 153.400 C 232.809 152.740,232.534 151.930,232.341 151.600 C 232.116 151.216,232.082 151.432,232.248 152.200 M182.952 152.581 C 182.830 152.900,182.103 153.368,181.338 153.621 C 180.573 153.873,180.019 154.153,180.108 154.242 C 180.466 154.599,182.843 153.467,183.223 152.758 C 183.446 152.341,183.526 152.000,183.402 152.000 C 183.277 152.000,183.075 152.261,182.952 152.581 M177.600 154.800 C 177.270 155.013,176.550 155.204,176.000 155.224 C 175.450 155.243,174.280 155.610,173.400 156.039 C 171.766 156.835,171.935 156.842,174.400 156.080 C 175.170 155.842,176.700 155.378,177.800 155.049 C 178.900 154.719,179.440 154.441,179.000 154.431 C 178.560 154.421,177.930 154.587,177.600 154.800 M193.057 154.707 C 192.953 154.876,193.617 154.957,194.534 154.886 C 197.225 154.679,197.553 154.496,195.324 154.446 C 194.182 154.421,193.162 154.538,193.057 154.707 M202.912 154.695 C 203.964 154.777,205.584 154.776,206.512 154.692 C 207.440 154.608,206.580 154.541,204.600 154.542 C 202.620 154.543,201.860 154.612,202.912 154.695 M242.000 154.785 C 252.451 155.046,252.848 155.199,250.300 157.981 L 249.000 159.400 250.500 158.022 C 253.836 154.956,252.416 154.378,241.811 154.485 L 233.400 154.569 242.000 154.785 M192.046 155.909 C 192.015 156.524,192.732 157.527,194.262 159.009 C 197.252 161.905,197.587 161.826,194.723 158.900 C 193.485 157.635,192.386 156.240,192.282 155.800 C 192.113 155.085,192.088 155.096,192.046 155.909 M170.000 157.200 C 169.176 157.464,169.141 157.526,169.800 157.554 C 170.240 157.573,170.870 157.413,171.200 157.200 C 171.901 156.747,171.414 156.747,170.000 157.200 M245.800 162.294 C 244.260 163.757,243.540 164.574,244.200 164.110 C 245.370 163.286,249.148 159.583,248.783 159.617 C 248.682 159.627,247.340 160.831,245.800 162.294 M162.000 160.999 C 161.237 162.426,161.680 162.584,162.489 161.174 C 162.860 160.528,163.022 160.000,162.849 160.000 C 162.676 160.000,162.294 160.450,162.000 160.999 M192.800 160.096 C 192.800 160.179,193.835 161.124,195.100 162.195 C 196.577 163.446,196.971 163.675,196.200 162.835 C 195.062 161.595,192.800 159.773,192.800 160.096 M179.722 163.439 L 178.600 164.478 179.754 163.639 C 181.157 162.619,181.502 162.602,182.569 163.500 C 183.399 164.199,183.399 164.199,182.638 163.300 C 181.655 162.139,181.098 162.166,179.722 163.439 M202.374 167.100 C 204.478 169.245,206.281 170.949,206.379 170.887 C 206.591 170.754,199.125 163.200,198.782 163.200 C 198.654 163.200,200.270 164.955,202.374 167.100 M176.100 166.037 C 174.945 166.912,174.000 167.711,174.000 167.813 C 174.000 168.065,177.941 165.218,178.223 164.763 C 178.571 164.200,178.350 164.332,176.100 166.037 M183.206 164.668 C 183.202 164.925,183.470 165.690,183.800 166.368 C 184.130 167.045,184.670 168.155,185.000 168.832 C 185.330 169.510,185.600 170.289,185.600 170.563 C 185.600 170.837,186.095 171.497,186.700 172.030 L 187.800 173.000 186.900 171.974 C 186.405 171.410,186.000 170.750,186.000 170.507 C 186.000 170.264,185.748 169.555,185.441 168.932 C 185.133 168.310,184.506 166.990,184.046 166.000 C 183.587 165.010,183.209 164.410,183.206 164.668 M197.969 165.000 C 198.587 166.212,199.981 167.856,199.991 167.385 C 199.996 167.157,199.451 166.347,198.780 165.585 C 198.110 164.823,197.745 164.560,197.969 165.000 M240.200 168.077 C 238.376 169.947,238.042 170.400,239.242 169.374 C 240.899 167.958,243.477 165.196,243.136 165.203 C 243.061 165.204,241.740 166.498,240.200 168.077 M164.000 167.398 C 164.000 167.667,168.049 169.684,168.229 169.505 C 168.311 169.423,167.393 168.873,166.189 168.282 C 164.985 167.692,164.000 167.294,164.000 167.398 M199.186 169.627 C 198.942 170.082,197.911 170.982,196.893 171.627 C 195.876 172.272,195.308 172.800,195.631 172.800 C 196.358 172.800,199.059 170.610,199.617 169.569 C 199.843 169.146,199.938 168.800,199.828 168.800 C 199.718 168.800,199.429 169.172,199.186 169.627 M236.800 171.976 C 236.800 172.403,236.935 172.836,237.100 172.938 C 237.265 173.040,237.400 172.691,237.400 172.162 C 237.400 171.633,237.265 171.200,237.100 171.200 C 236.935 171.200,236.800 171.549,236.800 171.976 M188.262 173.300 C 188.364 173.465,189.686 173.600,191.200 173.600 C 192.714 173.600,194.036 173.465,194.138 173.300 C 194.240 173.135,192.918 173.000,191.200 173.000 C 189.482 173.000,188.160 173.135,188.262 173.300 M205.300 174.416 C 204.805 175.027,204.400 175.878,204.400 176.308 C 204.400 177.591,207.509 181.222,208.576 181.186 C 208.809 181.178,208.610 180.953,208.133 180.686 C 205.439 179.176,204.203 176.087,205.668 174.527 C 206.146 174.019,206.461 173.536,206.368 173.454 C 206.276 173.372,205.795 173.805,205.300 174.416 M238.578 176.340 C 238.554 177.906,237.011 180.661,236.000 180.941 C 235.506 181.078,235.514 181.115,236.046 181.154 C 237.414 181.252,240.039 175.762,238.944 175.091 C 238.755 174.975,238.590 175.537,238.578 176.340 M209.800 181.600 C 210.240 181.789,210.870 181.944,211.200 181.944 C 211.578 181.944,211.504 181.817,211.000 181.600 C 210.560 181.411,209.930 181.256,209.600 181.256 C 209.222 181.256,209.296 181.383,209.800 181.600 M233.000 181.600 C 231.981 182.038,233.032 182.038,234.400 181.600 C 235.204 181.343,235.243 181.277,234.600 181.268 C 234.160 181.262,233.440 181.411,233.000 181.600 M230.587 182.600 C 230.484 182.930,230.312 183.479,230.205 183.821 C 230.096 184.166,230.185 184.333,230.405 184.197 C 230.622 184.063,230.800 183.618,230.800 183.210 C 230.800 182.801,231.025 182.376,231.300 182.265 C 231.692 182.107,231.689 182.056,231.287 182.032 C 231.006 182.014,230.691 182.270,230.587 182.600 M213.212 184.000 C 213.212 184.330,213.387 184.870,213.600 185.200 C 213.945 185.733,213.988 185.733,213.988 185.200 C 213.988 184.870,213.813 184.330,213.600 184.000 C 213.255 183.467,213.212 183.467,213.212 184.000 M229.670 186.313 C 229.626 187.384,229.787 188.085,230.100 188.185 C 231.113 188.510,235.590 188.641,235.104 188.332 C 234.827 188.156,233.575 188.009,232.323 188.006 L 230.046 188.000 229.893 186.300 L 229.740 184.600 229.670 186.313 M214.046 186.868 C 214.001 187.905,213.915 187.942,211.100 188.124 C 208.032 188.322,203.429 189.163,203.736 189.469 C 203.836 189.569,204.881 189.438,206.059 189.177 C 207.237 188.917,209.516 188.621,211.125 188.519 C 214.136 188.330,214.662 187.997,214.280 186.523 C 214.154 186.036,214.078 186.149,214.046 186.868 M236.033 188.945 C 236.125 189.024,237.280 189.187,238.600 189.307 C 240.049 189.438,240.683 189.392,240.200 189.190 C 239.430 188.869,235.693 188.649,236.033 188.945 M198.178 191.224 C 196.996 192.531,197.974 192.787,204.200 192.798 C 207.280 192.804,210.520 192.894,211.400 192.999 C 212.669 193.149,212.793 193.115,212.000 192.834 C 211.450 192.639,208.176 192.462,204.724 192.440 C 198.337 192.399,197.286 192.145,198.882 191.027 C 199.375 190.682,199.586 190.400,199.351 190.400 C 199.116 190.400,198.588 190.771,198.178 191.224 M244.700 190.788 C 246.422 191.527,245.794 192.396,243.500 192.447 C 242.345 192.473,240.860 192.640,240.200 192.817 C 239.463 193.015,240.234 193.060,242.200 192.934 C 243.960 192.821,245.576 192.560,245.791 192.353 C 246.328 191.838,245.522 190.627,244.557 190.500 C 243.975 190.424,244.008 190.490,244.700 190.788 M232.449 192.746 C 231.926 192.893,233.034 193.010,234.910 193.006 C 236.787 193.003,238.114 192.868,237.861 192.706 C 237.303 192.350,233.768 192.376,232.449 192.746 M213.233 193.321 C 213.325 193.388,213.940 193.758,214.600 194.145 L 215.800 194.847 214.856 194.024 C 214.336 193.571,213.721 193.200,213.489 193.200 C 213.257 193.200,213.142 193.254,213.233 193.321 M229.200 194.000 C 228.760 194.440,228.416 195.205,228.436 195.700 C 228.465 196.422,228.543 196.356,228.831 195.363 C 229.029 194.683,229.597 193.930,230.095 193.690 C 230.593 193.450,230.775 193.242,230.500 193.227 C 230.225 193.212,229.640 193.560,229.200 194.000 M215.714 197.523 C 215.753 198.654,215.572 199.373,215.187 199.617 C 214.864 199.821,214.803 199.991,215.051 199.994 C 215.962 200.006,216.319 199.015,215.985 197.400 L 215.654 195.800 215.714 197.523 M228.152 198.200 C 228.196 199.656,228.299 199.804,229.305 199.849 C 230.271 199.891,230.286 199.876,229.428 199.724 C 228.635 199.585,228.413 199.267,228.275 198.076 L 228.105 196.600 228.152 198.200 M211.200 200.400 C 209.856 200.831,211.308 200.831,213.000 200.400 C 214.078 200.126,214.098 200.094,213.200 200.087 C 212.650 200.083,211.750 200.224,211.200 200.400 M231.600 200.405 C 231.930 200.616,232.725 200.791,233.367 200.794 C 234.914 200.802,234.577 200.571,232.600 200.268 C 231.510 200.101,231.191 200.145,231.600 200.405 M204.576 202.577 C 202.675 203.989,204.237 204.597,209.843 204.630 L 215.000 204.660 209.932 204.430 C 204.419 204.180,203.905 204.010,204.998 202.802 C 205.850 201.861,205.670 201.764,204.576 202.577 M238.950 202.556 C 240.661 203.938,239.544 204.369,233.917 204.501 L 228.600 204.625 233.851 204.713 C 238.227 204.785,239.190 204.694,239.628 204.166 C 240.216 203.458,239.760 202.356,238.771 202.099 C 238.423 202.008,238.492 202.186,238.950 202.556 M215.672 205.264 C 216.041 205.559,216.429 206.250,216.534 206.800 C 216.656 207.446,216.702 207.306,216.662 206.403 C 216.615 205.346,216.405 204.973,215.800 204.867 C 215.067 204.740,215.057 204.773,215.672 205.264 M227.432 205.700 C 226.994 207.849,226.939 208.762,227.258 208.564 C 227.446 208.448,227.600 207.769,227.600 207.056 C 227.600 206.343,227.816 205.544,228.080 205.280 C 228.445 204.915,228.447 204.800,228.088 204.800 C 227.828 204.800,227.533 205.205,227.432 205.700 M216.800 208.533 C 216.800 209.043,216.428 209.200,215.224 209.200 C 214.357 209.200,213.564 209.335,213.462 209.500 C 213.360 209.665,214.082 209.736,215.067 209.657 C 216.727 209.525,217.701 208.768,217.049 208.116 C 216.912 207.979,216.800 208.167,216.800 208.533 M227.233 209.343 C 227.650 209.702,230.397 209.919,230.185 209.576 C 230.057 209.369,229.303 209.200,228.510 209.200 C 227.716 209.200,227.142 209.265,227.233 209.343 M210.100 210.596 C 209.385 210.907,208.800 211.251,208.800 211.360 C 208.800 211.470,209.385 211.322,210.100 211.032 C 210.815 210.741,211.670 210.405,212.000 210.284 C 212.533 210.088,212.533 210.061,212.000 210.047 C 211.670 210.038,210.815 210.286,210.100 210.596 M207.841 212.236 C 207.552 212.991,207.859 213.602,208.524 213.594 C 208.863 213.590,208.852 213.494,208.486 213.262 C 208.203 213.082,208.088 212.636,208.229 212.268 C 208.370 211.901,208.396 211.600,208.286 211.600 C 208.176 211.600,207.976 211.886,207.841 212.236 M235.601 212.079 C 236.251 212.864,236.072 213.207,234.700 213.804 C 233.699 214.239,233.592 214.372,234.238 214.384 C 235.618 214.410,236.721 212.928,235.875 212.186 C 235.505 211.862,235.382 211.814,235.601 212.079 M209.700 213.876 C 210.085 213.976,210.715 213.976,211.100 213.876 C 211.485 213.775,211.170 213.693,210.400 213.693 C 209.630 213.693,209.315 213.775,209.700 213.876 M215.600 214.277 C 216.150 214.389,216.749 214.688,216.930 214.940 C 217.151 215.248,217.207 215.201,217.100 214.800 C 217.009 214.462,216.429 214.172,215.769 214.137 C 214.762 214.082,214.739 214.101,215.600 214.277 M227.338 214.617 C 227.208 214.957,227.213 215.347,227.351 215.484 C 227.488 215.621,227.600 215.445,227.600 215.092 C 227.600 214.668,228.041 214.396,228.900 214.289 L 230.200 214.128 228.887 214.064 C 228.029 214.022,227.493 214.214,227.338 214.617 M231.300 214.276 C 231.685 214.376,232.315 214.376,232.700 214.276 C 233.085 214.175,232.770 214.093,232.000 214.093 C 231.230 214.093,230.915 214.175,231.300 214.276 M216.854 216.513 C 216.825 217.124,216.530 217.729,216.200 217.855 C 215.870 217.982,215.600 218.286,215.600 218.532 C 215.600 218.777,215.976 218.602,216.435 218.143 C 216.974 217.604,217.206 216.970,217.089 216.354 C 216.924 215.478,216.904 215.491,216.854 216.513 M226.800 217.497 C 226.800 217.720,227.070 218.126,227.400 218.400 C 228.131 219.006,228.174 220.045,227.500 220.801 C 227.075 221.278,227.104 221.282,227.700 220.832 C 228.613 220.141,228.585 219.361,227.600 218.109 C 227.160 217.550,226.800 217.274,226.800 217.497 M215.600 220.157 C 215.600 220.614,218.179 221.997,219.000 221.981 C 219.476 221.971,219.190 221.747,218.296 221.428 C 217.469 221.133,216.524 220.669,216.196 220.397 C 215.868 220.125,215.600 220.017,215.600 220.157 M224.800 221.600 C 223.976 221.864,223.941 221.926,224.600 221.954 C 225.040 221.973,225.670 221.813,226.000 221.600 C 226.701 221.147,226.214 221.147,224.800 221.600 M220.906 222.474 C 221.550 222.883,222.699 222.887,222.951 222.480 C 223.059 222.304,222.533 222.160,221.780 222.160 C 220.965 222.160,220.611 222.287,220.906 222.474 " stroke="none" fill="#a09da0" fill-rule="evenodd"></path><path id="path4" d="M211.100 136.289 C 211.815 136.378,212.985 136.378,213.700 136.289 C 214.415 136.201,213.830 136.128,212.400 136.128 C 210.970 136.128,210.385 136.201,211.100 136.289 M198.100 154.687 C 198.705 154.778,199.695 154.778,200.300 154.687 C 200.905 154.595,200.410 154.520,199.200 154.520 C 197.990 154.520,197.495 154.595,198.100 154.687 M227.461 213.900 C 227.358 214.065,228.472 214.150,229.937 214.090 C 234.577 213.897,235.121 213.730,231.324 213.664 C 229.302 213.629,227.563 213.735,227.461 213.900 " stroke="none" fill="#848484" fill-rule="evenodd"></path></g></svg>