<svg id="svg" version="1.1" xmlns="http://www.w3.org/2000/svg" xmlns:xlink="http://www.w3.org/1999/xlink" width="400" height="400" viewBox="0, 0, 400,400"><g id="svgg"><path id="path0" d="M183.043 147.033 C 182.909 147.381,182.800 154.311,182.800 162.433 L 182.800 177.200 178.900 177.219 C 170.987 177.257,168.836 178.021,167.215 181.370 C 166.299 183.260,165.919 227.329,166.792 230.373 C 167.244 231.949,168.859 233.771,170.551 234.615 C 172.166 235.421,244.270 235.502,245.705 234.700 C 249.308 232.686,249.768 231.582,250.000 224.400 L 250.200 218.200 252.200 218.095 C 253.300 218.038,254.608 217.899,255.106 217.786 L 256.012 217.582 255.906 206.291 L 255.800 195.000 253.800 194.895 C 249.702 194.681,250.000 195.178,250.000 188.547 C 250.000 178.618,248.786 177.505,237.700 177.268 L 230.400 177.112 230.400 176.180 C 230.400 175.667,230.580 175.136,230.800 175.000 C 231.020 174.864,231.200 174.401,231.200 173.971 C 231.200 173.541,231.361 172.877,231.559 172.495 C 232.432 170.805,235.257 161.215,235.135 160.355 C 235.016 159.517,234.419 159.214,230.200 157.852 C 227.560 157.000,225.040 156.163,224.600 155.992 C 223.462 155.549,221.684 154.974,219.600 154.375 C 215.788 153.279,215.600 153.084,215.600 150.222 C 215.600 146.007,217.287 146.400,199.200 146.400 C 185.057 146.400,183.259 146.470,183.043 147.033 M212.756 148.947 C 213.081 149.338,213.180 153.431,213.105 163.247 L 213.000 177.000 211.100 177.122 L 209.200 177.244 209.200 167.622 C 209.200 159.716,209.102 158.000,208.649 158.000 C 208.346 158.000,207.874 157.730,207.600 157.400 C 207.326 157.070,206.764 156.800,206.351 156.800 C 205.177 156.800,204.001 155.353,203.994 153.900 C 203.984 151.718,203.622 151.502,199.742 151.351 C 195.496 151.187,194.800 151.359,194.800 152.578 C 194.800 154.054,193.654 156.394,192.895 156.468 C 192.513 156.506,191.930 156.563,191.600 156.596 C 189.095 156.842,189.224 156.298,189.107 167.125 L 189.000 177.000 187.100 177.122 L 185.200 177.244 185.200 163.302 C 185.200 152.992,185.325 149.235,185.680 148.880 C 186.426 148.134,212.135 148.198,212.756 148.947 M201.050 153.906 C 201.297 154.068,201.626 154.783,201.781 155.496 C 202.086 156.903,204.502 159.200,205.676 159.200 C 206.314 159.200,207.030 175.130,206.467 176.804 C 206.385 177.046,203.473 177.200,198.959 177.200 L 191.585 177.200 191.692 168.300 C 191.800 159.408,191.801 159.400,192.701 159.272 C 193.962 159.093,196.288 156.790,196.634 155.379 C 196.994 153.913,197.430 153.612,199.200 153.612 C 199.970 153.612,200.802 153.744,201.050 153.906 M223.532 158.030 C 231.425 160.588,232.400 161.012,232.400 161.892 C 232.400 162.645,229.618 171.606,228.300 175.100 L 227.507 177.200 225.554 177.200 C 223.394 177.200,223.369 177.157,224.142 174.714 C 226.149 168.371,226.154 167.842,224.214 167.032 C 222.656 166.381,222.166 165.195,222.530 162.955 C 222.779 161.422,222.535 160.400,221.920 160.400 C 219.850 160.400,215.600 158.213,215.600 157.148 C 215.600 155.567,216.100 155.623,223.532 158.030 M218.503 161.825 C 219.635 162.095,219.751 162.343,220.164 165.395 C 220.317 166.524,220.782 167.369,221.751 168.283 C 222.981 169.444,223.087 169.710,222.788 170.888 C 222.065 173.732,221.921 174.229,221.603 175.000 C 221.421 175.440,221.172 176.115,221.049 176.500 C 220.866 177.072,220.349 177.200,218.213 177.200 L 215.600 177.200 215.600 169.467 C 215.600 161.570,215.675 161.053,216.771 161.377 C 217.117 161.479,217.897 161.680,218.503 161.825 M244.546 180.152 C 247.023 181.187,248.661 184.707,246.967 185.357 C 246.619 185.491,230.696 185.600,211.581 185.600 C 177.600 185.600,176.819 185.617,176.413 186.376 C 175.672 187.761,176.461 187.797,212.200 188.000 L 247.400 188.200 247.400 191.400 L 247.400 194.600 244.000 194.704 C 242.130 194.761,240.240 194.968,239.800 195.163 C 239.360 195.359,238.405 195.744,237.677 196.018 C 234.252 197.308,231.200 202.174,231.200 206.344 C 231.200 212.956,236.281 217.600,243.878 217.933 L 247.600 218.095 247.600 221.248 L 247.600 224.400 212.449 224.400 C 174.592 224.400,175.419 224.355,176.667 226.334 C 177.053 226.946,179.944 227.008,212.344 227.102 L 247.600 227.204 247.600 228.222 C 247.600 228.782,247.327 229.768,246.993 230.413 C 245.700 232.915,247.578 232.800,207.833 232.800 L 171.627 232.800 170.213 231.387 L 168.800 229.973 168.800 206.605 C 168.800 180.862,168.716 181.721,171.358 180.413 C 173.488 179.359,242.062 179.114,244.546 180.152 M253.100 197.434 C 254.262 198.189,254.535 214.258,253.401 215.199 C 252.117 216.264,240.476 215.555,238.297 214.278 C 231.363 210.214,232.501 199.549,240.077 197.600 C 241.025 197.356,241.980 197.102,242.200 197.034 C 243.639 196.591,252.291 196.909,253.100 197.434 M240.908 202.264 C 239.517 202.560,238.400 204.458,238.400 206.526 C 238.400 210.700,243.867 212.205,246.046 208.632 C 248.181 205.131,245.142 201.364,240.908 202.264 " stroke="none" fill="#0f0f0f" fill-rule="evenodd"></path><path id="path1" d="M0.000 200.000 L 0.000 400.000 200.000 400.000 L 400.000 400.000 400.000 200.000 L 400.000 0.000 200.000 0.000 L 0.000 0.000 0.000 200.000 M215.500 146.185 C 215.838 146.314,216.000 147.340,216.000 149.359 L 216.000 152.343 218.100 153.120 C 219.255 153.548,220.650 154.022,221.200 154.174 C 221.750 154.326,222.560 154.600,223.000 154.783 C 223.613 155.038,231.411 157.513,235.088 158.619 C 236.321 158.990,236.035 160.881,233.606 168.413 C 232.248 172.624,231.197 176.130,231.270 176.204 C 231.344 176.277,233.833 176.376,236.802 176.423 C 248.635 176.612,250.444 178.159,250.799 188.400 L 251.000 194.200 253.700 194.318 L 256.400 194.437 256.400 206.204 C 256.400 219.615,256.631 218.800,252.826 218.800 L 250.800 218.800 250.798 223.700 C 250.795 229.400,250.417 231.097,248.719 233.031 C 246.102 236.012,249.206 235.800,208.200 235.800 L 171.400 235.800 169.605 234.795 C 168.424 234.133,167.467 233.176,166.805 231.995 L 165.800 230.200 165.800 206.400 L 165.800 182.600 166.696 180.923 C 168.602 177.359,170.697 176.579,178.700 176.457 L 182.400 176.400 182.400 161.420 C 182.400 148.859,182.492 146.388,182.971 146.120 C 183.564 145.788,214.618 145.850,215.500 146.185 M186.000 161.550 C 186.000 168.343,185.888 174.463,185.750 175.150 C 185.502 176.388,185.515 176.400,187.150 176.400 L 188.800 176.400 188.800 166.614 C 188.800 155.780,188.742 156.009,191.474 155.994 C 193.132 155.985,193.491 155.602,193.804 153.513 C 194.201 150.867,194.552 150.691,199.300 150.765 C 203.763 150.833,204.400 151.136,204.400 153.187 C 204.400 154.530,205.442 156.000,206.394 156.000 C 206.806 156.000,207.381 156.235,207.671 156.522 C 207.962 156.810,208.515 157.164,208.900 157.310 C 209.539 157.552,209.600 158.391,209.600 166.987 L 209.600 176.400 211.000 176.400 L 212.400 176.400 212.400 162.800 L 212.400 149.200 199.200 149.200 L 186.000 149.200 186.000 161.550 M197.200 155.400 C 197.200 156.620,194.362 159.600,193.200 159.600 C 192.425 159.600,192.400 159.867,192.399 168.100 L 192.399 176.600 199.199 176.482 L 206.000 176.364 206.000 167.982 C 206.000 161.223,205.896 159.600,205.461 159.600 C 203.957 159.600,202.251 158.211,201.461 156.341 C 200.465 153.984,197.200 153.263,197.200 155.400 M216.000 157.009 C 216.000 157.668,216.107 157.721,221.165 159.580 C 223.322 160.372,224.000 161.267,223.297 162.393 C 222.299 163.992,222.670 165.380,224.348 166.323 C 227.044 167.838,227.173 168.437,225.612 172.200 C 224.028 176.022,224.080 176.767,225.916 176.498 C 227.357 176.286,227.453 176.097,229.588 169.200 C 230.508 166.230,231.427 163.387,231.630 162.881 C 232.209 161.444,232.134 161.360,229.781 160.796 C 228.561 160.503,227.470 160.114,227.358 159.932 C 227.245 159.749,226.801 159.600,226.371 159.600 C 225.941 159.600,225.277 159.432,224.895 159.226 C 224.238 158.873,216.631 156.400,216.201 156.400 C 216.091 156.400,216.000 156.674,216.000 157.009 M216.000 169.200 L 216.000 176.400 218.400 176.400 C 220.426 176.400,220.800 176.290,220.800 175.694 C 220.800 175.306,221.160 174.004,221.600 172.800 C 222.624 169.998,222.608 169.679,221.392 168.722 C 220.038 167.657,219.200 165.941,219.200 164.234 C 219.200 162.743,218.410 162.000,216.826 162.000 C 216.022 162.000,216.000 162.190,216.000 169.200 M172.036 180.745 C 169.430 181.486,169.382 182.455,169.598 229.445 C 169.599 229.690,170.075 230.365,170.655 230.945 L 171.709 232.000 208.200 232.000 L 244.691 232.000 245.745 230.945 C 246.394 230.297,246.800 229.450,246.800 228.745 L 246.800 227.600 211.680 227.600 C 174.895 227.600,175.600 227.633,175.600 225.891 C 175.600 223.933,174.315 224.000,211.771 224.000 L 246.800 224.000 246.800 221.400 L 246.800 218.800 244.620 218.800 C 233.682 218.800,227.458 209.369,232.304 200.139 C 234.278 196.380,238.043 194.400,243.213 194.400 L 246.835 194.400 246.718 191.500 L 246.600 188.600 211.648 188.506 C 175.538 188.409,175.600 188.412,175.600 186.813 C 175.600 184.724,174.237 184.800,211.931 184.800 L 246.800 184.800 246.800 183.670 C 246.800 182.972,246.405 182.168,245.768 181.570 L 244.736 180.600 208.868 180.536 C 189.141 180.500,172.566 180.595,172.036 180.745 M241.156 198.028 C 233.260 199.359,231.674 210.189,238.842 213.821 C 240.725 214.776,241.090 214.816,246.907 214.710 L 253.000 214.600 253.108 206.300 C 253.193 199.805,253.106 197.997,252.708 197.987 C 246.629 197.831,242.235 197.847,241.156 198.028 M244.542 201.801 C 249.062 203.690,247.553 211.200,242.653 211.200 C 237.340 211.200,235.752 203.901,240.600 201.761 C 242.167 201.069,242.806 201.076,244.542 201.801 " stroke="none" fill="#fbfbfb" fill-rule="evenodd"></path><path id="path2" d="M182.667 146.267 C 182.520 146.413,182.400 153.253,182.400 161.467 L 182.400 176.400 178.900 176.442 C 171.149 176.534,169.362 177.096,176.580 177.171 C 183.469 177.243,182.762 179.032,182.891 161.191 C 182.951 152.836,182.985 146.000,182.967 146.000 C 182.948 146.000,182.813 146.120,182.667 146.267 M215.596 149.118 L 215.792 152.200 215.916 149.440 C 215.984 147.921,215.895 146.535,215.720 146.358 C 215.544 146.181,215.488 147.423,215.596 149.118 M185.782 149.304 C 185.675 149.581,185.639 155.476,185.700 162.404 L 185.812 175.000 185.906 162.105 L 186.000 149.211 199.300 149.100 L 212.600 148.989 199.287 148.894 C 188.885 148.821,185.933 148.910,185.782 149.304 M212.494 162.900 L 212.400 176.400 211.028 176.400 C 209.979 176.400,209.613 176.210,209.475 175.594 C 209.324 174.923,209.303 174.940,209.347 175.694 C 209.409 176.758,212.233 177.301,212.609 176.321 C 212.720 176.031,212.761 169.855,212.700 162.597 L 212.589 149.400 212.494 162.900 M194.875 151.100 C 194.381 151.526,193.972 152.505,193.833 153.600 C 193.671 154.867,193.713 155.163,193.973 154.600 C 194.177 154.160,194.356 153.327,194.372 152.749 C 194.388 152.134,194.774 151.437,195.300 151.070 C 195.795 150.724,196.085 150.433,195.944 150.421 C 195.804 150.409,195.323 150.715,194.875 151.100 M204.046 152.881 C 203.955 155.014,206.026 157.308,207.085 156.248 C 207.222 156.112,206.965 156.000,206.516 156.000 C 205.441 156.000,204.733 155.099,204.380 153.279 C 204.144 152.068,204.084 151.996,204.046 152.881 M217.400 153.222 C 218.280 153.638,219.270 153.975,219.600 153.971 C 219.930 153.966,219.300 153.611,218.200 153.182 C 215.696 152.204,215.292 152.224,217.400 153.222 M198.898 154.294 C 200.529 154.423,200.831 154.584,201.046 155.440 C 201.183 155.989,201.373 156.360,201.468 156.266 C 202.418 155.315,200.978 154.005,199.057 154.072 L 197.000 154.144 198.898 154.294 M196.800 155.462 C 196.800 155.826,196.337 156.771,195.771 157.562 L 194.742 159.000 195.971 157.615 C 197.030 156.422,197.623 154.800,197.000 154.800 C 196.890 154.800,196.800 155.098,196.800 155.462 M191.400 155.964 C 189.232 156.322,188.791 156.661,188.854 157.924 L 188.909 159.000 189.095 158.000 C 189.322 156.776,189.841 156.416,191.400 156.400 C 192.060 156.393,192.870 156.213,193.200 156.000 C 193.855 155.577,193.760 155.575,191.400 155.964 M207.751 156.852 C 207.800 157.111,208.246 157.473,208.741 157.656 C 209.312 157.868,209.551 157.845,209.397 157.595 C 209.263 157.378,208.908 157.200,208.610 157.200 C 208.311 157.200,207.975 157.016,207.863 156.790 C 207.751 156.565,207.701 156.592,207.751 156.852 M201.949 157.478 C 202.199 157.960,202.595 158.473,202.829 158.618 C 203.625 159.110,203.445 158.602,202.468 157.600 C 201.585 156.694,201.536 156.683,201.949 157.478 M215.600 157.151 C 215.600 157.344,215.853 157.712,216.161 157.968 C 216.908 158.587,219.289 159.268,218.984 158.774 C 218.857 158.568,218.403 158.400,217.976 158.400 C 217.549 158.400,216.840 158.040,216.400 157.600 C 215.960 157.160,215.600 156.958,215.600 157.151 M234.754 159.053 C 235.548 159.609,235.654 159.949,235.473 161.353 C 235.264 162.981,235.266 162.985,235.691 161.691 C 236.207 160.120,235.595 158.400,234.520 158.400 C 233.952 158.400,233.995 158.521,234.754 159.053 M192.188 168.200 L 192.200 177.000 199.200 177.000 L 206.200 177.000 206.212 168.200 L 206.225 159.400 206.105 167.882 L 205.984 176.364 199.199 176.482 L 192.414 176.600 192.295 168.000 L 192.175 159.400 192.188 168.200 M222.602 160.660 C 222.965 161.022,223.175 161.653,223.068 162.060 C 222.962 162.468,223.038 162.700,223.237 162.577 C 224.063 162.066,223.305 160.000,222.291 160.000 C 222.100 160.000,222.240 160.297,222.602 160.660 M215.867 161.867 C 215.457 162.276,215.550 176.322,215.964 176.578 C 216.659 177.008,219.826 177.155,220.411 176.784 C 220.811 176.531,220.199 176.410,218.500 176.406 L 216.000 176.400 216.000 169.228 C 216.000 162.108,216.007 162.054,216.900 161.882 C 217.735 161.722,217.740 161.705,216.967 161.654 C 216.508 161.625,216.013 161.720,215.867 161.867 M219.195 164.300 C 219.491 166.538,220.042 167.661,221.353 168.692 C 221.880 169.106,222.401 169.795,222.509 170.223 C 222.685 170.913,222.712 170.901,222.754 170.114 C 222.781 169.596,222.459 169.046,221.979 168.789 C 220.678 168.093,219.603 165.972,219.601 164.100 C 219.601 163.165,219.452 162.400,219.272 162.400 C 219.091 162.400,219.056 163.255,219.195 164.300 M234.044 165.844 C 233.580 167.324,233.270 168.604,233.356 168.689 C 233.441 168.775,233.891 167.635,234.356 166.156 C 234.820 164.676,235.130 163.396,235.044 163.311 C 234.959 163.225,234.509 164.365,234.044 165.844 M230.846 165.067 C 230.821 165.324,230.684 165.864,230.541 166.267 C 230.340 166.836,230.394 166.897,230.779 166.542 C 231.052 166.291,231.189 165.751,231.084 165.342 C 230.979 164.934,230.872 164.810,230.846 165.067 M223.270 166.113 C 223.639 166.381,224.491 166.905,225.164 167.278 C 226.236 167.872,226.363 168.121,226.184 169.278 C 225.996 170.488,226.015 170.517,226.404 169.626 C 226.979 168.309,226.717 167.810,224.827 166.617 C 223.200 165.590,222.030 165.211,223.270 166.113 M228.200 173.200 C 228.050 173.673,228.017 174.150,228.127 174.260 C 228.237 174.370,228.450 174.073,228.600 173.600 C 228.750 173.127,228.783 172.650,228.673 172.540 C 228.563 172.430,228.350 172.727,228.200 173.200 M227.337 175.712 C 226.817 176.594,224.857 176.816,224.375 176.046 C 224.028 175.491,223.987 175.513,224.089 176.200 C 224.260 177.361,226.403 177.502,227.385 176.417 C 227.794 175.965,228.026 175.493,227.901 175.368 C 227.776 175.242,227.522 175.397,227.337 175.712 M230.806 176.057 C 230.797 177.080,231.625 177.202,238.333 177.166 C 245.873 177.124,244.886 176.591,237.008 176.450 C 233.227 176.382,231.318 176.196,231.114 175.875 C 230.908 175.550,230.810 175.608,230.806 176.057 M185.566 176.526 C 185.747 176.707,186.593 176.793,187.447 176.719 L 189.000 176.583 187.119 176.390 C 186.084 176.284,185.385 176.345,185.566 176.526 M168.898 178.235 C 168.181 178.800,167.396 179.653,167.154 180.131 C 166.878 180.673,167.142 180.514,167.856 179.707 C 168.485 178.996,169.540 178.142,170.200 177.810 C 170.860 177.477,171.130 177.206,170.800 177.207 C 170.470 177.208,169.614 177.671,168.898 178.235 M247.365 178.525 C 247.761 178.814,248.441 179.489,248.877 180.025 C 249.313 180.561,249.537 180.730,249.375 180.400 C 248.914 179.459,247.503 178.000,247.054 178.000 C 246.830 178.000,246.970 178.236,247.365 178.525 M172.200 180.284 C 171.259 180.518,170.081 181.502,169.547 182.499 C 169.158 183.225,169.004 229.137,169.389 229.522 C 169.501 229.634,169.588 219.218,169.583 206.376 C 169.573 180.342,169.455 181.451,172.318 180.709 C 173.010 180.530,189.587 180.432,209.156 180.492 L 244.736 180.600 245.868 181.589 L 247.000 182.577 245.891 181.389 L 244.782 180.200 208.891 180.142 C 189.151 180.110,172.640 180.174,172.200 180.284 M165.850 183.250 C 165.520 184.901,165.604 228.732,165.940 229.924 C 166.083 230.432,166.200 219.857,166.200 206.424 C 166.200 192.991,166.178 182.000,166.150 182.000 C 166.123 182.000,165.988 182.563,165.850 183.250 M250.135 182.800 C 250.275 183.350,250.392 186.185,250.395 189.100 C 250.398 192.015,250.535 194.400,250.700 194.401 C 251.122 194.402,250.679 182.537,250.241 182.132 C 250.032 181.939,249.988 182.217,250.135 182.800 M246.846 183.700 L 246.800 184.800 211.862 184.800 C 178.523 184.800,176.894 184.833,176.262 185.531 C 175.419 186.463,175.420 187.353,176.264 188.051 C 176.872 188.554,176.881 188.524,176.367 187.699 C 174.869 185.293,173.141 185.410,211.757 185.298 C 249.274 185.188,247.588 185.283,247.080 183.323 C 246.958 182.850,246.877 182.980,246.846 183.700 M246.714 190.500 C 246.920 194.282,247.079 194.655,247.140 191.500 C 247.173 189.795,247.065 188.400,246.900 188.400 C 246.735 188.400,246.651 189.345,246.714 190.500 M233.924 197.900 C 233.359 198.505,232.692 199.450,232.441 200.000 C 232.052 200.851,232.059 200.887,232.492 200.238 C 232.771 199.819,233.514 198.874,234.141 198.138 C 235.517 196.526,235.362 196.357,233.924 197.900 M244.900 197.896 C 246.165 197.975,248.235 197.975,249.500 197.896 C 250.765 197.816,249.730 197.751,247.200 197.751 C 244.670 197.751,243.635 197.816,244.900 197.896 M252.508 197.854 C 253.160 198.045,253.208 198.711,253.108 206.331 L 253.000 214.600 247.400 214.817 L 241.800 215.035 247.200 215.111 C 250.170 215.153,252.829 215.043,253.108 214.865 C 254.088 214.243,253.602 197.831,252.600 197.728 C 251.963 197.663,251.944 197.688,252.508 197.854 M238.600 198.466 C 236.717 199.505,233.949 202.883,234.517 203.450 C 234.613 203.547,234.910 203.101,235.175 202.460 C 235.736 201.106,237.290 199.564,239.000 198.664 C 239.660 198.316,240.020 198.030,239.800 198.028 C 239.580 198.026,239.040 198.223,238.600 198.466 M242.600 201.590 C 245.017 202.212,245.886 202.759,246.391 203.979 C 246.675 204.665,246.987 205.147,247.083 205.050 C 248.049 204.084,244.316 201.142,242.251 201.241 C 241.625 201.271,241.717 201.363,242.600 201.590 M239.231 202.636 C 238.554 203.205,238.005 203.880,238.012 204.136 C 238.019 204.391,238.215 204.273,238.447 203.873 C 238.680 203.473,239.439 202.798,240.135 202.374 C 240.831 201.950,241.189 201.602,240.931 201.601 C 240.673 201.601,239.908 202.066,239.231 202.636 M230.656 203.900 C 230.382 204.871,230.602 209.135,230.944 209.477 C 231.098 209.631,231.187 208.282,231.143 206.478 C 231.059 203.082,230.990 202.717,230.656 203.900 M233.829 205.429 C 233.681 206.015,233.638 206.572,233.732 206.666 C 233.827 206.760,234.024 206.358,234.171 205.771 C 234.319 205.185,234.362 204.628,234.268 204.534 C 234.173 204.440,233.976 204.842,233.829 205.429 M237.701 206.200 C 237.705 207.080,237.787 207.393,237.883 206.895 C 237.979 206.398,237.975 205.678,237.875 205.295 C 237.775 204.913,237.696 205.320,237.701 206.200 M238.000 208.264 C 238.000 208.482,238.495 209.097,239.100 209.630 L 240.200 210.600 239.200 209.400 C 238.650 208.740,238.155 208.125,238.100 208.033 C 238.045 207.942,238.000 208.045,238.000 208.264 M240.662 210.900 C 240.764 211.065,241.636 211.200,242.600 211.200 C 243.564 211.200,244.436 211.065,244.538 210.900 C 244.640 210.735,243.768 210.600,242.600 210.600 C 241.432 210.600,240.560 210.735,240.662 210.900 M234.200 214.747 C 235.696 216.356,238.661 218.272,239.052 217.882 C 239.147 217.786,238.635 217.465,237.913 217.169 C 237.191 216.872,235.700 215.819,234.600 214.828 L 232.600 213.027 234.200 214.747 M237.600 213.396 C 237.600 213.670,240.049 214.884,240.232 214.701 C 240.319 214.614,239.762 214.244,238.995 213.878 C 238.228 213.512,237.600 213.295,237.600 213.396 M255.600 218.000 C 255.270 218.213,254.049 218.391,252.887 218.394 C 250.326 218.401,250.480 217.996,250.313 225.167 C 250.240 228.339,250.301 230.499,250.450 229.967 C 250.599 229.435,250.738 226.705,250.760 223.900 L 250.800 218.800 252.924 218.800 C 254.171 218.800,255.367 218.558,255.824 218.213 C 256.693 217.555,256.529 217.400,255.600 218.000 M241.000 218.364 C 241.440 218.573,242.925 218.756,244.300 218.772 L 246.800 218.800 246.800 221.400 L 246.800 224.000 211.771 224.000 C 174.315 224.000,175.600 223.933,175.600 225.891 C 175.600 227.633,174.896 227.600,211.653 227.600 L 246.747 227.600 246.912 228.500 C 247.056 229.283,247.072 229.270,247.039 228.400 L 247.000 227.400 211.600 227.200 L 176.200 227.000 176.081 226.165 C 175.826 224.385,175.359 224.409,212.038 224.302 L 247.000 224.200 247.118 221.300 L 247.235 218.400 244.718 218.395 C 243.333 218.392,241.750 218.298,241.200 218.186 C 240.328 218.010,240.303 218.032,241.000 218.364 M169.600 230.296 C 169.600 230.758,171.136 232.197,171.375 231.958 C 171.469 231.865,171.107 231.367,170.573 230.852 C 170.038 230.337,169.600 230.087,169.600 230.296 M245.600 231.071 C 245.050 231.653,244.855 232.045,245.166 231.943 C 245.665 231.778,247.128 229.989,246.749 230.007 C 246.667 230.011,246.150 230.490,245.600 231.071 M167.078 232.386 C 167.491 233.148,168.452 234.104,169.214 234.510 C 170.507 235.200,170.534 235.201,169.615 234.525 C 168.656 233.819,168.305 233.458,166.972 231.800 C 166.521 231.240,166.553 231.415,167.078 232.386 M247.917 233.241 C 246.882 234.318,246.110 235.200,246.203 235.200 C 246.567 235.200,249.253 232.648,249.629 231.945 C 250.177 230.922,250.064 231.007,247.917 233.241 M172.063 232.196 C 172.327 232.460,244.061 232.473,244.325 232.208 C 244.440 232.094,228.183 232.000,208.200 232.000 C 188.217 232.000,171.955 232.088,172.063 232.196 M171.823 235.653 C 172.470 235.792,188.840 235.905,208.200 235.905 C 227.560 235.905,243.930 235.792,244.577 235.653 C 245.225 235.514,228.855 235.400,208.200 235.400 C 187.545 235.400,171.175 235.514,171.823 235.653 " stroke="none" fill="#989898" fill-rule="evenodd"></path><path id="path3" d="M183.067 146.267 C 182.920 146.413,182.803 146.728,182.806 146.967 C 182.810 147.227,182.938 147.202,183.127 146.905 C 183.366 146.528,187.212 146.383,199.221 146.300 L 215.000 146.190 199.167 146.095 C 190.458 146.043,183.213 146.120,183.067 146.267 M185.680 148.880 C 185.416 149.144,185.200 149.538,185.200 149.756 C 185.200 149.975,185.425 149.846,185.700 149.470 C 186.157 148.847,187.345 148.797,199.400 148.894 L 212.600 149.000 212.705 162.941 L 212.810 176.881 211.005 176.738 C 210.012 176.659,209.200 176.740,209.200 176.919 C 209.200 177.098,210.055 177.189,211.100 177.122 L 213.000 177.000 213.105 163.247 C 213.180 153.431,213.081 149.338,212.756 148.947 C 212.135 148.198,186.426 148.134,185.680 148.880 M195.093 151.324 C 194.765 151.586,194.390 152.520,194.260 153.400 C 194.098 154.493,194.144 154.810,194.405 154.400 C 194.616 154.070,194.791 153.308,194.794 152.708 C 194.800 151.557,196.134 150.859,197.399 151.344 C 197.729 151.471,198.386 151.432,198.858 151.257 C 199.491 151.023,199.187 150.927,197.702 150.893 C 196.595 150.868,195.420 151.062,195.093 151.324 M201.000 151.181 C 201.440 151.381,202.190 151.556,202.667 151.572 C 203.143 151.587,203.624 151.825,203.735 152.100 C 203.881 152.461,203.946 152.467,203.968 152.124 C 204.010 151.498,203.712 151.353,201.800 151.062 C 200.684 150.892,200.442 150.929,201.000 151.181 M198.300 153.882 C 198.795 153.978,199.605 153.978,200.100 153.882 C 200.595 153.787,200.190 153.709,199.200 153.709 C 198.210 153.709,197.805 153.787,198.300 153.882 M219.600 154.400 C 219.930 154.613,220.470 154.788,220.800 154.788 C 221.333 154.788,221.333 154.745,220.800 154.400 C 220.470 154.187,219.930 154.012,219.600 154.012 C 219.067 154.012,219.067 154.055,219.600 154.400 M215.633 156.143 C 215.725 156.222,216.520 156.397,217.400 156.532 C 218.490 156.699,218.809 156.655,218.400 156.395 C 217.853 156.046,215.245 155.809,215.633 156.143 M206.271 156.678 C 206.750 156.772,207.357 157.107,207.620 157.424 C 207.883 157.741,208.391 157.989,208.749 157.975 C 209.190 157.957,209.109 157.832,208.500 157.588 C 208.005 157.389,207.600 157.040,207.600 156.813 C 207.600 156.586,207.105 156.425,206.500 156.454 C 205.601 156.499,205.559 156.540,206.271 156.678 M202.598 157.537 C 203.034 158.052,203.753 158.659,204.196 158.886 C 205.045 159.321,204.921 159.187,203.003 157.594 C 201.848 156.635,201.834 156.633,202.598 157.537 M220.400 157.400 C 221.170 157.697,222.070 157.939,222.400 157.939 C 222.730 157.939,222.370 157.697,221.600 157.400 C 220.830 157.103,219.930 156.861,219.600 156.861 C 219.270 156.861,219.630 157.103,220.400 157.400 M234.500 159.232 C 234.885 159.456,235.221 160.036,235.246 160.520 C 235.284 161.226,235.330 161.257,235.479 160.681 C 235.684 159.891,234.963 158.793,234.251 158.812 C 234.003 158.819,234.115 159.008,234.500 159.232 M191.867 159.467 C 191.497 159.837,191.529 177.200,191.900 177.200 C 192.065 177.200,192.200 173.150,192.200 168.200 C 192.200 163.250,192.185 159.200,192.167 159.200 C 192.148 159.200,192.013 159.320,191.867 159.467 M231.952 162.087 C 232.137 163.198,232.193 163.255,232.319 162.454 C 232.401 161.933,232.303 161.343,232.101 161.141 C 231.879 160.919,231.821 161.293,231.952 162.087 M222.509 164.000 C 222.509 164.990,222.587 165.395,222.682 164.900 C 222.778 164.405,222.778 163.595,222.682 163.100 C 222.587 162.605,222.509 163.010,222.509 164.000 M219.606 164.233 C 219.609 165.095,219.770 166.049,219.963 166.354 C 220.178 166.693,220.232 166.149,220.104 164.954 C 219.842 162.517,219.598 162.164,219.606 164.233 M225.455 167.689 C 225.621 167.957,225.736 168.722,225.711 169.389 C 225.668 170.534,225.682 170.545,225.970 169.600 C 226.248 168.688,225.871 167.200,225.362 167.200 C 225.247 167.200,225.289 167.420,225.455 167.689 M228.712 172.800 C 228.576 173.350,228.350 174.250,228.210 174.800 C 228.052 175.422,228.197 175.279,228.592 174.421 C 228.942 173.662,229.168 172.762,229.094 172.421 C 229.010 172.031,228.868 172.172,228.712 172.800 M230.667 175.067 C 230.301 175.432,230.329 177.200,230.700 177.200 C 230.865 177.200,231.000 176.660,231.000 176.000 C 231.000 175.340,230.985 174.800,230.967 174.800 C 230.948 174.800,230.813 174.920,230.667 175.067 M185.200 176.900 C 185.200 177.065,185.999 177.200,186.976 177.200 C 187.953 177.200,188.836 177.065,188.938 176.900 C 189.040 176.735,188.241 176.600,187.162 176.600 C 186.083 176.600,185.200 176.735,185.200 176.900 M246.200 178.207 C 246.640 178.566,247.360 179.035,247.800 179.251 L 248.600 179.644 247.800 178.993 C 247.360 178.634,246.640 178.165,246.200 177.949 L 245.400 177.556 246.200 178.207 M172.315 179.928 C 171.938 180.078,188.086 180.200,208.200 180.200 C 228.314 180.200,244.462 180.078,244.085 179.928 C 243.190 179.573,173.210 179.573,172.315 179.928 M170.365 180.913 C 170.016 181.181,169.499 181.850,169.216 182.400 C 168.934 182.950,168.862 183.220,169.057 183.000 C 171.453 180.300,171.722 179.871,170.365 180.913 M246.162 181.472 C 246.580 181.973,247.055 183.062,247.216 183.891 L 247.508 185.400 247.554 184.106 C 247.586 183.194,247.276 182.481,246.500 181.687 C 245.895 181.068,245.743 180.971,246.162 181.472 M250.158 189.000 C 250.158 192.080,250.221 193.287,250.297 191.682 C 250.373 190.078,250.373 187.558,250.296 186.082 C 250.219 184.607,250.157 185.920,250.158 189.000 M166.187 206.400 C 166.187 218.830,166.238 223.915,166.300 217.700 C 166.362 211.485,166.362 201.315,166.300 195.100 C 166.238 188.885,166.187 193.970,166.187 206.400 M176.480 185.680 C 176.216 185.944,176.000 186.338,176.000 186.556 C 176.000 186.775,176.225 186.648,176.500 186.276 C 176.962 185.651,179.660 185.592,212.000 185.498 L 247.000 185.396 211.980 185.298 C 185.166 185.223,176.848 185.312,176.480 185.680 M177.062 188.100 C 177.164 188.265,192.972 188.400,212.190 188.400 C 235.655 188.400,247.200 188.535,247.337 188.810 C 247.449 189.036,247.494 188.990,247.437 188.710 C 247.354 188.303,240.209 188.160,212.105 188.000 C 192.729 187.890,176.960 187.935,177.062 188.100 M243.800 194.400 L 240.200 194.649 243.676 194.724 C 245.649 194.767,247.260 194.627,247.400 194.400 C 247.536 194.180,247.592 194.034,247.524 194.076 C 247.456 194.117,245.780 194.263,243.800 194.400 M251.907 194.690 C 252.626 194.779,253.706 194.777,254.307 194.686 C 254.908 194.595,254.320 194.522,253.000 194.524 C 251.680 194.526,251.188 194.601,251.907 194.690 M239.000 195.085 C 237.775 195.380,237.398 195.928,238.576 195.703 C 239.146 195.594,239.710 195.346,239.830 195.152 C 239.949 194.959,239.992 194.821,239.924 194.846 C 239.856 194.872,239.440 194.979,239.000 195.085 M255.912 206.088 C 256.000 214.880,255.913 217.416,255.512 217.699 C 255.122 217.975,255.143 218.022,255.600 217.897 C 256.257 217.718,256.746 195.786,256.106 195.146 C 255.938 194.977,255.851 199.901,255.912 206.088 M235.000 197.444 L 233.400 198.876 235.200 197.561 C 236.190 196.837,237.075 196.190,237.167 196.123 C 237.258 196.055,237.168 196.003,236.967 196.006 C 236.765 196.009,235.880 196.656,235.000 197.444 M241.628 197.174 C 241.093 197.311,243.253 197.395,246.428 197.361 C 254.331 197.276,253.637 196.379,253.508 206.518 L 253.400 215.000 247.600 215.217 L 241.800 215.434 247.420 215.517 C 251.357 215.575,253.184 215.456,253.520 215.120 C 254.541 214.099,254.162 198.123,253.100 197.434 C 252.168 196.828,243.730 196.637,241.628 197.174 M238.144 198.369 C 237.453 198.790,236.747 199.375,236.575 199.668 C 236.390 199.982,236.577 199.934,237.031 199.550 C 237.454 199.193,238.340 198.615,239.000 198.266 C 239.660 197.917,240.020 197.625,239.800 197.618 C 239.580 197.610,238.835 197.948,238.144 198.369 M241.338 201.906 C 241.084 202.068,241.652 202.200,242.600 202.200 C 243.548 202.200,244.116 202.068,243.862 201.906 C 243.608 201.744,243.040 201.612,242.600 201.612 C 242.160 201.612,241.592 201.744,241.338 201.906 M245.599 203.500 C 246.122 204.215,246.613 204.800,246.689 204.800 C 246.993 204.800,246.001 203.300,245.345 202.767 C 244.913 202.416,245.010 202.696,245.599 203.500 M233.829 203.829 C 233.681 204.415,233.638 204.972,233.732 205.066 C 233.827 205.160,234.024 204.758,234.171 204.171 C 234.319 203.585,234.362 203.028,234.268 202.934 C 234.173 202.840,233.976 203.242,233.829 203.829 M238.101 206.200 C 238.105 207.080,238.187 207.393,238.283 206.895 C 238.379 206.398,238.375 205.678,238.275 205.295 C 238.175 204.913,238.096 205.320,238.101 206.200 M239.687 209.700 C 240.306 210.305,241.035 210.795,241.306 210.788 C 241.578 210.781,241.440 210.577,241.000 210.333 C 240.560 210.090,239.831 209.600,239.381 209.245 C 238.930 208.890,239.068 209.095,239.687 209.700 M244.600 210.027 C 243.940 210.450,243.605 210.797,243.856 210.798 C 244.106 210.799,244.736 210.446,245.256 210.013 C 246.445 209.023,246.159 209.029,244.600 210.027 M234.400 210.145 C 234.400 211.666,238.938 215.233,240.778 215.159 C 241.702 215.122,241.679 215.089,240.543 214.818 C 238.634 214.363,236.485 212.883,235.387 211.266 C 234.844 210.468,234.400 209.963,234.400 210.145 M232.726 212.600 C 233.447 214.011,237.219 217.200,238.167 217.200 C 238.381 217.200,237.746 216.686,236.755 216.057 C 235.763 215.429,234.360 214.214,233.635 213.357 C 232.910 212.501,232.501 212.160,232.726 212.600 M239.200 217.582 C 239.530 217.805,240.145 217.991,240.567 217.994 C 241.590 218.002,241.271 217.773,239.800 217.444 C 238.924 217.248,238.762 217.285,239.200 217.582 M250.175 218.522 C 250.064 218.809,250.031 221.284,250.101 224.022 L 250.227 229.000 250.314 223.733 C 250.375 219.962,250.542 218.409,250.900 218.265 C 251.292 218.107,251.289 218.056,250.887 218.032 C 250.606 218.014,250.285 218.235,250.175 218.522 M176.416 224.981 C 175.830 225.687,176.005 226.869,176.731 227.110 C 177.165 227.255,177.169 227.140,176.755 226.476 C 176.344 225.818,176.347 225.545,176.773 225.032 C 177.062 224.685,177.208 224.400,177.098 224.400 C 176.988 224.400,176.681 224.661,176.416 224.981 M167.200 232.125 C 167.200 232.194,167.785 232.779,168.500 233.425 L 169.800 234.600 168.625 233.300 C 167.530 232.088,167.200 231.816,167.200 232.125 M171.542 232.502 C 171.708 232.668,187.764 232.758,207.222 232.702 L 242.600 232.600 206.920 232.400 C 187.296 232.290,171.376 232.336,171.542 232.502 M247.775 233.300 L 246.600 234.600 247.900 233.425 C 248.615 232.779,249.200 232.194,249.200 232.125 C 249.200 231.816,248.870 232.088,247.775 233.300 M190.530 235.500 C 200.392 235.560,216.412 235.559,226.130 235.500 C 235.849 235.440,227.780 235.391,208.200 235.392 C 188.620 235.392,180.669 235.440,190.530 235.500 " stroke="none" fill="#7c7c7c" fill-rule="evenodd"></path><path id="path4" d="M185.379 163.000 C 185.379 170.260,185.433 173.286,185.499 169.725 C 185.565 166.164,185.566 160.224,185.499 156.525 C 185.433 152.826,185.379 155.740,185.379 163.000 M188.901 160.200 C 188.905 161.080,188.987 161.393,189.083 160.895 C 189.179 160.398,189.175 159.678,189.075 159.295 C 188.975 158.913,188.896 159.320,188.901 160.200 M188.965 169.400 C 188.966 173.360,189.026 174.926,189.098 172.880 C 189.171 170.834,189.171 167.594,189.098 165.680 C 189.024 163.766,188.965 165.440,188.965 169.400 M209.361 168.800 C 209.361 172.210,209.422 173.605,209.497 171.900 C 209.572 170.195,209.572 167.405,209.497 165.700 C 209.422 163.995,209.361 165.390,209.361 168.800 M168.985 205.400 C 168.985 216.180,169.037 220.533,169.100 215.072 C 169.163 209.612,169.163 200.792,169.100 195.472 C 169.037 190.153,168.985 194.620,168.985 205.400 M247.328 191.600 C 247.328 193.030,247.401 193.615,247.489 192.900 C 247.578 192.185,247.578 191.015,247.489 190.300 C 247.401 189.585,247.328 190.170,247.328 191.600 M243.305 197.487 C 243.914 197.579,244.814 197.577,245.305 197.482 C 245.797 197.387,245.300 197.311,244.200 197.314 C 243.100 197.317,242.697 197.395,243.305 197.487 M246.893 206.400 C 246.893 207.170,246.975 207.485,247.076 207.100 C 247.176 206.715,247.176 206.085,247.076 205.700 C 246.975 205.315,246.893 205.630,246.893 206.400 M242.691 218.289 C 243.401 218.377,244.661 218.379,245.491 218.292 C 246.321 218.205,245.740 218.133,244.200 218.131 C 242.660 218.129,241.981 218.200,242.691 218.289 M252.100 218.287 C 252.705 218.378,253.695 218.378,254.300 218.287 C 254.905 218.195,254.410 218.120,253.200 218.120 C 251.990 218.120,251.495 218.195,252.100 218.287 M247.293 220.000 C 247.293 220.770,247.375 221.085,247.476 220.700 C 247.576 220.315,247.576 219.685,247.476 219.300 C 247.375 218.915,247.293 219.230,247.293 220.000 " stroke="none" fill="#848484" fill-rule="evenodd"></path></g></svg>