<svg id="svg" version="1.1" xmlns="http://www.w3.org/2000/svg" xmlns:xlink="http://www.w3.org/1999/xlink" width="400" height="400" viewBox="0, 0, 400,400"><g id="svgg"><path id="path0" d="M177.300 171.462 C 176.913 171.620,176.800 174.836,176.800 185.633 L 176.800 199.600 189.405 199.600 L 202.010 199.600 201.905 185.500 L 201.800 171.400 189.800 171.329 C 183.200 171.289,177.575 171.349,177.300 171.462 M206.667 171.467 C 206.520 171.613,206.400 176.110,206.400 181.459 L 206.400 191.185 207.399 191.436 C 209.044 191.848,209.585 191.417,209.337 189.891 C 209.041 188.065,209.991 187.115,211.950 187.279 C 213.374 187.398,213.402 187.434,213.521 189.280 C 213.651 191.294,214.377 191.915,216.000 191.400 C 217.070 191.060,217.256 180.150,216.199 179.744 C 214.627 179.141,213.600 179.940,213.600 181.765 C 213.600 183.688,213.315 183.932,211.246 183.775 C 209.678 183.656,209.215 183.100,209.206 181.329 C 209.199 179.839,210.149 178.729,211.351 178.822 C 213.116 178.960,213.252 178.844,213.124 177.300 C 213.007 175.882,212.918 175.793,211.501 175.676 C 209.897 175.543,208.974 174.507,209.312 173.216 C 209.692 171.761,207.694 170.439,206.667 171.467 M214.080 171.680 C 213.816 171.944,213.600 172.754,213.600 173.480 L 213.600 174.800 218.800 174.800 L 224.000 174.800 224.000 173.000 L 224.000 171.200 219.280 171.200 C 216.142 171.200,214.399 171.361,214.080 171.680 M228.900 171.462 C 228.513 171.620,228.400 174.836,228.400 185.633 L 228.400 199.600 241.005 199.600 L 253.610 199.600 253.505 185.500 L 253.400 171.400 241.400 171.329 C 234.800 171.289,229.175 171.349,228.900 171.462 M198.786 175.574 C 199.469 176.851,199.335 195.008,198.637 195.706 C 198.046 196.297,182.443 196.722,180.773 196.192 C 179.989 195.942,179.506 175.827,180.267 175.067 C 181.020 174.314,198.366 174.789,198.786 175.574 M250.330 175.700 C 250.807 177.082,250.894 194.898,250.428 195.600 C 250.011 196.228,233.010 196.624,232.045 196.028 C 231.588 195.745,231.352 175.924,231.798 175.203 C 232.397 174.235,249.988 174.706,250.330 175.700 M184.580 180.108 C 184.468 180.401,184.426 183.061,184.488 186.020 L 184.600 191.400 189.241 191.512 C 195.122 191.654,194.855 191.966,194.712 185.145 L 194.600 179.800 189.692 179.688 C 185.895 179.601,184.738 179.696,184.580 180.108 M236.180 180.108 C 236.068 180.401,236.026 183.061,236.088 186.020 L 236.200 191.400 241.179 191.400 L 246.157 191.400 246.179 185.600 L 246.200 179.800 241.292 179.688 C 237.495 179.601,236.338 179.696,236.180 180.108 M221.467 183.867 C 220.446 184.888,221.232 187.200,222.600 187.200 C 223.960 187.200,224.000 187.156,224.000 185.643 C 224.000 183.912,222.484 182.849,221.467 183.867 M217.367 192.541 C 216.740 194.176,217.353 195.400,218.800 195.400 C 220.910 195.400,221.001 192.277,218.897 192.074 C 218.028 191.991,217.519 192.146,217.367 192.541 M206.883 196.340 C 206.509 196.577,206.399 197.651,206.483 200.234 L 206.600 203.800 208.279 203.922 L 209.958 204.044 210.079 205.922 L 210.200 207.800 213.400 207.800 L 216.600 207.800 216.800 206.000 C 216.995 204.242,217.038 204.195,218.600 204.000 C 220.156 203.806,220.203 203.754,220.322 202.124 L 220.444 200.448 218.722 200.324 L 217.000 200.200 216.878 198.300 C 216.811 197.255,216.586 196.380,216.378 196.356 C 216.170 196.331,215.640 196.311,215.200 196.311 C 214.760 196.311,214.230 196.331,214.022 196.356 C 213.814 196.380,213.589 197.255,213.522 198.300 C 213.305 201.686,209.200 201.197,209.200 197.786 C 209.200 195.939,208.351 195.409,206.883 196.340 M222.100 196.310 C 220.359 196.592,220.816 199.600,222.600 199.600 C 223.960 199.600,224.000 199.556,224.000 198.043 C 224.000 196.408,223.622 196.064,222.100 196.310 M180.708 204.684 C 180.620 204.858,180.560 205.630,180.574 206.400 L 180.600 207.800 183.924 207.917 L 187.248 208.033 187.124 206.317 L 187.000 204.600 183.934 204.484 C 182.247 204.420,180.795 204.510,180.708 204.684 M191.886 204.648 C 190.776 205.757,191.625 208.046,193.100 207.924 C 195.221 207.749,195.475 204.686,193.386 204.481 C 192.718 204.416,192.043 204.491,191.886 204.648 M199.181 205.451 C 198.508 207.221,198.831 207.786,200.598 207.930 C 203.688 208.182,203.835 212.800,200.753 212.800 C 198.772 212.800,198.400 212.445,198.400 210.557 L 198.400 208.800 196.822 208.800 L 195.244 208.800 195.122 210.700 L 195.000 212.600 187.900 212.709 L 180.800 212.818 180.800 216.635 L 180.800 220.451 182.100 220.325 C 183.320 220.208,183.412 220.090,183.600 218.400 L 183.800 216.600 187.700 216.486 L 191.600 216.371 191.600 218.543 C 191.600 220.803,191.078 221.464,189.644 221.018 C 188.546 220.677,187.932 221.390,188.070 222.842 L 188.200 224.200 191.400 224.200 L 194.600 224.200 194.641 222.757 C 194.699 220.746,195.019 220.400,196.824 220.400 L 198.400 220.400 198.400 218.379 L 198.400 216.358 200.500 216.479 L 202.600 216.600 202.600 218.600 L 202.600 220.600 200.936 220.969 C 199.537 221.280,199.235 221.525,199.038 222.510 C 198.690 224.250,198.957 224.400,202.409 224.400 L 205.571 224.400 205.686 220.500 L 205.800 216.600 207.500 216.477 L 209.200 216.354 209.240 213.977 C 209.262 212.670,209.280 211.150,209.280 210.600 C 209.280 208.879,209.227 208.800,208.076 208.800 C 206.431 208.800,205.657 208.012,205.520 206.200 L 205.400 204.600 202.497 204.482 C 199.662 204.368,199.584 204.390,199.181 205.451 M228.686 204.648 C 228.529 204.805,228.400 206.534,228.400 208.491 L 228.400 212.048 229.900 211.924 L 231.400 211.800 231.400 208.200 L 231.400 204.600 230.186 204.481 C 229.518 204.416,228.843 204.491,228.686 204.648 M236.274 204.659 C 235.173 205.760,236.033 208.000,237.557 208.000 C 239.268 208.000,239.600 208.415,239.600 210.553 C 239.600 212.195,238.980 212.800,237.297 212.800 C 235.964 212.800,235.955 212.813,236.077 214.500 L 236.200 216.200 239.077 216.317 C 242.628 216.462,242.949 216.075,242.671 211.992 C 242.403 208.053,242.425 208.037,248.400 207.908 L 253.400 207.800 253.400 206.200 L 253.400 204.600 244.974 204.492 C 240.340 204.433,236.425 204.508,236.274 204.659 M217.122 210.700 L 217.000 212.600 215.300 212.723 C 213.675 212.841,213.600 212.903,213.600 214.143 C 213.600 216.212,214.072 216.400,219.280 216.400 L 224.000 216.400 224.000 212.600 L 224.000 208.800 220.622 208.800 L 217.244 208.800 217.122 210.700 M246.800 216.773 C 246.800 220.797,246.284 221.917,244.840 221.025 C 243.956 220.478,243.200 221.316,243.200 222.843 C 243.200 224.332,243.257 224.400,244.500 224.406 C 246.514 224.416,246.865 224.830,246.724 227.039 L 246.600 229.000 245.000 229.200 C 243.440 229.395,243.397 229.443,243.277 231.100 L 243.154 232.800 246.563 232.800 C 250.575 232.800,250.876 233.071,250.626 236.459 C 250.403 239.481,250.712 240.690,251.757 240.890 C 253.536 241.230,253.600 241.024,253.600 234.990 L 253.600 229.246 251.900 229.123 L 250.200 229.000 250.090 222.723 L 249.980 216.447 251.690 216.323 C 253.393 216.200,253.400 216.193,253.523 214.500 L 253.646 212.800 250.223 212.800 L 246.800 212.800 246.800 216.773 M228.686 217.048 C 228.529 217.205,228.400 218.934,228.400 220.891 L 228.400 224.448 229.900 224.324 L 231.400 224.200 231.400 220.600 L 231.400 217.000 230.186 216.881 C 229.518 216.816,228.843 216.891,228.686 217.048 M177.264 221.112 C 177.009 221.197,176.800 221.983,176.800 222.857 L 176.800 224.448 178.300 224.324 C 179.709 224.208,179.807 224.112,179.921 222.749 C 180.043 221.291,178.879 220.574,177.264 221.112 M210.147 221.868 C 209.651 223.844,210.033 224.193,212.804 224.302 C 217.473 224.486,217.200 224.194,217.200 229.008 L 217.200 233.200 215.222 233.200 L 213.244 233.200 213.122 231.300 C 213.001 229.409,212.993 229.399,211.400 229.200 C 209.838 229.005,209.795 228.958,209.600 227.200 C 209.406 225.450,209.358 225.397,207.900 225.276 L 206.400 225.152 206.400 228.953 L 206.400 232.754 208.100 232.877 C 209.796 233.000,209.801 233.005,210.000 234.800 L 210.200 236.600 213.600 236.800 L 217.000 237.000 217.130 238.595 C 217.381 241.686,220.087 242.366,220.330 239.399 C 220.639 235.616,224.562 235.622,224.870 239.405 C 224.991 240.884,225.090 241.003,226.241 241.040 C 228.073 241.099,228.400 241.460,228.400 243.424 C 228.400 245.176,228.418 245.200,229.757 245.200 C 231.261 245.200,231.600 244.720,231.600 242.590 C 231.600 241.295,231.662 241.242,233.300 241.123 C 234.970 241.002,235.002 240.972,235.130 239.405 C 235.323 237.033,235.687 236.800,239.206 236.800 C 242.493 236.800,242.755 236.647,242.612 234.810 C 242.519 233.613,241.388 233.229,238.764 233.504 C 235.557 233.840,235.200 233.388,235.200 228.986 L 235.200 225.200 233.600 225.200 L 232.000 225.200 232.000 227.200 L 232.000 229.200 230.000 229.200 L 228.000 229.200 228.000 227.200 L 228.000 225.200 226.480 225.200 C 224.564 225.200,224.000 224.636,224.000 222.720 C 224.000 221.884,223.865 221.191,223.700 221.180 C 216.988 220.735,210.347 221.073,210.147 221.868 M236.000 222.800 C 236.000 224.362,236.033 224.400,237.400 224.400 C 238.767 224.400,238.800 224.362,238.800 222.800 C 238.800 221.238,238.767 221.200,237.400 221.200 C 236.033 221.200,236.000 221.238,236.000 222.800 M224.724 230.730 C 224.875 232.828,224.312 233.600,222.631 233.600 C 220.937 233.600,220.400 232.971,220.400 230.987 C 220.400 228.893,220.576 228.737,222.785 228.882 L 224.600 229.000 224.724 230.730 M176.800 243.400 L 176.800 257.600 189.400 257.600 L 202.000 257.600 202.000 243.400 L 202.000 229.200 189.400 229.200 L 176.800 229.200 176.800 243.400 M198.966 233.456 C 199.324 234.389,199.216 252.928,198.848 253.522 C 198.618 253.895,196.309 253.989,189.372 253.908 L 180.200 253.800 180.093 243.807 C 180.034 238.311,180.073 233.586,180.180 233.307 C 180.512 232.444,198.633 232.587,198.966 233.456 M231.800 235.200 L 231.800 237.400 230.000 237.400 L 228.200 237.400 228.079 235.077 L 227.959 232.754 229.879 232.877 L 231.800 233.000 231.800 235.200 M184.400 243.400 L 184.400 249.224 189.500 249.112 L 194.600 249.000 194.600 243.400 L 194.600 237.800 189.500 237.688 L 184.400 237.576 184.400 243.400 M206.400 239.188 C 206.400 241.038,207.080 241.565,208.581 240.881 C 210.239 240.126,209.718 237.835,207.853 237.676 L 206.400 237.552 206.400 239.188 M243.200 241.376 L 243.200 245.200 246.600 245.200 L 250.000 245.200 250.000 243.400 L 250.000 241.600 248.449 241.600 C 246.578 241.600,245.948 240.945,246.092 239.149 C 246.195 237.856,246.137 237.795,244.700 237.676 L 243.200 237.552 243.200 241.376 M210.172 242.571 C 209.740 244.291,210.289 245.142,211.920 245.277 C 213.355 245.396,213.406 245.455,213.600 247.200 C 213.794 248.950,213.842 249.003,215.300 249.124 L 216.800 249.248 216.800 245.424 L 216.800 241.600 213.608 241.600 C 210.561 241.600,210.404 241.644,210.172 242.571 M206.900 245.865 C 206.552 246.005,206.400 247.159,206.400 249.657 L 206.400 253.248 207.900 253.124 L 209.400 253.000 209.323 249.638 C 209.236 245.866,208.755 245.116,206.900 245.865 M221.485 245.848 C 220.438 246.895,221.221 249.200,222.623 249.200 L 224.046 249.200 223.923 247.500 C 223.802 245.830,222.432 244.901,221.485 245.848 M236.285 245.848 C 235.238 246.895,236.021 249.200,237.423 249.200 L 238.846 249.200 238.723 247.500 C 238.602 245.830,237.232 244.901,236.285 245.848 M250.817 246.368 C 250.015 247.866,250.698 249.200,252.266 249.200 C 253.642 249.200,253.646 249.195,253.523 247.500 C 253.378 245.497,251.666 244.781,250.817 246.368 M228.400 253.776 L 228.400 257.600 229.792 257.600 C 231.482 257.600,231.695 257.032,231.520 252.992 L 231.400 250.200 229.900 250.076 L 228.400 249.952 228.400 253.776 M243.200 253.800 L 243.200 257.600 248.400 257.600 L 253.600 257.600 253.600 255.823 L 253.600 254.046 251.900 253.923 L 250.200 253.800 250.078 251.900 L 249.956 250.000 246.578 250.000 L 243.200 250.000 243.200 253.800 M221.200 255.800 C 221.200 257.590,221.207 257.600,222.600 257.600 C 223.993 257.600,224.000 257.590,224.000 255.800 C 224.000 254.010,223.993 254.000,222.600 254.000 C 221.207 254.000,221.200 254.010,221.200 255.800 M236.000 255.800 C 236.000 257.590,236.007 257.600,237.400 257.600 C 238.793 257.600,238.800 257.590,238.800 255.800 C 238.800 254.010,238.793 254.000,237.400 254.000 C 236.007 254.000,236.000 254.010,236.000 255.800 " stroke="none" fill="#1a191a" fill-rule="evenodd"></path><path id="path1" d="M0.000 200.000 L 0.000 400.000 200.000 400.000 L 400.000 400.000 400.000 200.000 L 400.000 0.000 200.000 0.000 L 0.000 0.000 0.000 200.000 M202.600 185.600 L 202.600 200.200 189.600 200.200 L 176.600 200.200 176.495 186.002 C 176.437 178.193,176.477 171.576,176.584 171.297 C 176.737 170.898,179.549 170.812,189.690 170.894 L 202.600 171.000 202.600 185.600 M209.920 171.280 C 210.184 171.544,210.400 172.444,210.400 173.280 C 210.400 175.947,213.105 175.590,213.278 172.900 L 213.400 171.000 219.000 171.000 L 224.600 171.000 224.600 173.200 L 224.600 175.400 220.000 175.498 C 213.800 175.631,213.600 175.691,213.600 177.408 C 213.600 178.763,213.642 178.800,215.186 178.800 C 217.391 178.800,217.600 179.405,217.600 185.774 L 217.600 191.200 218.951 191.200 C 220.613 191.200,221.103 191.750,221.270 193.805 C 221.395 195.338,221.462 195.408,223.000 195.600 L 224.600 195.800 224.600 198.000 L 224.600 200.200 222.900 200.323 L 221.200 200.446 221.200 202.209 C 221.200 204.058,220.313 205.048,219.081 204.576 C 218.112 204.204,217.226 205.439,217.561 206.695 C 217.846 207.769,217.949 207.806,221.227 208.000 L 224.600 208.200 224.600 212.400 L 224.600 216.600 218.880 216.711 L 213.159 216.822 213.280 214.511 L 213.400 212.200 215.000 212.000 C 216.518 211.810,216.606 211.723,216.724 210.300 L 216.848 208.800 213.624 208.800 L 210.400 208.800 210.400 212.351 C 210.400 216.287,210.202 216.658,207.998 216.867 L 206.600 217.000 206.485 220.700 L 206.370 224.400 207.785 224.400 C 209.152 224.400,209.200 224.349,209.206 222.900 C 209.217 220.334,209.098 220.370,217.229 220.491 L 224.600 220.600 224.800 222.400 C 224.988 224.090,225.080 224.208,226.300 224.325 L 227.600 224.451 227.606 220.925 C 227.614 216.625,227.815 216.246,230.041 216.333 C 232.065 216.412,232.356 216.774,232.337 219.184 C 232.295 224.572,232.266 224.464,233.700 224.325 C 234.949 224.205,235.005 224.124,235.123 222.280 L 235.245 220.360 237.323 220.480 C 240.555 220.667,240.814 225.200,237.592 225.200 L 236.000 225.200 236.000 229.017 L 236.000 232.834 239.100 232.717 L 242.200 232.600 242.426 230.907 C 242.701 228.843,242.924 228.600,244.535 228.600 C 245.737 228.600,245.806 228.516,245.923 226.900 L 246.046 225.200 244.637 225.200 C 243.096 225.200,242.400 224.409,242.400 222.659 C 242.400 220.831,242.790 220.400,244.443 220.400 L 246.000 220.400 246.000 216.614 C 246.000 212.043,246.137 211.911,250.705 212.083 L 253.800 212.200 253.919 214.475 L 254.038 216.749 252.519 216.875 L 251.000 217.000 251.000 222.800 L 251.000 228.600 252.000 228.643 C 252.550 228.667,253.225 228.712,253.500 228.743 C 253.877 228.786,254.000 230.377,254.000 235.200 L 254.000 241.600 252.400 241.600 L 250.800 241.600 250.800 243.400 L 250.800 245.200 252.400 245.200 L 254.000 245.200 254.000 247.600 L 254.000 250.000 252.400 250.000 C 249.962 250.000,249.868 253.075,252.300 253.276 L 253.800 253.400 253.920 255.711 L 254.041 258.022 248.320 257.911 L 242.600 257.800 242.482 254.400 C 242.298 249.098,242.187 249.252,246.304 249.116 L 249.800 249.000 249.924 247.500 L 250.048 246.000 246.704 246.000 C 242.452 246.000,242.400 245.943,242.400 241.320 L 242.400 237.600 239.222 237.600 L 236.044 237.600 235.922 239.500 L 235.800 241.400 234.100 241.523 C 232.370 241.648,232.263 241.781,232.382 243.647 C 232.472 245.048,231.435 246.000,229.820 246.000 C 228.335 246.000,227.461 245.229,227.836 244.250 C 228.430 242.703,227.683 241.652,225.898 241.523 L 224.200 241.400 224.078 239.500 C 223.958 237.631,223.934 237.600,222.600 237.600 C 221.266 237.600,221.242 237.631,221.122 239.500 L 221.000 241.400 219.300 241.523 L 217.600 241.646 217.594 245.323 C 217.586 249.807,217.438 250.089,215.160 249.926 L 213.400 249.800 213.280 247.941 C 213.184 246.461,212.993 246.039,212.341 245.869 C 210.645 245.425,210.400 245.886,210.394 249.543 C 210.386 253.853,210.249 254.082,207.761 253.924 L 205.800 253.800 205.800 249.600 L 205.800 245.400 207.500 245.277 L 209.200 245.154 209.200 243.400 L 209.200 241.646 207.500 241.523 C 204.511 241.307,204.844 236.800,207.849 236.800 C 209.159 236.800,209.200 236.751,209.200 235.200 C 209.200 233.657,209.153 233.600,207.880 233.600 C 205.861 233.600,205.600 233.067,205.600 228.936 L 205.600 225.231 202.100 225.116 L 198.600 225.000 198.478 223.100 C 198.304 220.385,195.600 220.057,195.600 222.751 C 195.600 224.968,195.043 225.251,190.940 225.116 L 187.400 225.000 187.400 222.800 C 187.400 220.750,187.468 220.592,188.400 220.488 C 190.866 220.212,191.200 220.015,191.200 218.841 C 191.200 217.135,190.433 216.746,187.336 216.881 L 184.600 217.000 184.470 218.595 C 184.303 220.650,183.813 221.200,182.151 221.200 C 180.849 221.200,180.800 221.256,180.800 222.751 C 180.800 224.670,180.104 225.289,178.128 225.126 L 176.600 225.000 176.600 222.805 C 176.600 220.918,176.712 220.594,177.400 220.490 C 179.929 220.107,179.811 220.297,179.670 216.847 C 179.466 211.808,179.159 212.000,187.414 212.000 L 194.400 212.000 194.400 210.400 C 194.400 208.843,194.363 208.800,193.024 208.800 C 191.372 208.800,191.086 208.415,191.086 206.200 C 191.086 203.991,191.373 203.600,192.995 203.600 C 194.786 203.600,195.600 204.492,195.600 206.454 C 195.600 209.079,198.139 208.663,198.328 206.007 C 198.488 203.749,198.723 203.614,202.486 203.606 L 205.571 203.600 205.686 199.700 L 205.800 195.800 207.504 195.573 C 209.602 195.293,210.400 196.005,210.400 198.157 C 210.400 200.620,212.942 200.195,213.123 197.702 C 213.237 196.122,214.280 194.813,214.917 195.451 C 215.040 195.573,215.513 195.554,215.970 195.410 C 216.917 195.109,217.206 192.435,216.300 192.357 C 216.025 192.334,215.530 192.275,215.200 192.226 C 214.870 192.177,214.295 192.106,213.922 192.068 C 213.409 192.017,213.214 191.538,213.122 190.100 C 212.947 187.369,210.400 186.832,210.400 189.526 C 210.400 191.796,207.751 193.266,206.100 191.912 C 205.561 191.470,205.339 171.595,205.867 171.067 C 206.322 170.611,209.414 170.774,209.920 171.280 M253.800 185.600 L 253.800 200.200 241.200 200.306 C 229.568 200.404,228.560 200.358,228.085 199.709 C 227.424 198.807,227.428 172.095,228.090 171.294 C 228.413 170.902,231.345 170.813,241.154 170.894 L 253.800 171.000 253.800 185.600 M180.800 185.592 L 180.800 195.600 189.100 195.594 C 193.665 195.591,197.628 195.443,197.907 195.266 C 198.299 195.017,198.390 192.763,198.307 185.372 L 198.200 175.800 189.500 175.692 L 180.800 175.584 180.800 185.592 M232.376 176.692 C 232.347 178.039,232.350 194.875,232.379 195.308 C 232.391 195.477,236.315 195.567,241.100 195.508 L 249.800 195.400 249.800 185.600 L 249.800 175.800 241.100 175.692 L 232.400 175.584 232.376 176.692 M194.971 179.429 C 195.482 179.940,195.600 181.094,195.600 185.600 C 195.600 192.673,195.835 192.400,189.745 192.400 C 183.236 192.400,183.600 192.814,183.600 185.419 C 183.600 180.871,183.730 179.214,184.100 179.065 C 185.464 178.515,194.355 178.812,194.971 179.429 M246.571 179.429 C 247.519 180.376,247.491 190.615,246.538 191.669 C 245.726 192.565,236.538 192.778,235.680 191.920 C 234.987 191.227,235.006 179.345,235.700 179.065 C 237.064 178.515,245.955 178.812,246.571 179.429 M210.400 181.379 C 210.400 183.250,210.401 183.251,211.700 183.125 C 213.081 182.992,214.057 180.008,212.724 179.995 C 212.436 179.992,211.795 179.881,211.300 179.748 C 210.461 179.523,210.400 179.633,210.400 181.379 M224.600 185.600 L 224.600 187.800 222.600 187.800 L 220.600 187.800 220.475 186.054 C 220.285 183.409,220.502 183.137,222.696 183.278 L 224.600 183.400 224.600 185.600 M217.600 198.025 C 217.600 199.618,217.626 199.648,218.900 199.525 C 221.019 199.321,221.135 196.400,219.024 196.400 C 217.626 196.400,217.600 196.429,217.600 198.025 M187.520 204.080 C 187.784 204.344,188.000 205.298,188.000 206.200 C 188.000 208.523,187.546 208.800,183.734 208.800 C 180.875 208.800,180.372 208.695,180.014 208.026 C 179.402 206.882,179.511 204.946,180.229 204.229 C 181.010 203.447,186.770 203.330,187.520 204.080 M231.773 204.231 C 232.258 204.716,232.387 205.616,232.331 208.131 C 232.238 212.318,231.998 212.800,230.000 212.800 C 227.960 212.800,227.600 212.110,227.600 208.200 C 227.600 203.842,229.540 201.997,231.773 204.231 M253.523 203.944 C 253.876 204.168,254.006 204.979,253.923 206.438 L 253.800 208.600 248.500 208.712 L 243.200 208.823 243.200 212.592 C 243.200 217.112,243.244 217.071,238.731 216.800 L 235.400 216.600 235.400 214.400 L 235.400 212.200 237.100 212.077 C 239.355 211.914,239.861 208.800,237.633 208.800 C 235.486 208.800,235.200 208.493,235.200 206.191 C 235.200 204.866,235.388 203.991,235.700 203.865 C 236.554 203.520,252.970 203.593,253.523 203.944 M206.476 206.300 C 206.677 208.728,209.200 208.844,209.200 206.425 C 209.200 204.829,209.174 204.800,207.776 204.800 C 206.375 204.800,206.354 204.824,206.476 206.300 M199.276 210.300 C 199.477 212.728,202.000 212.844,202.000 210.425 C 202.000 208.829,201.974 208.800,200.576 208.800 C 199.175 208.800,199.154 208.824,199.276 210.300 M199.368 217.339 C 198.783 218.862,199.360 220.200,200.600 220.200 C 202.376 220.200,202.468 217.077,200.698 216.873 C 200.002 216.793,199.512 216.965,199.368 217.339 M210.400 226.800 C 210.400 228.251,210.496 228.400,211.426 228.400 C 213.320 228.400,214.106 229.112,213.830 230.579 C 213.543 232.108,214.251 232.933,215.678 232.731 C 216.555 232.606,216.606 232.419,216.715 228.900 L 216.830 225.200 213.615 225.200 L 210.400 225.200 210.400 226.800 M228.476 226.659 C 228.715 229.476,231.200 229.616,231.200 226.813 C 231.200 225.231,231.173 225.200,229.776 225.200 C 228.381 225.200,228.354 225.230,228.476 226.659 M202.270 228.972 C 202.712 229.141,202.791 231.776,202.705 243.489 L 202.600 257.800 189.500 257.905 L 176.400 258.011 176.400 243.439 C 176.400 234.082,176.543 228.819,176.800 228.733 C 177.446 228.518,201.679 228.745,202.270 228.972 M221.200 231.000 C 221.200 232.790,221.207 232.800,222.600 232.800 C 223.993 232.800,224.000 232.790,224.000 231.000 C 224.000 229.210,223.993 229.200,222.600 229.200 C 221.207 229.200,221.200 229.210,221.200 231.000 M180.800 243.408 L 180.800 253.216 189.500 253.108 L 198.200 253.000 198.307 243.300 L 198.414 233.600 189.607 233.600 L 180.800 233.600 180.800 243.408 M228.476 235.100 C 228.677 237.528,231.200 237.644,231.200 235.225 C 231.200 233.629,231.174 233.600,229.776 233.600 C 228.375 233.600,228.354 233.624,228.476 235.100 M243.200 235.184 C 243.200 236.794,243.206 236.800,244.751 236.800 C 246.624 236.800,247.301 237.505,247.129 239.276 C 247.005 240.547,247.056 240.600,248.400 240.600 L 249.800 240.600 249.800 237.200 L 249.800 233.800 246.500 233.684 L 243.200 233.568 243.200 235.184 M195.120 237.280 C 195.673 237.833,195.800 248.665,195.263 249.512 C 195.019 249.896,193.556 249.996,189.369 249.912 L 183.800 249.800 183.689 243.818 C 183.628 240.527,183.667 237.602,183.776 237.318 C 184.048 236.610,194.416 236.576,195.120 237.280 M210.400 239.217 L 210.400 240.834 213.500 240.717 L 216.600 240.600 216.724 239.100 L 216.848 237.600 213.624 237.600 L 210.400 237.600 210.400 239.217 M224.600 247.600 L 224.600 249.800 222.600 249.800 L 220.600 249.800 220.475 248.054 C 220.285 245.409,220.502 245.137,222.696 245.278 L 224.600 245.400 224.600 247.600 M239.529 246.755 C 239.792 249.504,239.400 250.057,237.287 249.921 L 235.400 249.800 235.275 248.054 C 235.085 245.409,235.302 245.137,237.496 245.278 C 239.340 245.396,239.404 245.443,239.529 246.755 M231.924 249.708 C 232.264 250.118,232.340 254.737,232.052 257.500 C 231.996 258.043,228.017 258.238,227.979 257.700 C 227.761 254.644,227.846 250.083,228.129 249.700 C 228.610 249.048,231.380 249.054,231.924 249.708 M224.320 253.680 C 224.584 253.944,224.800 255.033,224.800 256.101 L 224.800 258.042 222.700 257.921 L 220.600 257.800 220.476 256.070 C 220.292 253.524,222.680 252.040,224.320 253.680 M239.175 253.770 C 239.436 254.084,239.593 255.119,239.524 256.070 L 239.400 257.800 237.300 257.921 L 235.200 258.042 235.200 255.854 C 235.200 254.478,235.386 253.592,235.700 253.465 C 236.736 253.047,238.720 253.221,239.175 253.770 " stroke="none" fill="#fbfbfb" fill-rule="evenodd"></path><path id="path2" d="M176.584 171.297 C 176.477 171.577,176.439 177.745,176.500 185.003 L 176.611 198.200 176.706 184.694 L 176.800 171.189 189.500 171.294 L 202.200 171.400 202.200 185.600 L 202.200 199.800 189.627 199.906 C 179.850 199.988,176.975 199.899,176.697 199.506 C 176.428 199.126,176.380 199.150,176.503 199.600 C 176.644 200.118,178.447 200.200,189.633 200.200 L 202.600 200.200 202.600 185.600 L 202.600 171.000 189.690 170.894 C 179.536 170.811,176.737 170.898,176.584 171.297 M205.867 171.067 C 205.339 171.595,205.561 191.470,206.100 191.912 C 207.759 193.273,210.400 191.796,210.400 189.507 C 210.400 187.920,210.407 187.913,211.800 188.076 C 212.570 188.166,213.200 188.096,213.200 187.920 C 213.200 187.360,210.518 187.576,210.020 188.176 C 209.757 188.492,209.600 189.347,209.671 190.076 C 209.800 191.398,209.797 191.400,208.000 191.400 L 206.200 191.400 206.200 181.400 L 206.200 171.400 207.759 171.272 C 209.542 171.126,210.108 171.676,209.782 173.236 C 209.497 174.593,210.372 175.301,212.074 175.091 L 213.400 174.928 211.900 174.864 C 210.441 174.802,210.400 174.758,210.400 173.280 C 210.400 171.163,207.289 169.644,205.867 171.067 M213.390 171.216 C 213.242 171.456,213.228 171.761,213.360 171.893 C 213.492 172.025,213.600 171.923,213.600 171.667 C 213.600 171.334,215.158 171.200,219.022 171.200 L 224.444 171.200 224.322 173.100 L 224.200 175.000 218.900 175.112 C 215.985 175.173,213.600 175.353,213.599 175.512 C 213.599 175.813,223.413 175.700,224.321 175.388 C 224.682 175.264,224.805 174.564,224.721 173.104 L 224.600 171.000 219.130 170.889 C 215.488 170.815,213.571 170.924,213.390 171.216 M228.080 171.280 C 227.816 171.544,227.621 172.219,227.647 172.780 C 227.691 173.727,227.713 173.714,227.951 172.600 L 228.208 171.400 241.066 171.400 C 248.138 171.400,253.840 171.265,253.738 171.100 C 253.407 170.564,228.622 170.738,228.080 171.280 M227.778 187.000 C 227.778 193.820,227.832 196.666,227.899 193.325 C 227.966 189.984,227.966 184.404,227.899 180.925 C 227.833 177.446,227.778 180.180,227.778 187.000 M180.580 175.708 C 180.473 175.987,180.434 180.622,180.493 186.008 L 180.600 195.800 189.149 195.908 C 198.147 196.022,198.844 195.902,198.754 194.251 C 198.709 193.442,198.697 193.439,198.507 194.200 C 198.177 195.521,197.726 195.588,189.100 195.594 L 180.800 195.600 180.800 185.592 L 180.800 175.584 189.500 175.692 L 198.200 175.800 198.412 184.400 L 198.624 193.000 198.712 184.733 C 198.760 180.186,198.691 176.181,198.557 175.833 C 198.232 174.984,180.904 174.864,180.580 175.708 M232.060 176.500 C 232.117 177.731,232.129 177.741,232.288 176.685 L 232.456 175.571 241.228 175.685 C 246.053 175.748,250.001 175.665,250.000 175.500 C 250.000 175.335,245.950 175.200,241.000 175.200 L 232.000 175.200 232.060 176.500 M184.100 179.065 C 183.730 179.214,183.600 180.871,183.600 185.419 C 183.600 192.814,183.236 192.400,189.745 192.400 C 195.835 192.400,195.600 192.673,195.600 185.600 C 195.600 178.485,195.876 178.790,189.471 178.832 C 186.792 178.849,184.375 178.954,184.100 179.065 M213.462 179.071 C 213.313 179.221,212.518 179.356,211.695 179.371 C 210.088 179.402,209.271 181.199,210.091 182.900 C 210.434 183.613,212.568 183.899,212.948 183.284 C 213.056 183.110,212.527 183.039,211.772 183.127 L 210.400 183.288 210.400 181.484 L 210.400 179.680 211.900 179.632 C 216.085 179.500,217.119 179.393,216.944 179.110 C 216.709 178.729,213.836 178.697,213.462 179.071 M235.700 179.065 C 235.006 179.345,234.987 191.227,235.680 191.920 C 236.538 192.778,245.726 192.565,246.538 191.669 C 247.491 190.615,247.519 180.376,246.571 179.429 C 245.955 178.812,237.064 178.515,235.700 179.065 M194.763 179.755 C 195.074 180.130,195.187 182.107,195.112 185.855 L 195.000 191.400 189.500 191.511 L 184.000 191.623 184.000 185.678 C 184.000 182.408,184.120 179.613,184.267 179.467 C 184.822 178.911,194.278 179.171,194.763 179.755 M246.363 179.755 C 246.674 180.130,246.787 182.107,246.712 185.855 L 246.600 191.400 241.100 191.511 L 235.600 191.623 235.600 185.678 C 235.600 182.408,235.720 179.613,235.867 179.467 C 236.422 178.911,245.878 179.171,246.363 179.755 M232.153 184.200 C 232.153 186.840,232.218 187.868,232.297 186.484 C 232.375 185.101,232.374 182.941,232.295 181.684 C 232.216 180.428,232.152 181.560,232.153 184.200 M217.288 185.739 L 217.200 191.677 215.200 191.539 C 213.402 191.414,212.204 191.903,213.900 192.068 C 214.285 192.106,214.870 192.177,215.200 192.226 C 215.530 192.275,216.025 192.334,216.300 192.357 C 217.182 192.432,216.921 195.108,216.004 195.399 C 215.566 195.538,215.052 195.556,214.863 195.439 C 214.673 195.321,214.218 195.445,213.851 195.713 C 213.301 196.115,213.536 196.176,215.192 196.061 L 217.200 195.923 217.200 197.961 L 217.200 200.000 219.000 200.000 L 220.800 200.000 220.800 201.977 L 220.800 203.954 219.103 204.077 C 217.801 204.171,217.373 204.379,217.260 204.972 C 217.121 205.704,217.149 205.708,217.808 205.049 C 218.191 204.667,218.763 204.454,219.081 204.576 C 220.313 205.048,221.200 204.058,221.200 202.209 L 221.200 200.446 222.900 200.323 L 224.600 200.200 224.600 198.000 L 224.600 195.800 223.000 195.600 C 221.462 195.408,221.395 195.338,221.270 193.805 C 221.103 191.753,220.613 191.200,218.962 191.200 L 217.622 191.200 217.499 185.500 L 217.376 179.800 217.288 185.739 M220.571 183.732 C 220.449 184.049,220.406 185.094,220.475 186.054 L 220.600 187.800 222.600 187.800 L 224.600 187.800 224.600 185.600 L 224.600 183.400 222.696 183.278 C 221.322 183.190,220.730 183.316,220.571 183.732 M224.400 185.600 L 224.400 187.600 222.600 187.600 L 220.800 187.600 220.800 185.600 L 220.800 183.600 222.600 183.600 L 224.400 183.600 224.400 185.600 M232.109 192.800 C 232.109 193.790,232.187 194.195,232.282 193.700 C 232.378 193.205,232.378 192.395,232.282 191.900 C 232.187 191.405,232.109 191.810,232.109 192.800 M220.721 193.900 L 220.842 196.000 219.021 196.000 L 217.200 196.000 217.200 193.777 L 217.200 191.554 218.900 191.677 L 220.600 191.800 220.721 193.900 M232.103 195.200 C 232.280 195.852,250.000 196.355,250.000 195.708 C 250.001 195.538,246.101 195.452,241.334 195.516 C 234.610 195.605,232.585 195.515,232.303 195.116 C 232.024 194.720,231.977 194.740,232.103 195.200 M207.400 195.584 L 205.800 195.800 205.686 199.700 L 205.571 203.600 202.618 203.600 C 198.937 203.600,198.389 203.802,198.440 205.143 L 198.480 206.200 198.757 205.200 C 199.022 204.244,199.186 204.195,202.503 204.085 L 205.971 203.969 206.086 200.085 L 206.200 196.200 207.900 196.077 C 209.299 195.976,209.612 196.082,209.668 196.677 C 209.706 197.075,209.771 197.760,209.812 198.200 C 209.853 198.640,209.912 199.225,209.943 199.500 C 210.005 200.049,213.200 200.225,213.200 199.680 C 213.200 199.504,212.570 199.434,211.800 199.524 C 210.408 199.687,210.400 199.678,210.400 198.106 C 210.400 196.026,209.531 195.295,207.400 195.584 M224.400 198.000 L 224.400 200.000 222.600 200.000 L 220.800 200.000 220.800 198.000 L 220.800 196.000 222.600 196.000 L 224.400 196.000 224.400 198.000 M220.324 197.900 C 220.123 200.328,217.600 200.444,217.600 198.025 C 217.600 196.429,217.626 196.400,219.024 196.400 C 220.425 196.400,220.446 196.424,220.324 197.900 M228.262 200.100 C 228.364 200.265,234.096 200.400,241.000 200.400 C 247.904 200.400,253.636 200.265,253.738 200.100 C 253.840 199.935,248.108 199.800,241.000 199.800 C 233.892 199.800,228.160 199.935,228.262 200.100 M180.229 204.229 C 179.511 204.946,179.402 206.882,180.014 208.026 C 180.372 208.695,180.875 208.800,183.734 208.800 C 187.546 208.800,188.000 208.523,188.000 206.200 C 188.000 205.298,187.784 204.344,187.520 204.080 C 186.770 203.330,181.010 203.447,180.229 204.229 M191.192 204.500 C 190.798 205.312,190.811 205.332,191.322 204.700 C 192.795 202.879,195.200 204.107,195.200 206.680 L 195.200 208.400 193.544 208.400 C 192.449 208.400,191.696 208.163,191.322 207.700 C 190.811 207.068,190.798 207.088,191.192 207.900 C 191.520 208.576,191.973 208.800,193.014 208.800 C 194.364 208.800,194.400 208.841,194.400 210.400 L 194.400 212.000 187.414 212.000 C 179.162 212.000,179.465 211.811,179.670 216.830 C 179.796 219.897,179.767 220.015,178.800 220.388 C 177.820 220.767,177.824 220.773,179.000 220.687 L 180.200 220.600 180.314 216.500 L 180.428 212.400 187.614 212.400 L 194.800 212.400 194.800 211.033 C 194.800 208.759,195.103 208.400,197.021 208.400 L 198.756 208.400 198.878 210.300 L 199.000 212.200 200.600 212.200 L 202.200 212.200 202.200 210.400 C 202.200 208.632,202.175 208.598,200.800 208.485 C 200.030 208.421,199.130 208.261,198.800 208.129 C 198.470 207.997,197.615 207.928,196.900 207.975 C 195.635 208.059,195.600 208.018,195.600 206.459 C 195.600 203.743,192.275 202.265,191.192 204.500 M228.014 204.374 C 227.786 204.799,227.636 206.644,227.679 208.474 L 227.759 211.800 227.881 208.800 C 228.063 204.298,228.180 204.000,229.759 204.000 C 231.405 204.000,231.893 204.542,232.103 206.605 L 232.266 208.200 232.333 206.529 C 232.440 203.855,229.166 202.222,228.014 204.374 M235.700 203.865 C 235.388 203.991,235.200 204.866,235.200 206.191 C 235.200 208.493,235.486 208.800,237.633 208.800 C 239.861 208.800,239.355 211.914,237.100 212.077 L 235.400 212.200 235.400 214.367 C 235.400 215.802,235.572 216.568,235.910 216.637 C 236.190 216.694,236.236 216.649,236.010 216.537 C 235.784 216.425,235.600 215.459,235.600 214.390 L 235.600 212.446 237.300 212.323 L 239.000 212.200 239.000 210.400 L 239.000 208.600 237.400 208.400 L 235.800 208.200 235.800 206.200 L 235.800 204.200 244.600 203.988 L 253.400 203.776 244.800 203.720 C 240.070 203.689,235.975 203.754,235.700 203.865 M187.400 206.200 L 187.400 208.200 184.262 208.318 C 180.672 208.452,180.071 208.147,180.298 206.308 C 180.592 203.923,180.532 203.958,184.094 204.084 L 187.400 204.200 187.400 206.200 M206.286 204.248 C 205.937 204.596,205.909 206.897,206.243 207.767 C 206.407 208.196,206.994 208.400,208.064 208.400 L 209.642 208.400 209.521 206.300 C 209.402 204.234,207.503 203.030,206.286 204.248 M209.200 206.425 C 209.200 208.018,209.174 208.048,207.900 207.925 C 205.781 207.721,205.665 204.800,207.776 204.800 C 209.174 204.800,209.200 204.829,209.200 206.425 M217.240 207.100 L 217.200 208.400 213.600 208.400 L 210.000 208.400 210.000 211.767 C 210.000 215.994,209.846 216.400,208.237 216.400 C 206.263 216.400,206.000 216.949,206.000 221.080 L 206.000 224.800 202.433 224.800 C 200.396 224.800,198.779 224.624,198.663 224.390 C 198.552 224.165,198.506 224.210,198.562 224.490 C 198.634 224.845,199.717 225.035,202.132 225.116 L 205.600 225.231 205.600 228.936 C 205.600 233.067,205.861 233.600,207.880 233.600 C 209.153 233.600,209.200 233.657,209.200 235.200 C 209.200 236.751,209.159 236.800,207.849 236.800 C 204.844 236.800,204.511 241.307,207.500 241.523 L 209.200 241.646 209.200 243.400 L 209.200 245.154 207.500 245.277 L 205.800 245.400 205.800 249.595 C 205.800 253.475,205.860 253.800,206.600 253.930 C 207.356 254.064,207.361 254.042,206.683 253.529 C 206.070 253.065,205.983 252.464,206.083 249.393 L 206.200 245.800 207.920 245.676 L 209.640 245.552 209.520 243.476 L 209.400 241.400 207.800 241.200 L 206.200 241.000 206.200 239.200 L 206.200 237.400 207.900 237.277 L 209.600 237.154 209.600 235.200 L 209.600 233.246 207.900 233.123 L 206.200 233.000 206.086 228.900 L 205.972 224.800 207.786 224.800 L 209.600 224.800 209.600 223.080 C 209.600 222.134,209.816 221.144,210.080 220.880 C 210.401 220.559,210.415 220.400,210.123 220.400 C 209.539 220.400,209.200 221.367,209.200 223.033 C 209.200 224.331,209.129 224.400,207.785 224.400 L 206.370 224.400 206.485 220.700 L 206.600 217.000 207.998 216.867 C 210.202 216.658,210.400 216.287,210.400 212.351 L 210.400 208.800 213.624 208.800 L 216.848 208.800 216.724 210.300 C 216.609 211.695,216.502 211.809,215.200 211.929 C 214.430 211.999,213.666 212.187,213.502 212.347 C 213.338 212.506,214.058 212.538,215.102 212.418 L 217.000 212.200 217.122 210.300 L 217.244 208.400 220.822 208.400 L 224.400 208.400 224.400 212.388 L 224.400 216.375 219.500 216.508 L 214.600 216.640 219.600 216.620 L 224.600 216.600 224.600 212.400 L 224.600 208.200 221.216 208.000 C 218.023 207.811,217.817 207.744,217.556 206.800 C 217.301 205.878,217.277 205.902,217.240 207.100 M248.400 208.382 L 243.000 208.600 242.884 212.368 C 242.793 215.343,242.624 216.252,242.084 216.690 C 241.476 217.183,241.500 217.196,242.300 216.808 C 243.139 216.401,243.200 216.116,243.200 212.586 L 243.200 208.800 248.376 208.800 C 251.396 208.800,253.656 208.633,253.800 208.400 C 253.936 208.180,253.992 208.037,253.924 208.082 C 253.856 208.127,251.370 208.262,248.400 208.382 M202.000 210.425 C 202.000 212.018,201.974 212.048,200.700 211.925 C 198.581 211.721,198.465 208.800,200.576 208.800 C 201.974 208.800,202.000 208.829,202.000 210.425 M228.262 212.500 C 228.364 212.665,229.146 212.800,230.000 212.800 C 230.854 212.800,231.636 212.665,231.738 212.500 C 231.840 212.335,231.058 212.200,230.000 212.200 C 228.942 212.200,228.160 212.335,228.262 212.500 M248.000 212.248 C 250.316 212.545,253.912 212.577,253.739 212.300 C 253.637 212.135,252.078 212.027,250.276 212.060 C 248.474 212.093,247.450 212.178,248.000 212.248 M246.267 212.667 C 246.120 212.813,246.000 214.613,246.000 216.667 L 246.000 220.400 244.443 220.400 C 242.720 220.400,242.364 220.855,242.457 222.933 C 242.508 224.087,242.535 224.057,242.757 222.600 C 242.982 221.118,243.103 220.991,244.400 220.871 C 245.170 220.801,245.958 220.589,246.150 220.401 C 246.404 220.154,246.807 212.402,246.567 212.400 C 246.548 212.400,246.413 212.520,246.267 212.667 M184.528 216.713 C 184.268 216.878,183.998 217.820,183.928 218.807 L 183.800 220.600 182.121 220.722 L 180.442 220.844 180.321 222.722 L 180.200 224.600 178.527 224.722 C 176.906 224.840,176.848 224.802,176.675 223.522 L 176.496 222.200 176.548 223.600 C 176.655 226.476,180.800 225.649,180.800 222.751 C 180.800 221.256,180.849 221.200,182.151 221.200 C 183.813 221.200,184.303 220.650,184.470 218.595 L 184.600 217.000 187.000 216.767 L 189.400 216.534 187.200 216.473 C 185.990 216.440,184.787 216.547,184.528 216.713 M199.300 216.665 C 198.995 216.788,198.800 217.634,198.800 218.833 L 198.800 220.800 197.000 220.800 L 195.200 220.800 195.194 222.300 C 195.184 224.700,194.936 224.849,191.166 224.717 L 187.800 224.600 187.674 222.840 C 187.594 221.714,187.738 220.946,188.074 220.709 C 188.486 220.419,188.470 220.375,188.000 220.503 C 187.561 220.623,187.400 221.247,187.400 222.833 L 187.400 225.000 190.940 225.116 C 195.043 225.251,195.600 224.968,195.600 222.751 C 195.600 220.849,198.167 220.277,198.518 222.100 C 198.666 222.872,198.699 222.843,198.746 221.900 C 198.793 220.946,198.972 220.795,200.100 220.760 C 201.300 220.723,201.323 220.699,200.400 220.442 C 199.551 220.206,199.400 219.927,199.400 218.600 C 199.400 217.273,199.551 216.994,200.400 216.758 C 201.171 216.543,201.217 216.478,200.600 216.471 C 200.160 216.467,199.575 216.554,199.300 216.665 M227.843 217.033 C 227.709 217.381,227.600 219.192,227.600 221.058 L 227.600 224.451 226.300 224.325 C 225.080 224.208,224.988 224.089,224.800 222.404 C 224.665 221.190,224.405 220.593,224.000 220.565 C 223.653 220.541,223.611 220.594,223.900 220.691 C 224.175 220.783,224.400 221.461,224.400 222.197 C 224.400 224.388,224.723 224.800,226.443 224.800 L 228.000 224.800 228.000 221.080 C 228.000 218.720,228.175 217.185,228.480 216.880 C 228.801 216.559,228.815 216.400,228.523 216.400 C 228.282 216.400,227.976 216.685,227.843 217.033 M231.733 217.371 C 231.985 217.905,232.255 218.278,232.332 218.201 C 232.581 217.953,231.958 216.400,231.611 216.400 C 231.426 216.400,231.481 216.837,231.733 217.371 M237.907 216.690 C 238.626 216.779,239.706 216.777,240.307 216.686 C 240.908 216.595,240.320 216.522,239.000 216.524 C 237.680 216.526,237.188 216.601,237.907 216.690 M250.900 216.665 C 250.344 216.889,250.148 228.800,250.700 228.800 C 250.865 228.801,251.000 226.146,251.000 222.900 L 251.000 217.000 252.600 216.757 L 254.200 216.514 252.800 216.488 C 252.030 216.474,251.175 216.554,250.900 216.665 M201.800 218.600 C 201.800 219.590,201.935 220.400,202.100 220.400 C 202.265 220.400,202.400 219.590,202.400 218.600 C 202.400 217.610,202.265 216.800,202.100 216.800 C 201.935 216.800,201.800 217.610,201.800 218.600 M219.300 220.676 C 219.685 220.776,220.315 220.776,220.700 220.676 C 221.085 220.575,220.770 220.493,220.000 220.493 C 219.230 220.493,218.915 220.575,219.300 220.676 M235.123 222.280 C 234.940 225.139,232.544 225.515,232.294 222.724 L 232.140 221.000 232.070 222.878 L 232.000 224.756 230.100 224.878 C 228.452 224.984,228.182 225.125,228.067 225.941 C 227.881 227.256,228.324 228.800,228.888 228.800 C 229.247 228.800,229.245 228.685,228.880 228.320 C 227.699 227.139,228.296 225.200,229.840 225.200 L 231.281 225.200 231.137 227.000 C 230.995 228.796,231.297 229.366,231.757 228.167 C 231.891 227.819,232.000 226.919,232.000 226.167 C 232.000 224.813,232.018 224.800,233.800 224.800 L 235.600 224.800 235.684 228.900 L 235.767 233.000 235.898 229.100 L 236.029 225.200 237.607 225.200 C 240.816 225.200,240.543 220.666,237.323 220.480 L 235.245 220.360 235.123 222.280 M239.122 222.700 L 239.000 224.600 237.300 224.723 L 235.600 224.846 235.600 222.823 L 235.600 220.800 237.422 220.800 L 239.244 220.800 239.122 222.700 M243.047 224.876 C 243.157 225.054,243.885 225.200,244.664 225.200 L 246.081 225.200 245.937 227.000 C 245.859 227.990,245.940 228.800,246.119 228.800 C 246.298 228.800,246.389 227.945,246.322 226.900 L 246.200 225.000 244.524 224.776 C 243.601 224.653,242.937 224.698,243.047 224.876 M210.000 226.800 L 210.000 228.800 211.500 228.736 C 212.977 228.673,212.980 228.669,211.700 228.511 C 210.483 228.360,210.400 228.249,210.400 226.791 L 210.400 225.234 213.500 225.097 L 216.600 224.961 213.300 224.880 L 210.000 224.800 210.000 226.800 M216.797 228.882 C 216.689 231.017,216.742 232.620,216.916 232.445 C 217.091 232.270,217.179 230.523,217.114 228.564 L 216.994 225.000 216.797 228.882 M176.851 228.760 C 176.549 228.951,176.369 229.271,176.451 229.470 C 176.533 229.670,176.915 229.511,177.300 229.117 C 178.034 228.365,177.786 228.167,176.851 228.760 M242.938 228.900 C 242.767 229.175,242.532 230.120,242.414 231.000 L 242.200 232.600 239.200 232.828 L 236.200 233.056 239.500 233.128 L 242.800 233.200 242.800 235.184 L 242.800 237.169 239.300 237.284 L 235.800 237.400 235.600 239.200 C 235.406 240.950,235.357 241.006,233.831 241.200 C 232.904 241.318,232.196 241.645,232.101 242.000 C 231.990 242.412,232.044 242.453,232.275 242.130 C 232.459 241.871,233.328 241.601,234.205 241.530 L 235.800 241.400 235.922 239.500 L 236.044 237.600 239.222 237.600 L 242.400 237.600 242.400 241.320 C 242.400 245.980,242.438 246.020,246.780 245.924 L 250.200 245.849 246.600 245.624 L 243.000 245.400 242.886 241.300 L 242.772 237.200 244.153 237.200 C 246.170 237.200,246.793 237.556,246.854 238.743 C 246.905 239.716,246.923 239.727,247.085 238.878 C 247.342 237.532,246.520 236.800,244.751 236.800 C 243.204 236.800,243.200 236.796,243.200 235.171 L 243.200 233.541 246.601 233.671 C 248.471 233.742,250.001 233.665,250.001 233.500 C 250.000 233.335,248.380 233.200,246.400 233.200 L 242.800 233.200 242.800 231.429 C 242.800 230.352,243.046 229.411,243.429 229.029 C 243.774 228.683,243.875 228.400,243.652 228.400 C 243.429 228.400,243.108 228.625,242.938 228.900 M202.310 243.090 C 202.397 254.285,202.311 257.418,201.910 257.701 C 201.524 257.974,201.546 258.021,202.000 257.897 C 202.657 257.718,203.147 229.788,202.505 229.145 C 202.337 228.977,202.250 235.252,202.310 243.090 M213.228 229.076 C 213.318 230.115,213.944 230.996,213.972 230.124 C 213.987 229.642,213.820 229.136,213.600 229.000 C 213.380 228.864,213.213 228.898,213.228 229.076 M220.959 231.000 L 221.000 233.000 222.600 233.000 L 224.200 233.000 224.237 231.097 L 224.274 229.195 224.115 230.997 C 223.862 233.872,221.329 233.790,221.081 230.900 L 220.918 229.000 220.959 231.000 M176.486 244.100 C 176.439 251.745,176.535 258.000,176.700 258.000 C 176.973 258.001,176.966 247.090,176.685 235.000 C 176.623 232.360,176.534 236.455,176.486 244.100 M213.600 232.312 C 213.600 232.834,215.491 233.442,215.885 233.048 C 216.022 232.912,215.779 232.800,215.347 232.800 C 214.914 232.800,214.344 232.584,214.080 232.320 C 213.715 231.955,213.600 231.953,213.600 232.312 M180.400 243.400 L 180.400 253.600 189.357 253.600 C 198.888 253.600,198.876 253.602,198.760 251.667 C 198.738 251.291,198.599 251.437,198.442 252.000 L 198.164 253.000 189.482 253.108 L 180.800 253.216 180.800 243.415 L 180.800 233.615 189.700 233.500 L 198.600 233.384 189.500 233.292 L 180.400 233.200 180.400 243.400 M229.700 233.491 C 231.157 233.644,231.200 233.694,231.200 235.249 C 231.200 237.550,228.760 237.508,228.353 235.200 C 228.146 234.033,228.097 233.977,228.053 234.867 C 227.965 236.636,228.379 237.200,229.763 237.200 C 231.260 237.200,232.000 236.589,232.000 235.353 C 232.000 233.583,231.603 233.196,229.857 233.267 L 228.200 233.334 229.700 233.491 M198.570 242.400 C 198.570 247.130,198.628 249.065,198.698 246.700 C 198.769 244.335,198.769 240.465,198.698 238.100 C 198.628 235.735,198.570 237.670,198.570 242.400 M183.776 237.318 C 183.667 237.602,183.628 240.527,183.689 243.818 L 183.800 249.800 189.369 249.912 C 193.556 249.996,195.019 249.896,195.263 249.512 C 195.800 248.665,195.673 237.833,195.120 237.280 C 194.416 236.576,184.048 236.610,183.776 237.318 M194.711 237.537 C 195.097 237.781,195.195 239.283,195.111 243.631 L 195.000 249.400 189.600 249.400 L 184.200 249.400 184.088 243.819 C 184.027 240.750,184.066 238.005,184.176 237.719 C 184.403 237.127,193.809 236.964,194.711 237.537 M209.925 237.885 C 209.849 238.278,209.854 239.185,209.937 239.900 L 210.088 241.200 213.658 241.200 L 217.228 241.200 217.114 245.300 L 217.000 249.400 215.441 249.528 C 214.475 249.607,213.740 249.454,213.510 249.128 C 213.218 248.713,213.174 248.728,213.301 249.200 C 213.515 249.996,216.785 250.265,217.254 249.526 C 217.438 249.237,217.591 247.347,217.594 245.327 L 217.600 241.653 218.700 241.487 C 219.741 241.329,219.732 241.317,218.522 241.260 C 217.291 241.202,217.239 241.130,217.122 239.300 L 217.000 237.400 213.532 237.285 C 210.467 237.183,210.048 237.253,209.925 237.885 M221.086 237.448 C 220.929 237.605,220.800 238.498,220.800 239.433 C 220.800 240.368,220.616 241.225,220.390 241.337 C 220.165 241.449,220.210 241.494,220.490 241.439 C 220.794 241.378,221.049 240.582,221.122 239.469 C 221.242 237.635,221.269 237.600,222.600 237.600 C 223.931 237.600,223.958 237.635,224.078 239.469 C 224.159 240.715,224.400 241.391,224.800 241.499 C 225.215 241.611,225.254 241.557,224.928 241.324 C 224.668 241.139,224.398 240.180,224.328 239.193 C 224.202 237.428,222.189 236.344,221.086 237.448 M216.724 239.100 L 216.600 240.600 213.500 240.717 L 210.400 240.834 210.400 239.217 L 210.400 237.600 213.624 237.600 L 216.848 237.600 216.724 239.100 M246.634 240.543 C 246.897 241.229,250.000 241.529,250.000 240.869 C 250.000 240.687,249.458 240.618,248.796 240.715 C 248.134 240.812,247.320 240.666,246.987 240.389 C 246.482 239.970,246.424 239.996,246.634 240.543 M250.345 242.300 C 249.976 245.096,250.288 245.606,252.327 245.530 L 254.200 245.460 252.500 245.307 L 250.800 245.154 250.800 243.400 L 250.800 241.646 252.500 241.493 L 254.200 241.340 252.345 241.270 C 250.604 241.204,250.482 241.267,250.345 242.300 M232.000 243.720 C 232.000 245.556,228.943 246.465,228.032 244.900 C 227.808 244.515,227.619 244.389,227.612 244.620 C 227.573 245.979,230.614 246.528,231.771 245.371 C 232.343 244.800,232.677 242.800,232.200 242.800 C 232.090 242.800,232.000 243.214,232.000 243.720 M220.571 245.732 C 220.449 246.049,220.406 247.094,220.475 248.054 L 220.600 249.800 222.600 249.800 L 224.600 249.800 224.600 247.600 L 224.600 245.400 222.696 245.278 C 221.322 245.190,220.730 245.316,220.571 245.732 M235.371 245.732 C 235.249 246.049,235.206 247.094,235.275 248.054 L 235.400 249.800 237.287 249.921 C 239.400 250.057,239.792 249.504,239.529 246.755 C 239.384 245.233,235.892 244.374,235.371 245.732 M209.910 246.700 C 209.806 247.305,209.778 248.700,209.847 249.800 C 210.013 252.428,209.754 253.501,208.900 253.724 C 208.348 253.868,208.381 253.917,209.057 253.954 C 210.201 254.016,210.400 253.341,210.400 249.401 C 210.400 247.108,210.556 246.004,210.900 245.865 C 211.219 245.736,211.164 245.652,210.750 245.632 C 210.342 245.612,210.029 246.010,209.910 246.700 M224.322 247.500 L 224.200 249.400 222.600 249.400 L 221.000 249.400 220.878 247.500 L 220.756 245.600 222.600 245.600 L 224.444 245.600 224.322 247.500 M239.122 247.500 L 239.000 249.400 237.400 249.400 L 235.800 249.400 235.678 247.500 L 235.556 245.600 237.400 245.600 L 239.244 245.600 239.122 247.500 M246.304 249.098 C 242.190 249.255,242.298 249.106,242.482 254.368 C 242.573 256.952,242.740 257.773,243.200 257.898 C 243.660 258.023,243.680 257.976,243.284 257.697 C 242.910 257.433,242.800 256.297,242.884 253.567 L 243.000 249.800 246.500 249.684 C 248.425 249.621,250.000 249.396,250.000 249.184 C 250.000 248.973,249.955 248.837,249.900 248.882 C 249.845 248.927,248.227 249.024,246.304 249.098 M228.080 249.680 C 227.816 249.944,227.618 250.529,227.640 250.980 C 227.673 251.667,227.725 251.638,227.958 250.800 C 228.456 249.009,231.717 249.328,232.047 251.200 C 232.293 252.589,232.295 252.591,232.347 251.380 C 232.416 249.795,231.775 249.200,230.000 249.200 C 229.208 249.200,228.344 249.416,228.080 249.680 M252.100 249.493 L 250.400 249.646 250.400 251.583 L 250.400 253.519 252.162 253.660 C 253.131 253.737,253.840 253.665,253.738 253.500 C 253.636 253.335,252.933 253.200,252.176 253.200 C 250.837 253.200,250.800 253.157,250.800 251.600 L 250.800 250.000 252.400 250.000 C 253.280 250.000,254.000 249.820,254.000 249.600 C 254.000 249.380,253.955 249.231,253.900 249.270 C 253.845 249.308,253.035 249.409,252.100 249.493 M220.825 253.770 C 220.159 254.573,220.442 257.695,221.200 257.899 C 221.670 258.026,221.686 257.981,221.274 257.691 C 220.938 257.454,220.794 256.686,220.874 255.560 L 221.000 253.800 222.600 253.800 L 224.200 253.800 224.200 255.901 C 224.200 257.056,224.335 258.001,224.500 258.001 C 224.996 258.000,224.838 254.198,224.320 253.680 C 223.658 253.018,221.400 253.076,220.825 253.770 M235.700 253.465 C 234.848 253.809,235.034 258.001,235.900 257.994 C 236.428 257.989,236.471 257.906,236.074 257.654 C 235.734 257.439,235.593 256.698,235.674 255.560 L 235.800 253.800 237.400 253.800 L 239.000 253.800 239.000 255.863 C 239.000 256.997,239.135 257.842,239.300 257.739 C 239.786 257.437,239.643 254.203,239.120 253.680 C 238.643 253.203,236.658 253.078,235.700 253.465 " stroke="none" fill="#9e9d9e" fill-rule="evenodd"></path><path id="path3" d="M213.127 175.700 C 213.057 177.735,213.102 180.210,213.226 181.200 C 213.353 182.207,213.485 180.577,213.527 177.500 C 213.610 171.312,213.323 170.018,213.127 175.700 M228.173 184.400 C 228.173 189.790,228.230 191.995,228.299 189.300 C 228.368 186.605,228.368 182.195,228.299 179.500 C 228.230 176.805,228.173 179.010,228.173 184.400 M231.773 185.600 C 231.773 190.990,231.830 193.195,231.899 190.500 C 231.968 187.805,231.968 183.395,231.899 180.700 C 231.830 178.005,231.773 180.210,231.773 185.600 M250.173 185.600 C 250.173 190.990,250.230 193.195,250.299 190.500 C 250.368 187.805,250.368 183.395,250.299 180.700 C 250.230 178.005,250.173 180.210,250.173 185.600 M184.260 179.500 C 184.158 179.665,185.632 179.752,187.537 179.693 C 193.928 179.495,194.638 179.345,189.524 179.272 C 186.732 179.232,184.363 179.335,184.260 179.500 M214.500 179.476 C 214.885 179.576,215.515 179.576,215.900 179.476 C 216.285 179.375,215.970 179.293,215.200 179.293 C 214.430 179.293,214.115 179.375,214.500 179.476 M239.116 179.497 C 240.499 179.575,242.659 179.574,243.916 179.495 C 245.172 179.416,244.040 179.352,241.400 179.353 C 238.760 179.353,237.732 179.418,239.116 179.497 M194.959 185.600 C 194.959 188.790,195.021 190.095,195.097 188.500 C 195.173 186.905,195.173 184.295,195.097 182.700 C 195.021 181.105,194.959 182.410,194.959 185.600 M246.559 185.600 C 246.559 188.790,246.621 190.095,246.697 188.500 C 246.773 186.905,246.773 184.295,246.697 182.700 C 246.621 181.105,246.559 182.410,246.559 185.600 M213.301 189.800 C 213.305 190.680,213.387 190.993,213.483 190.495 C 213.579 189.998,213.575 189.278,213.475 188.895 C 213.375 188.513,213.296 188.920,213.301 189.800 M213.309 198.000 C 213.309 198.990,213.387 199.395,213.482 198.900 C 213.578 198.405,213.578 197.595,213.482 197.100 C 213.387 196.605,213.309 197.010,213.309 198.000 M191.301 206.200 C 191.305 207.080,191.387 207.393,191.483 206.895 C 191.579 206.398,191.575 205.678,191.475 205.295 C 191.375 204.913,191.296 205.320,191.301 206.200 M194.737 206.600 C 194.659 207.590,194.731 208.400,194.897 208.400 C 195.064 208.400,195.200 207.590,195.200 206.600 C 195.200 205.610,195.128 204.800,195.040 204.800 C 194.952 204.800,194.816 205.610,194.737 206.600 M209.600 210.200 C 209.600 213.243,209.689 215.644,209.798 215.535 C 210.078 215.255,210.108 205.175,209.829 204.896 C 209.703 204.770,209.600 207.157,209.600 210.200 M231.731 208.200 C 231.733 209.740,231.805 210.321,231.892 209.491 C 231.979 208.661,231.977 207.401,231.889 206.691 C 231.800 205.981,231.729 206.660,231.731 208.200 M198.446 208.827 C 198.431 210.415,198.509 211.625,198.618 211.515 C 198.886 211.248,198.941 206.408,198.680 206.147 C 198.566 206.033,198.461 207.239,198.446 208.827 M194.901 210.600 C 194.905 211.480,194.987 211.793,195.083 211.295 C 195.179 210.798,195.175 210.078,195.075 209.695 C 194.975 209.313,194.896 209.720,194.901 210.600 M213.359 212.962 C 213.241 213.271,213.207 214.126,213.283 214.862 C 213.406 216.035,213.447 215.966,213.615 214.300 C 213.811 212.352,213.739 211.974,213.359 212.962 M246.568 212.940 C 246.454 213.237,246.417 214.722,246.485 216.240 L 246.610 219.000 246.805 215.699 C 247.000 212.403,246.958 211.922,246.568 212.940 M229.300 216.676 C 229.685 216.776,230.315 216.776,230.700 216.676 C 231.085 216.575,230.770 216.493,230.000 216.493 C 229.230 216.493,228.915 216.575,229.300 216.676 M191.301 218.600 C 191.305 219.480,191.387 219.793,191.483 219.295 C 191.579 218.798,191.575 218.078,191.475 217.695 C 191.375 217.313,191.296 217.720,191.301 218.600 M198.337 219.000 C 198.259 219.990,198.331 220.800,198.497 220.800 C 198.664 220.800,198.800 219.990,198.800 219.000 C 198.800 218.010,198.728 217.200,198.640 217.200 C 198.552 217.200,198.416 218.010,198.337 219.000 M250.159 222.800 C 250.159 225.990,250.221 227.295,250.297 225.700 C 250.373 224.105,250.373 221.495,250.297 219.900 C 250.221 218.305,250.159 219.610,250.159 222.800 M231.731 220.600 C 231.733 222.140,231.805 222.721,231.892 221.891 C 231.979 221.061,231.977 219.801,231.889 219.091 C 231.800 218.381,231.729 219.060,231.731 220.600 M215.507 220.690 C 216.226 220.779,217.306 220.777,217.907 220.686 C 218.508 220.595,217.920 220.522,216.600 220.524 C 215.280 220.526,214.788 220.601,215.507 220.690 M209.744 224.800 C 209.744 226.890,209.812 227.745,209.894 226.700 C 209.976 225.655,209.976 223.945,209.894 222.900 C 209.812 221.855,209.744 222.710,209.744 224.800 M246.390 226.719 L 246.583 228.600 246.719 227.047 C 246.793 226.193,246.707 225.347,246.526 225.166 C 246.345 224.985,246.284 225.684,246.390 226.719 M183.300 229.099 C 186.765 229.166,192.435 229.166,195.900 229.099 C 199.365 229.033,196.530 228.978,189.600 228.978 C 182.670 228.978,179.835 229.033,183.300 229.099 M229.300 229.076 C 229.685 229.176,230.315 229.176,230.700 229.076 C 231.085 228.975,230.770 228.893,230.000 228.893 C 229.230 228.893,228.915 228.975,229.300 229.076 M243.905 229.083 C 244.402 229.179,245.122 229.175,245.505 229.075 C 245.887 228.975,245.480 228.896,244.600 228.901 C 243.720 228.905,243.407 228.987,243.905 229.083 M251.200 228.956 C 251.200 229.042,251.817 229.185,252.572 229.273 C 253.327 229.361,253.856 229.290,253.748 229.116 C 253.555 228.803,251.200 228.655,251.200 228.956 M206.360 232.920 C 206.546 233.106,207.306 233.196,208.049 233.119 C 209.367 232.983,209.358 232.975,207.710 232.780 C 206.781 232.671,206.173 232.733,206.360 232.920 M242.799 232.900 C 242.800 233.065,244.375 233.173,246.300 233.140 C 249.960 233.077,249.550 232.902,245.299 232.712 C 243.924 232.650,242.799 232.735,242.799 232.900 M184.120 233.098 C 186.055 233.172,189.115 233.171,190.920 233.097 C 192.724 233.023,191.140 232.963,187.400 232.964 C 183.660 232.964,182.184 233.025,184.120 233.098 M195.905 233.083 C 196.402 233.179,197.122 233.175,197.505 233.075 C 197.887 232.975,197.480 232.896,196.600 232.901 C 195.720 232.905,195.407 232.987,195.905 233.083 M209.539 235.638 C 209.462 236.760,209.532 237.885,209.694 238.138 C 209.856 238.392,209.991 237.475,209.994 236.100 C 210.001 233.085,209.731 232.811,209.539 235.638 M250.000 237.376 L 250.000 241.152 248.500 241.309 L 247.000 241.466 248.472 241.533 C 249.654 241.587,249.979 241.777,250.118 242.500 C 250.213 242.995,250.316 241.195,250.346 238.500 C 250.375 235.805,250.310 233.600,250.200 233.600 C 250.090 233.600,250.000 235.299,250.000 237.376 M194.799 243.481 C 194.689 246.826,194.740 249.422,194.911 249.250 C 195.083 249.078,195.172 246.341,195.110 243.169 L 194.997 237.400 194.799 243.481 M246.493 238.800 C 246.493 239.570,246.575 239.885,246.676 239.500 C 246.776 239.115,246.776 238.485,246.676 238.100 C 246.575 237.715,246.493 238.030,246.493 238.800 M209.588 240.000 C 209.485 240.770,209.503 242.750,209.628 244.400 C 209.863 247.490,210.122 246.874,210.006 243.500 C 209.960 242.160,210.097 241.598,210.470 241.594 C 210.851 241.589,210.869 241.505,210.536 241.293 C 210.281 241.130,210.006 240.458,209.924 239.799 L 209.776 238.600 209.588 240.000 M250.072 244.282 C 250.007 245.081,249.748 245.177,247.300 245.303 L 244.600 245.443 247.286 245.522 L 249.971 245.600 250.086 249.500 C 250.171 252.417,250.250 252.896,250.400 251.400 C 250.510 250.300,250.497 248.050,250.372 246.400 C 250.247 244.750,250.112 243.797,250.072 244.282 M213.301 247.400 C 213.305 248.280,213.387 248.593,213.483 248.095 C 213.579 247.598,213.575 246.878,213.475 246.495 C 213.375 246.113,213.296 246.520,213.301 247.400 M231.740 254.000 C 231.740 255.870,231.809 256.635,231.893 255.700 C 231.977 254.765,231.977 253.235,231.893 252.300 C 231.809 251.365,231.740 252.130,231.740 254.000 M184.878 253.898 C 187.231 253.969,191.191 253.969,193.678 253.899 C 196.165 253.829,194.240 253.771,189.400 253.770 C 184.560 253.770,182.525 253.828,184.878 253.898 M221.905 253.883 C 222.402 253.979,223.122 253.975,223.505 253.875 C 223.887 253.775,223.480 253.696,222.600 253.701 C 221.720 253.705,221.407 253.787,221.905 253.883 M236.705 253.883 C 237.202 253.979,237.922 253.975,238.305 253.875 C 238.687 253.775,238.280 253.696,237.400 253.701 C 236.520 253.705,236.207 253.787,236.705 253.883 M250.800 253.758 C 250.800 253.845,251.505 253.983,252.366 254.065 C 253.228 254.148,253.847 254.076,253.743 253.907 C 253.553 253.600,250.800 253.460,250.800 253.758 M183.325 257.899 C 186.804 257.966,192.384 257.966,195.725 257.899 C 199.066 257.832,196.220 257.778,189.400 257.778 C 182.580 257.778,179.846 257.833,183.325 257.899 M222.100 257.876 C 222.485 257.976,223.115 257.976,223.500 257.876 C 223.885 257.775,223.570 257.693,222.800 257.693 C 222.030 257.693,221.715 257.775,222.100 257.876 M229.300 257.876 C 229.685 257.976,230.315 257.976,230.700 257.876 C 231.085 257.775,230.770 257.693,230.000 257.693 C 229.230 257.693,228.915 257.775,229.300 257.876 M236.900 257.876 C 237.285 257.976,237.915 257.976,238.300 257.876 C 238.685 257.775,238.370 257.693,237.600 257.693 C 236.830 257.693,236.515 257.775,236.900 257.876 M245.900 257.896 C 247.275 257.974,249.525 257.974,250.900 257.896 C 252.275 257.818,251.150 257.754,248.400 257.754 C 245.650 257.754,244.525 257.818,245.900 257.896 " stroke="none" fill="#7d7c7c" fill-rule="evenodd"></path><path id="path4" d="M201.910 185.414 L 202.020 199.589 189.410 199.703 L 176.800 199.817 189.500 199.809 L 202.200 199.800 202.305 185.825 C 202.363 178.139,202.273 171.713,202.105 171.545 C 201.937 171.377,201.849 177.618,201.910 185.414 M224.067 172.888 L 224.000 174.777 218.700 174.901 L 213.400 175.025 218.713 175.113 C 224.613 175.210,224.572 175.229,224.294 172.542 C 224.142 171.068,224.132 171.083,224.067 172.888 M253.510 185.414 L 253.620 199.589 241.010 199.703 L 228.400 199.817 241.100 199.809 L 253.800 199.800 253.905 185.825 C 253.963 178.139,253.873 171.713,253.705 171.545 C 253.537 171.377,253.449 177.618,253.510 185.414 M206.189 181.567 C 206.198 189.903,206.288 191.358,206.800 191.497 C 207.236 191.616,207.266 191.566,206.907 191.311 C 206.547 191.055,206.383 188.398,206.296 181.381 L 206.177 171.800 206.189 181.567 M228.093 173.600 C 228.093 174.370,228.175 174.685,228.276 174.300 C 228.376 173.915,228.376 173.285,228.276 172.900 C 228.175 172.515,228.093 172.830,228.093 173.600 M180.267 175.067 C 180.120 175.213,180.003 175.528,180.006 175.767 C 180.010 176.014,180.153 175.978,180.339 175.685 C 180.593 175.284,182.668 175.196,189.695 175.285 C 194.661 175.348,198.641 175.265,198.539 175.100 C 198.309 174.729,180.636 174.697,180.267 175.067 M209.836 175.258 C 210.055 175.612,213.200 175.886,213.200 175.551 C 213.200 175.402,212.407 175.217,211.438 175.140 C 210.469 175.063,209.748 175.116,209.836 175.258 M231.596 175.693 C 231.199 176.510,231.212 176.531,231.722 175.900 C 232.386 175.079,249.738 174.806,250.137 175.610 C 250.249 175.836,250.294 175.791,250.237 175.510 C 250.158 175.119,248.030 174.975,241.085 174.893 L 232.036 174.785 231.596 175.693 M198.892 185.267 C 198.842 190.474,198.696 195.064,198.570 195.467 C 198.361 196.133,198.380 196.138,198.777 195.522 C 199.071 195.067,199.177 191.723,199.100 185.322 L 198.985 175.800 198.892 185.267 M180.173 186.200 C 180.173 191.700,180.230 194.005,180.299 191.323 C 180.368 188.641,180.368 184.141,180.299 181.323 C 180.230 178.505,180.174 180.700,180.173 186.200 M209.829 179.429 C 209.453 179.804,209.226 180.650,209.264 181.529 L 209.328 183.000 209.497 181.602 C 209.698 179.937,210.155 179.307,211.329 179.078 L 212.200 178.909 211.329 178.854 C 210.849 178.825,210.174 179.083,209.829 179.429 M236.080 179.680 C 235.544 180.216,235.377 191.014,235.900 191.339 C 236.065 191.442,236.145 189.007,236.079 185.930 C 235.995 182.065,236.103 180.158,236.427 179.767 C 237.000 179.077,236.746 179.014,236.080 179.680 M184.267 179.867 C 183.898 180.236,183.929 191.109,184.300 191.338 C 184.465 191.440,184.600 188.841,184.600 185.562 C 184.600 182.283,184.585 179.600,184.567 179.600 C 184.548 179.600,184.413 179.720,184.267 179.867 M216.722 185.282 C 216.815 189.580,216.719 191.013,216.322 191.293 C 215.916 191.579,215.934 191.624,216.400 191.498 C 217.060 191.318,217.536 180.577,216.912 179.950 C 216.740 179.778,216.655 182.177,216.722 185.282 M250.490 188.067 C 250.440 191.734,250.296 195.064,250.170 195.467 C 249.960 196.136,249.978 196.141,250.380 195.518 C 250.668 195.071,250.778 192.523,250.699 188.118 L 250.579 181.400 250.490 188.067 M220.959 184.162 C 220.252 186.005,220.959 187.400,222.600 187.400 L 224.200 187.400 224.200 185.633 C 224.200 184.522,224.011 183.828,223.690 183.763 C 223.410 183.707,223.365 183.751,223.590 183.863 C 224.853 184.490,224.016 187.200,222.560 187.200 L 221.119 187.200 221.263 185.400 C 221.411 183.535,221.329 183.199,220.959 184.162 M246.093 187.200 C 246.093 187.970,246.175 188.285,246.276 187.900 C 246.376 187.515,246.376 186.885,246.276 186.500 C 246.175 186.115,246.093 186.430,246.093 187.200 M211.597 187.482 C 212.365 187.583,213.143 187.875,213.327 188.133 C 213.555 188.451,213.610 188.409,213.500 188.000 C 213.394 187.608,212.793 187.382,211.769 187.349 C 210.266 187.300,210.259 187.306,211.597 187.482 M217.461 191.900 C 217.359 192.065,217.933 192.200,218.738 192.200 C 220.177 192.200,220.200 192.225,220.200 193.800 C 220.200 195.375,220.177 195.400,218.738 195.400 C 217.933 195.400,217.359 195.535,217.461 195.700 C 217.824 196.285,220.308 196.018,220.557 195.367 C 221.492 192.932,218.735 189.844,217.461 191.900 M183.900 196.298 C 185.715 196.372,188.685 196.372,190.500 196.298 C 192.315 196.223,190.830 196.163,187.200 196.163 C 183.570 196.163,182.085 196.223,183.900 196.298 M206.169 196.535 C 206.056 196.830,206.026 198.495,206.102 200.235 L 206.239 203.400 206.320 199.933 C 206.374 197.599,206.563 196.401,206.900 196.265 C 207.292 196.107,207.289 196.056,206.887 196.032 C 206.606 196.014,206.282 196.241,206.169 196.535 M220.800 198.023 L 220.800 200.046 222.500 199.923 L 224.200 199.800 224.200 198.033 C 224.200 196.922,224.011 196.228,223.690 196.163 C 223.410 196.107,223.365 196.151,223.590 196.263 C 224.828 196.877,224.020 199.600,222.600 199.600 C 220.816 199.600,220.366 196.616,222.100 196.282 C 222.872 196.134,222.843 196.101,221.900 196.054 C 220.838 196.002,220.800 196.070,220.800 198.023 M228.101 197.400 C 228.105 198.280,228.187 198.593,228.283 198.095 C 228.379 197.598,228.375 196.878,228.275 196.495 C 228.175 196.113,228.096 196.520,228.101 197.400 M239.300 196.291 C 240.125 196.378,241.475 196.378,242.300 196.291 C 243.125 196.205,242.450 196.134,240.800 196.134 C 239.150 196.134,238.475 196.205,239.300 196.291 M247.100 196.282 C 247.595 196.378,248.405 196.378,248.900 196.282 C 249.395 196.187,248.990 196.109,248.000 196.109 C 247.010 196.109,246.605 196.187,247.100 196.282 M209.232 197.876 C 209.214 198.798,209.342 199.641,209.516 199.748 C 209.690 199.856,209.767 199.282,209.687 198.472 C 209.469 196.258,209.267 195.995,209.232 197.876 M216.961 198.497 L 217.000 200.200 218.738 200.325 L 220.477 200.450 220.337 202.206 C 220.260 203.172,220.345 203.815,220.526 203.634 C 221.648 202.512,220.605 200.200,218.922 200.078 C 217.286 199.959,217.240 199.916,217.083 198.375 L 216.922 196.794 216.961 198.497 M211.800 200.000 L 210.200 200.286 211.676 200.343 C 212.488 200.374,213.264 200.220,213.400 200.000 C 213.536 199.780,213.592 199.626,213.524 199.657 C 213.456 199.688,212.680 199.842,211.800 200.000 M180.661 204.300 C 180.558 204.465,181.943 204.600,183.737 204.600 L 187.000 204.600 187.124 206.330 L 187.249 208.060 183.843 207.930 C 181.969 207.859,180.580 207.943,180.756 208.118 C 180.932 208.293,182.499 208.383,184.238 208.318 L 187.400 208.200 187.526 206.440 C 187.607 205.302,187.466 204.561,187.126 204.346 C 186.471 203.930,180.915 203.891,180.661 204.300 M191.862 204.300 C 191.760 204.465,192.362 204.600,193.200 204.600 C 194.038 204.600,194.640 204.465,194.538 204.300 C 194.436 204.135,193.834 204.000,193.200 204.000 C 192.566 204.000,191.964 204.135,191.862 204.300 M199.300 204.257 C 199.025 204.372,198.811 204.857,198.825 205.333 C 198.850 206.189,198.855 206.188,199.219 205.282 C 199.562 204.427,199.784 204.373,202.494 204.482 L 205.400 204.600 205.527 206.200 C 205.596 207.080,205.781 207.931,205.937 208.090 C 206.093 208.250,206.126 207.440,206.010 206.290 L 205.800 204.200 202.800 204.124 C 201.150 204.082,199.575 204.142,199.300 204.257 M217.003 204.500 C 216.908 204.775,216.779 205.630,216.715 206.400 L 216.600 207.800 213.337 207.800 C 211.543 207.800,210.158 207.935,210.261 208.100 C 210.585 208.622,216.265 208.446,216.706 207.900 C 216.928 207.625,217.180 206.635,217.266 205.700 C 217.421 203.998,217.326 203.562,217.003 204.500 M229.200 204.155 C 229.200 204.240,229.730 204.387,230.379 204.482 C 231.027 204.577,231.467 204.508,231.355 204.328 C 231.157 204.007,229.200 203.850,229.200 204.155 M236.100 204.265 C 235.787 204.391,235.622 205.165,235.660 206.333 L 235.720 208.200 235.960 206.400 L 236.200 204.600 244.600 204.388 L 253.000 204.175 244.800 204.119 C 240.290 204.088,236.375 204.154,236.100 204.265 M253.400 206.137 L 253.400 207.800 248.407 207.913 C 245.661 207.975,243.284 208.155,243.125 208.313 C 242.660 208.776,252.925 208.394,253.488 207.927 C 254.036 207.472,254.199 204.971,253.700 204.661 C 253.535 204.559,253.400 205.223,253.400 206.137 M228.093 206.400 C 228.093 207.170,228.175 207.485,228.276 207.100 C 228.376 206.715,228.376 206.085,228.276 205.700 C 228.175 205.315,228.093 205.630,228.093 206.400 M193.200 208.000 L 191.800 208.295 193.076 208.347 C 193.778 208.376,194.464 208.220,194.600 208.000 C 194.736 207.780,194.792 207.624,194.724 207.653 C 194.656 207.682,193.970 207.838,193.200 208.000 M199.166 208.126 C 199.347 208.307,200.193 208.393,201.047 208.319 L 202.600 208.183 200.719 207.990 C 199.684 207.884,198.985 207.945,199.166 208.126 M237.105 208.283 C 237.602 208.379,238.322 208.375,238.705 208.275 C 239.087 208.175,238.680 208.096,237.800 208.101 C 236.920 208.105,236.607 208.187,237.105 208.283 M195.900 208.682 C 196.395 208.778,197.205 208.778,197.700 208.682 C 198.195 208.587,197.790 208.509,196.800 208.509 C 195.810 208.509,195.405 208.587,195.900 208.682 M207.799 208.696 C 208.458 208.793,209.130 209.081,209.293 209.336 C 209.484 209.637,209.590 209.554,209.594 209.100 C 209.599 208.546,209.287 208.413,208.100 208.460 C 206.740 208.514,206.712 208.536,207.799 208.696 M220.486 208.689 L 223.971 208.831 224.109 212.616 L 224.246 216.402 224.223 212.501 L 224.200 208.600 220.600 208.574 L 217.000 208.547 220.486 208.689 M202.509 210.400 C 202.509 211.390,202.587 211.795,202.682 211.300 C 202.778 210.805,202.778 209.995,202.682 209.500 C 202.587 209.005,202.509 209.410,202.509 210.400 M239.309 210.400 C 239.309 211.390,239.387 211.795,239.482 211.300 C 239.578 210.805,239.578 209.995,239.482 209.500 C 239.387 209.005,239.309 209.410,239.309 210.400 M231.472 211.357 C 231.344 211.690,230.579 212.018,229.722 212.107 L 228.200 212.266 229.857 212.333 C 231.347 212.393,232.509 211.576,231.859 210.925 C 231.771 210.837,231.597 211.032,231.472 211.357 M209.328 214.000 C 209.328 215.430,209.401 216.015,209.489 215.300 C 209.578 214.585,209.578 213.415,209.489 212.700 C 209.401 211.985,209.328 212.570,209.328 214.000 M187.800 212.386 L 180.600 212.600 180.484 216.364 C 180.420 218.434,180.510 220.271,180.684 220.446 C 180.858 220.621,180.943 218.972,180.873 216.782 L 180.747 212.800 187.750 212.800 C 191.987 212.800,194.850 212.642,195.000 212.400 C 195.136 212.180,195.192 212.039,195.124 212.086 C 195.056 212.133,191.760 212.268,187.800 212.386 M215.400 212.400 L 213.800 212.686 215.276 212.743 C 216.088 212.774,216.864 212.620,217.000 212.400 C 217.136 212.180,217.192 212.026,217.124 212.057 C 217.056 212.088,216.280 212.242,215.400 212.400 M199.905 212.683 C 200.402 212.779,201.122 212.775,201.505 212.675 C 201.887 212.575,201.480 212.496,200.600 212.501 C 199.720 212.505,199.407 212.587,199.905 212.683 M235.867 212.667 C 235.497 213.036,235.530 216.400,235.903 216.400 C 236.069 216.400,236.142 215.602,236.065 214.626 L 235.924 212.853 237.462 212.694 L 239.000 212.534 237.567 212.467 C 236.778 212.430,236.013 212.520,235.867 212.667 M250.539 212.693 L 253.678 212.834 253.538 214.598 C 253.460 215.569,253.545 216.215,253.726 216.034 C 253.907 215.853,253.997 215.007,253.927 214.153 L 253.800 212.600 250.600 212.576 L 247.400 212.552 250.539 212.693 M202.200 218.600 C 202.200 219.768,202.335 220.640,202.500 220.538 C 202.665 220.436,202.800 219.564,202.800 218.600 C 202.800 217.636,202.665 216.764,202.500 216.662 C 202.335 216.560,202.200 217.432,202.200 218.600 M205.867 216.667 C 205.720 216.813,205.600 218.627,205.600 220.696 L 205.600 224.459 202.218 224.329 C 200.358 224.258,198.980 224.343,199.156 224.518 C 199.332 224.693,200.899 224.783,202.638 224.718 L 205.800 224.600 206.000 220.499 C 206.110 218.244,206.185 216.399,206.167 216.399 C 206.148 216.400,206.013 216.520,205.867 216.667 M183.646 219.113 C 183.619 219.658,183.238 220.171,182.700 220.388 C 182.091 220.632,182.010 220.757,182.451 220.775 C 183.332 220.809,184.108 219.801,183.879 218.919 C 183.735 218.362,183.682 218.406,183.646 219.113 M245.600 220.661 C 245.049 220.952,244.869 221.188,245.200 221.188 C 245.890 221.188,247.070 220.520,246.788 220.289 C 246.685 220.204,246.150 220.371,245.600 220.661 M179.122 221.090 C 180.940 221.420,180.191 224.141,178.200 224.443 L 176.600 224.686 178.051 224.743 C 179.823 224.813,180.497 224.096,180.327 222.326 C 180.222 221.225,180.030 220.993,179.200 220.961 C 178.284 220.926,178.278 220.937,179.122 221.090 M187.759 221.362 C 187.641 221.671,187.601 222.526,187.672 223.262 L 187.800 224.600 191.038 224.715 C 193.760 224.812,194.366 224.716,194.838 224.115 C 195.343 223.472,195.333 223.452,194.737 223.918 C 194.295 224.264,193.096 224.397,191.137 224.318 L 188.200 224.200 188.070 222.842 C 187.992 222.025,188.152 221.350,188.470 221.148 C 188.887 220.884,188.891 220.811,188.487 220.806 C 188.206 220.803,187.878 221.053,187.759 221.362 M198.854 221.900 C 198.899 222.806,198.939 222.846,199.079 222.124 C 199.193 221.541,199.608 221.194,200.325 221.084 C 201.295 220.936,201.274 220.914,200.100 220.860 C 198.922 220.806,198.805 220.903,198.854 221.900 M212.300 221.082 C 212.795 221.178,213.605 221.178,214.100 221.082 C 214.595 220.987,214.190 220.909,213.200 220.909 C 212.210 220.909,211.805 220.987,212.300 221.082 M218.100 221.091 C 218.925 221.178,220.275 221.178,221.100 221.091 C 221.925 221.005,221.250 220.934,219.600 220.934 C 217.950 220.934,217.275 221.005,218.100 221.091 M223.590 221.063 C 223.816 221.175,224.000 221.936,224.000 222.753 C 224.000 224.627,224.585 225.215,226.380 225.143 L 227.800 225.086 226.200 224.843 C 224.651 224.608,224.594 224.543,224.400 222.831 C 224.289 221.852,223.972 221.017,223.690 220.961 C 223.410 220.905,223.365 220.952,223.590 221.063 M235.886 221.048 C 235.729 221.205,235.600 222.124,235.600 223.090 L 235.600 224.846 237.300 224.723 L 239.000 224.600 239.000 222.800 C 239.000 221.030,237.019 219.915,235.886 221.048 M242.958 221.366 C 242.838 221.678,242.817 222.443,242.910 223.066 C 243.056 224.041,243.089 223.995,243.140 222.733 C 243.173 221.927,243.425 221.176,243.700 221.065 C 244.092 220.907,244.089 220.856,243.687 220.832 C 243.406 220.814,243.077 221.055,242.958 221.366 M238.800 222.800 C 238.800 224.362,238.767 224.400,237.400 224.400 C 236.033 224.400,236.000 224.362,236.000 222.800 C 236.000 221.238,236.033 221.200,237.400 221.200 C 238.767 221.200,238.800 221.238,238.800 222.800 M231.472 223.757 C 231.344 224.090,230.579 224.418,229.722 224.507 L 228.200 224.666 229.857 224.733 C 231.347 224.793,232.509 223.976,231.859 223.325 C 231.771 223.237,231.597 223.432,231.472 223.757 M209.999 224.500 C 210.000 224.665,211.485 224.773,213.300 224.740 C 216.707 224.678,216.313 224.510,212.299 224.313 C 211.034 224.251,209.999 224.335,209.999 224.500 M243.905 224.683 C 244.402 224.779,245.122 224.775,245.505 224.675 C 245.887 224.575,245.480 224.496,244.600 224.501 C 243.720 224.505,243.407 224.587,243.905 224.683 M206.170 225.333 C 206.058 225.627,206.027 227.382,206.101 229.233 L 206.237 232.600 206.319 228.858 L 206.400 225.116 208.000 225.269 C 208.880 225.352,209.600 225.281,209.600 225.111 C 209.600 224.558,206.388 224.766,206.170 225.333 M233.597 225.084 L 235.200 225.246 235.200 228.999 C 235.200 231.064,235.335 232.837,235.500 232.940 C 235.665 233.042,235.710 231.298,235.600 229.063 L 235.400 225.000 233.697 224.961 L 231.994 224.922 233.597 225.084 M220.667 229.067 C 219.361 230.372,220.738 233.600,222.600 233.600 C 224.445 233.600,225.964 229.970,224.500 229.061 C 224.335 228.958,224.200 229.803,224.200 230.937 L 224.200 233.000 222.600 233.000 L 221.000 233.000 221.000 230.899 C 221.000 229.744,220.985 228.799,220.967 228.799 C 220.948 228.800,220.813 228.920,220.667 229.067 M202.180 243.200 C 202.180 251.010,202.234 254.205,202.299 250.300 C 202.365 246.395,202.365 240.005,202.299 236.100 C 202.234 232.195,202.180 235.390,202.180 243.200 M242.958 229.766 C 242.838 230.078,242.805 230.843,242.884 231.466 C 243.002 232.391,243.064 232.287,243.225 230.900 C 243.427 229.151,243.338 228.775,242.958 229.766 M253.687 235.067 C 253.624 239.158,253.461 240.789,253.100 240.935 C 252.708 241.093,252.711 241.144,253.113 241.168 C 253.937 241.219,254.031 240.458,253.900 234.780 L 253.775 229.400 253.687 235.067 M180.180 233.308 C 180.073 233.588,180.034 238.043,180.093 243.208 L 180.201 252.600 180.401 242.700 C 180.596 233.013,180.578 232.270,180.180 233.308 M198.320 233.280 C 198.658 233.618,198.827 236.317,198.891 242.380 L 198.982 251.000 199.105 242.800 C 199.231 234.304,199.112 232.800,198.312 232.800 C 197.953 232.800,197.955 232.915,198.320 233.280 M237.100 233.482 C 237.595 233.578,238.405 233.578,238.900 233.482 C 239.395 233.387,238.990 233.309,238.000 233.309 C 237.010 233.309,236.605 233.387,237.100 233.482 M240.800 233.353 C 240.800 233.438,241.250 233.593,241.800 233.698 C 242.350 233.803,242.800 233.734,242.800 233.545 C 242.800 233.355,242.350 233.200,241.800 233.200 C 241.250 233.200,240.800 233.269,240.800 233.353 M242.400 236.400 C 242.400 236.632,241.093 236.800,239.280 236.800 C 235.723 236.800,235.175 237.124,235.257 239.180 L 235.314 240.600 235.557 239.000 L 235.800 237.400 239.300 237.284 C 242.050 237.194,242.800 237.044,242.800 236.584 C 242.800 236.263,242.710 236.000,242.600 236.000 C 242.490 236.000,242.400 236.180,242.400 236.400 M209.999 236.872 C 210.000 237.021,211.612 237.201,213.582 237.272 C 215.552 237.342,217.037 237.278,216.882 237.129 C 216.506 236.768,209.998 236.524,209.999 236.872 M220.894 237.300 C 220.440 237.862,220.023 241.341,220.464 240.890 C 220.619 240.730,220.804 239.880,220.873 239.000 C 220.998 237.421,221.021 237.400,222.600 237.400 C 224.179 237.400,224.202 237.421,224.327 239.000 C 224.396 239.880,224.581 240.730,224.736 240.890 C 225.177 241.341,224.760 237.862,224.306 237.300 C 224.084 237.025,223.316 236.800,222.600 236.800 C 221.884 236.800,221.116 237.025,220.894 237.300 M228.262 237.300 C 228.364 237.465,229.146 237.600,230.000 237.600 C 230.854 237.600,231.636 237.465,231.738 237.300 C 231.840 237.135,231.058 237.000,230.000 237.000 C 228.942 237.000,228.160 237.135,228.262 237.300 M186.200 237.463 C 190.001 237.755,194.711 237.776,194.540 237.500 C 194.437 237.335,192.158 237.231,189.476 237.270 C 186.794 237.308,185.320 237.395,186.200 237.463 M206.158 237.766 C 206.038 238.078,206.017 238.843,206.110 239.466 C 206.249 240.393,206.291 240.319,206.340 239.058 L 206.400 237.516 207.966 237.665 C 208.828 237.748,209.447 237.676,209.343 237.507 C 209.003 236.957,206.386 237.170,206.158 237.766 M243.200 237.358 C 243.200 237.445,243.905 237.583,244.766 237.665 C 245.628 237.748,246.247 237.676,246.143 237.507 C 245.953 237.200,243.200 237.060,243.200 237.358 M184.183 243.400 L 184.200 249.400 189.167 249.513 C 191.899 249.575,194.276 249.485,194.449 249.313 C 194.621 249.141,192.436 249.055,189.592 249.122 L 184.422 249.244 184.294 243.322 L 184.166 237.400 184.183 243.400 M242.942 241.400 C 242.941 243.380,243.008 244.240,243.092 243.312 C 243.176 242.384,243.177 240.764,243.095 239.712 C 243.012 238.660,242.943 239.420,242.942 241.400 M246.046 239.851 C 246.021 240.319,246.315 240.949,246.700 241.251 C 247.309 241.728,247.340 241.722,246.943 241.200 C 246.692 240.870,246.398 240.240,246.289 239.800 C 246.103 239.040,246.090 239.043,246.046 239.851 M250.454 240.100 C 250.407 241.058,250.542 241.193,251.500 241.146 C 252.406 241.101,252.445 241.061,251.725 240.921 C 251.219 240.823,250.777 240.381,250.679 239.875 C 250.539 239.155,250.499 239.194,250.454 240.100 M216.944 245.200 C 216.944 247.290,217.012 248.145,217.094 247.100 C 217.176 246.055,217.176 244.345,217.094 243.300 C 217.012 242.255,216.944 243.110,216.944 245.200 M220.959 246.162 C 220.252 248.005,220.959 249.400,222.600 249.400 C 224.207 249.400,225.238 247.078,224.126 245.966 C 223.945 245.785,223.861 246.439,223.939 247.419 L 224.081 249.200 222.600 249.200 L 221.119 249.200 221.263 247.400 C 221.411 245.535,221.329 245.199,220.959 246.162 M235.759 246.162 C 235.052 248.005,235.759 249.400,237.400 249.400 C 239.007 249.400,240.038 247.078,238.926 245.966 C 238.745 245.785,238.661 246.439,238.739 247.419 L 238.881 249.200 237.400 249.200 L 235.919 249.200 236.063 247.400 C 236.211 245.535,236.129 245.199,235.759 246.162 M253.580 247.310 C 253.775 248.958,253.783 248.967,253.919 247.649 C 253.996 246.906,253.906 246.146,253.720 245.960 C 253.533 245.773,253.471 246.381,253.580 247.310 M206.140 249.600 C 206.140 251.470,206.209 252.235,206.293 251.300 C 206.377 250.365,206.377 248.835,206.293 247.900 C 206.209 246.965,206.140 247.730,206.140 249.600 M209.324 249.000 C 209.326 250.320,209.401 250.812,209.490 250.093 C 209.579 249.374,209.577 248.294,209.486 247.693 C 209.395 247.092,209.322 247.680,209.324 249.000 M250.526 248.600 C 250.591 249.244,250.919 249.409,252.203 249.448 L 253.800 249.495 252.325 249.325 C 251.388 249.217,250.776 248.908,250.648 248.477 C 250.501 247.986,250.468 248.020,250.526 248.600 M213.952 249.312 C 214.145 249.505,214.819 249.598,215.451 249.519 C 216.509 249.387,216.481 249.359,215.100 249.168 C 214.240 249.049,213.750 249.110,213.952 249.312 M229.800 249.895 C 230.460 249.992,231.270 250.280,231.600 250.535 C 232.122 250.940,232.129 250.909,231.651 250.300 C 231.312 249.868,230.623 249.623,229.851 249.660 L 228.600 249.720 229.800 249.895 M244.912 249.895 C 245.964 249.977,247.584 249.976,248.512 249.892 C 249.440 249.808,248.580 249.741,246.600 249.742 C 244.620 249.743,243.860 249.812,244.912 249.895 M228.120 252.400 C 228.120 253.610,228.195 254.105,228.287 253.500 C 228.378 252.895,228.378 251.905,228.287 251.300 C 228.195 250.695,228.120 251.190,228.120 252.400 M242.940 253.600 C 242.940 255.470,243.009 256.235,243.093 255.300 C 243.177 254.365,243.177 252.835,243.093 251.900 C 243.009 250.965,242.940 251.730,242.940 253.600 M198.832 252.020 C 198.814 252.581,198.584 253.256,198.320 253.520 C 197.955 253.885,197.953 254.000,198.312 254.000 C 198.856 254.000,199.379 252.286,199.071 251.517 C 198.957 251.233,198.849 251.459,198.832 252.020 M207.800 253.200 L 206.200 253.486 207.676 253.543 C 208.488 253.574,209.264 253.420,209.400 253.200 C 209.536 252.980,209.592 252.826,209.524 252.857 C 209.456 252.888,208.680 253.042,207.800 253.200 M220.914 255.800 C 220.917 256.900,220.995 257.303,221.087 256.695 C 221.179 256.086,221.177 255.186,221.082 254.695 C 220.987 254.203,220.911 254.700,220.914 255.800 M224.114 255.800 C 224.117 256.900,224.195 257.303,224.287 256.695 C 224.379 256.086,224.377 255.186,224.282 254.695 C 224.187 254.203,224.111 254.700,224.114 255.800 M235.714 255.800 C 235.717 256.900,235.795 257.303,235.887 256.695 C 235.979 256.086,235.977 255.186,235.882 254.695 C 235.787 254.203,235.711 254.700,235.714 255.800 M238.914 255.800 C 238.917 256.900,238.995 257.303,239.087 256.695 C 239.179 256.086,239.177 255.186,239.082 254.695 C 238.987 254.203,238.911 254.700,238.914 255.800 M253.709 256.000 C 253.709 256.990,253.787 257.395,253.882 256.900 C 253.978 256.405,253.978 255.595,253.882 255.100 C 253.787 254.605,253.709 255.010,253.709 256.000 " stroke="none" fill="#7c747c" fill-rule="evenodd"></path></g></svg>