<svg id="svg" version="1.1" xmlns="http://www.w3.org/2000/svg" xmlns:xlink="http://www.w3.org/1999/xlink" width="400" height="400" viewBox="0, 0, 400,400"><g id="svgg"><path id="path0" d="M0.000 200.000 L 0.000 400.000 200.000 400.000 L 400.000 400.000 400.000 200.000 L 400.000 0.000 200.000 0.000 L 0.000 0.000 0.000 200.000 M248.423 138.100 C 248.436 138.375,248.434 145.250,248.420 153.379 C 248.392 168.980,248.416 168.780,246.549 168.794 C 244.884 168.806,244.815 168.275,244.706 154.566 L 244.600 141.400 206.600 141.400 L 168.600 141.400 168.536 154.518 C 168.466 168.829,168.469 168.800,167.045 168.800 C 164.672 168.800,164.800 169.700,164.800 152.957 L 164.800 137.600 206.600 137.600 C 239.761 137.600,248.405 137.703,248.423 138.100 M195.504 148.732 C 196.240 149.199,196.245 170.798,195.510 171.264 C 194.923 171.637,175.586 171.723,174.633 171.357 C 173.808 171.041,173.663 149.697,174.480 148.880 C 175.035 148.325,194.646 148.187,195.504 148.732 M214.542 149.100 C 214.817 150.078,214.603 154.148,214.247 154.724 C 214.043 155.054,212.273 155.202,208.476 155.206 C 205.464 155.209,202.809 155.344,202.575 155.506 C 201.723 156.096,202.120 157.617,203.186 157.847 C 205.034 158.247,205.145 158.345,205.273 159.677 C 205.464 161.669,207.633 161.658,208.041 159.663 C 208.410 157.857,208.891 157.469,210.360 157.791 C 211.617 158.067,211.712 158.216,211.768 160.000 C 211.793 160.777,212.039 161.028,212.871 161.124 C 215.207 161.394,215.505 164.800,213.192 164.800 C 211.814 164.800,211.609 165.067,211.883 166.502 C 212.041 167.328,212.326 167.600,213.033 167.600 C 214.425 167.600,214.917 168.871,214.596 171.639 L 214.321 174.000 215.681 174.000 C 217.333 174.000,218.000 174.598,218.000 176.080 L 218.000 177.200 220.800 177.200 C 223.600 177.200,223.600 177.200,223.600 176.080 C 223.600 174.409,224.282 174.000,227.066 174.000 C 229.780 174.000,230.729 174.733,230.195 176.415 C 229.963 177.148,230.148 177.200,232.973 177.200 L 236.000 177.200 236.000 176.049 C 236.000 173.540,239.296 173.105,239.531 175.582 C 239.687 177.222,238.773 178.109,237.306 177.741 C 236.414 177.517,236.351 177.599,236.471 178.849 C 236.575 179.943,236.790 180.226,237.600 180.338 C 241.402 180.864,240.156 184.400,236.169 184.400 C 233.462 184.400,232.652 183.890,232.871 182.324 C 232.984 181.514,232.811 181.384,231.463 181.274 L 229.926 181.147 230.019 182.674 C 230.176 185.259,230.246 185.200,227.024 185.200 C 225.387 185.200,223.936 185.020,223.800 184.800 C 223.664 184.580,222.944 184.400,222.200 184.400 C 221.456 184.400,220.736 184.580,220.600 184.800 C 220.464 185.020,219.744 185.200,219.000 185.200 C 218.256 185.200,217.536 185.020,217.400 184.800 C 217.264 184.580,216.533 184.400,215.776 184.400 C 215.019 184.400,214.400 184.580,214.400 184.800 C 214.400 185.522,208.524 185.300,208.243 184.567 C 207.146 181.709,208.246 177.200,210.039 177.200 C 211.165 177.200,211.242 177.108,211.125 175.900 L 211.000 174.600 208.200 174.600 L 205.400 174.600 205.200 176.000 C 205.023 177.237,204.849 177.415,203.700 177.525 C 202.513 177.640,202.400 177.769,202.400 179.011 C 202.400 180.455,201.591 181.200,200.026 181.200 C 199.352 181.200,199.200 181.452,199.200 182.567 C 199.200 184.716,198.864 185.200,197.371 185.200 C 195.813 185.200,195.168 184.347,195.483 182.701 C 195.695 181.589,195.457 181.366,193.800 181.119 C 193.112 181.017,192.972 181.280,192.800 183.000 L 192.600 185.000 191.000 185.000 L 189.400 185.000 189.277 183.076 C 189.111 180.482,186.612 180.226,186.585 182.800 C 186.577 183.571,186.431 184.426,186.261 184.700 C 185.886 185.308,180.568 185.395,180.200 184.800 C 179.870 184.266,177.472 184.288,176.931 184.829 C 176.695 185.065,175.894 185.200,175.151 185.129 L 173.800 185.000 173.688 179.711 L 173.577 174.421 174.650 174.152 C 176.098 173.788,176.974 174.421,177.125 175.940 C 177.238 177.073,177.383 177.200,178.570 177.200 C 179.762 177.200,179.871 177.104,179.697 176.198 C 179.446 174.882,180.223 174.000,181.635 174.000 C 182.845 174.000,183.600 174.913,183.600 176.374 C 183.600 177.047,183.852 177.200,184.963 177.200 C 186.104 177.200,186.293 177.077,186.127 176.441 C 185.689 174.768,186.651 174.000,189.181 174.000 C 192.374 174.000,192.800 174.217,192.800 175.843 C 192.800 177.136,192.869 177.200,194.247 177.200 C 195.552 177.200,195.676 177.108,195.512 176.254 C 195.268 174.977,195.992 174.097,197.419 173.934 C 198.396 173.823,198.582 173.635,198.495 172.847 C 198.353 171.550,199.069 170.800,200.449 170.800 L 201.600 170.800 201.600 166.200 L 201.600 161.600 200.449 161.600 C 198.641 161.600,198.373 160.911,198.448 156.448 C 198.528 151.722,198.556 151.684,202.015 151.521 C 204.436 151.408,204.608 151.336,204.720 150.400 C 204.960 148.388,204.931 148.400,209.760 148.400 C 213.786 148.400,214.370 148.485,214.542 149.100 M239.507 159.351 C 239.582 166.948,239.480 170.263,239.158 170.651 C 238.538 171.398,218.423 171.463,217.680 170.720 C 217.155 170.195,216.958 149.175,217.473 148.660 C 217.623 148.510,222.618 148.435,228.573 148.494 L 239.400 148.600 239.507 159.351 M221.467 152.267 C 221.320 152.413,221.200 155.833,221.200 159.867 L 221.200 167.200 228.400 167.200 L 235.600 167.200 235.600 159.600 L 235.600 152.000 228.667 152.000 C 224.853 152.000,221.613 152.120,221.467 152.267 M177.600 160.000 L 177.600 167.618 184.900 167.509 L 192.200 167.400 192.200 160.000 L 192.200 152.600 184.900 152.491 L 177.600 152.382 177.600 160.000 M233.513 159.367 C 233.651 165.147,233.878 164.899,228.459 164.889 C 222.868 164.879,223.200 165.196,223.200 159.856 C 223.200 154.154,222.998 154.347,228.792 154.488 L 233.400 154.600 233.513 159.367 M189.800 160.000 L 189.800 165.000 185.000 165.000 L 180.200 165.000 180.086 160.424 C 179.934 154.303,179.526 154.754,185.092 154.887 L 189.800 155.000 189.800 160.000 M208.800 169.628 C 208.800 170.672,208.934 170.837,209.700 170.728 C 211.115 170.527,211.230 168.400,209.827 168.400 C 208.947 168.400,208.800 168.576,208.800 169.628 M180.655 178.600 C 180.279 179.581,180.820 180.400,181.843 180.400 C 182.640 180.400,182.800 180.199,182.800 179.200 C 182.800 177.872,181.116 177.401,180.655 178.600 M214.955 178.572 C 214.559 179.604,215.107 180.400,216.214 180.400 C 217.112 180.400,217.236 180.250,217.127 179.300 C 216.981 178.032,215.370 177.492,214.955 178.572 M227.600 179.200 C 227.600 180.213,227.756 180.400,228.600 180.400 C 229.444 180.400,229.600 180.213,229.600 179.200 C 229.600 178.187,229.444 178.000,228.600 178.000 C 227.756 178.000,227.600 178.187,227.600 179.200 M212.000 182.400 C 212.000 183.413,212.156 183.600,213.000 183.600 C 213.844 183.600,214.000 183.413,214.000 182.400 C 214.000 181.387,213.844 181.200,213.000 181.200 C 212.156 181.200,212.000 181.387,212.000 182.400 M224.400 182.400 C 224.400 183.413,224.556 183.600,225.400 183.600 C 226.244 183.600,226.400 183.413,226.400 182.400 C 226.400 181.387,226.244 181.200,225.400 181.200 C 224.556 181.200,224.400 181.387,224.400 182.400 M161.215 184.784 L 162.600 185.967 206.645 185.984 L 250.690 186.000 252.200 184.800 C 254.648 182.855,257.206 183.518,258.403 186.407 C 260.078 190.451,254.597 193.790,251.571 190.569 L 250.674 189.614 206.643 189.623 L 162.611 189.631 161.479 190.716 C 158.127 193.928,153.067 190.182,155.175 186.049 C 156.600 183.256,158.871 182.780,161.215 184.784 M204.800 184.400 C 204.800 185.048,204.533 185.200,203.400 185.200 C 202.082 185.200,201.554 184.579,202.267 183.867 C 202.926 183.208,204.800 183.602,204.800 184.400 M195.880 190.970 C 196.056 191.284,196.110 196.369,196.000 202.270 L 195.800 213.000 185.000 213.000 L 174.200 213.000 174.093 202.206 C 174.035 196.269,174.074 191.184,174.181 190.906 C 174.484 190.116,195.435 190.178,195.880 190.970 M201.998 190.998 C 202.271 191.326,202.408 192.046,202.303 192.598 C 202.129 193.507,202.236 193.600,203.455 193.600 C 204.670 193.600,204.800 193.489,204.800 192.449 C 204.800 189.927,208.046 189.522,208.400 192.000 C 208.579 193.251,208.744 193.414,209.954 193.529 C 211.053 193.634,211.262 193.540,211.065 193.026 C 210.255 190.913,213.367 189.270,214.427 191.251 C 215.152 192.605,214.317 194.000,212.782 194.000 C 211.736 194.000,211.584 194.121,211.795 194.785 C 212.227 196.144,211.337 197.200,209.761 197.200 C 208.409 197.200,208.355 197.255,208.475 198.500 L 208.600 199.800 211.461 199.917 C 216.360 200.117,216.213 203.466,211.296 203.682 L 208.600 203.800 208.600 205.000 C 208.600 206.197,208.606 206.200,211.185 206.321 C 214.044 206.455,214.768 206.827,214.702 208.127 C 214.619 209.780,214.088 210.000,210.184 210.000 C 205.650 210.000,205.200 210.150,205.200 211.656 C 205.200 214.046,201.954 213.956,201.600 211.556 C 201.442 210.481,201.192 210.171,200.400 210.062 C 196.571 209.532,197.874 206.516,202.015 206.321 L 204.600 206.200 204.718 203.300 L 204.835 200.400 203.473 200.400 C 202.235 200.400,202.128 200.491,202.303 201.402 C 202.652 203.231,200.214 204.454,198.880 203.120 C 197.655 201.895,198.627 200.000,200.480 200.000 L 201.600 200.000 201.600 197.000 L 201.600 194.000 200.391 194.000 C 198.883 194.000,198.055 192.593,198.773 191.251 C 199.313 190.241,201.245 190.090,201.998 190.998 M239.507 201.373 C 239.569 207.704,239.459 212.301,239.238 212.522 C 238.654 213.106,217.894 212.873,217.516 212.278 C 216.977 211.430,217.136 191.424,217.686 190.874 C 218.049 190.511,220.867 190.414,228.786 190.494 L 239.400 190.600 239.507 201.373 M168.197 193.195 C 168.331 193.412,168.427 199.527,168.411 206.785 L 168.381 219.980 169.290 220.200 C 169.791 220.321,186.940 220.370,207.400 220.310 L 244.600 220.200 244.706 207.034 C 244.777 198.133,244.955 193.696,245.255 193.334 C 245.757 192.729,247.835 192.609,248.179 193.165 C 248.569 193.797,248.517 223.243,248.124 223.636 C 247.904 223.856,231.182 223.963,206.378 223.902 L 165.000 223.800 164.895 208.627 C 164.813 196.754,164.900 193.384,165.295 193.133 C 166.006 192.682,167.905 192.722,168.197 193.195 M177.876 194.258 C 177.724 194.409,177.600 197.833,177.600 201.867 L 177.600 209.200 185.009 209.200 L 192.418 209.200 192.309 201.700 L 192.200 194.200 185.176 194.091 C 181.312 194.031,178.027 194.106,177.876 194.258 M221.200 201.600 L 221.200 209.200 228.400 209.200 L 235.600 209.200 235.600 201.600 L 235.600 194.000 228.400 194.000 L 221.200 194.000 221.200 201.600 M232.826 196.414 C 233.893 196.985,234.020 206.153,232.967 206.557 C 231.769 207.017,224.183 206.823,223.680 206.320 C 222.842 205.482,223.032 196.937,223.900 196.432 C 224.820 195.896,231.832 195.882,232.826 196.414 M189.557 196.774 C 189.885 196.976,189.992 198.558,189.913 202.032 L 189.800 207.000 185.234 207.114 C 182.722 207.176,180.529 207.086,180.359 206.914 C 179.747 206.292,179.814 197.163,180.433 196.765 C 181.094 196.339,188.866 196.346,189.557 196.774 " stroke="none" fill="#fbfbfb" fill-rule="evenodd"></path><path id="path1" d="M165.695 153.095 C 165.795 167.114,165.835 167.796,166.552 167.934 C 167.858 168.185,167.945 167.330,167.966 154.047 C 167.977 146.901,168.134 140.906,168.315 140.725 C 168.496 140.544,185.914 140.442,207.022 140.498 L 245.400 140.600 245.505 154.300 L 245.611 168.000 246.605 168.000 L 247.600 168.000 247.600 153.200 L 247.600 138.400 206.595 138.400 L 165.590 138.400 165.695 153.095 M174.980 149.707 C 174.873 149.986,174.834 154.801,174.893 160.407 L 175.000 170.600 185.100 170.707 L 195.200 170.814 195.200 160.007 L 195.200 149.200 185.187 149.200 C 177.474 149.200,175.130 149.316,174.980 149.707 M205.600 150.592 C 205.600 152.170,205.284 152.322,201.632 152.496 L 199.463 152.600 199.464 156.600 L 199.464 160.600 200.832 160.800 L 202.200 161.000 202.200 166.200 L 202.200 171.400 200.900 171.525 C 199.789 171.632,199.599 171.807,199.594 172.725 C 199.585 174.275,199.172 174.718,197.597 174.867 C 196.635 174.959,196.239 175.179,196.325 175.574 C 196.708 177.340,196.034 178.047,194.087 177.921 C 192.216 177.801,192.199 177.787,192.075 176.282 L 191.950 174.763 189.475 174.882 C 187.083 174.996,187.000 175.036,187.000 176.078 C 187.000 177.429,186.523 177.903,185.000 178.069 C 184.069 178.171,183.769 178.424,183.662 179.200 C 183.268 182.048,179.600 181.976,179.600 179.120 C 179.600 178.113,179.463 178.000,178.243 178.000 C 176.803 178.000,176.400 177.505,176.400 175.739 C 176.400 174.936,176.226 174.769,175.500 174.872 C 174.057 175.077,173.869 184.400,175.307 184.400 C 175.820 184.400,176.411 184.244,176.620 184.053 C 177.386 183.353,179.472 183.235,180.338 183.842 C 181.884 184.925,185.829 184.451,185.684 183.200 C 185.418 180.892,185.864 180.347,187.913 180.479 L 189.800 180.600 189.922 182.500 C 190.031 184.203,190.143 184.400,191.000 184.400 C 191.857 184.400,191.969 184.203,192.078 182.500 L 192.200 180.600 193.960 180.474 C 196.002 180.328,196.385 180.714,196.394 182.928 C 196.404 185.374,198.120 184.922,198.400 182.400 C 198.589 180.697,198.675 180.589,200.000 180.400 C 201.287 180.216,201.410 180.079,201.524 178.700 C 201.642 177.281,201.723 177.200,203.024 177.200 C 204.327 177.200,204.400 177.127,204.400 175.814 C 204.400 174.067,205.201 173.600,208.200 173.600 C 211.183 173.600,212.000 174.070,212.000 175.786 C 212.000 177.480,211.172 178.360,209.823 178.102 L 208.800 177.907 208.800 181.153 L 208.800 184.400 210.018 184.400 C 211.194 184.400,211.227 184.352,210.973 182.996 C 210.648 181.266,211.274 180.400,212.849 180.400 C 213.800 180.400,214.000 180.232,214.000 179.433 C 214.000 177.687,214.407 177.200,215.869 177.200 C 217.952 177.200,217.717 175.102,215.600 174.800 L 214.200 174.600 214.000 171.600 C 213.808 168.720,213.760 168.600,212.800 168.600 C 211.964 168.600,211.779 168.813,211.675 169.900 C 211.554 171.155,211.487 171.200,209.752 171.200 L 207.954 171.200 208.077 169.500 C 208.192 167.904,208.280 167.792,209.500 167.675 C 210.719 167.557,210.800 167.453,210.800 166.017 C 210.800 164.397,211.240 164.000,213.033 164.000 C 214.844 164.000,214.350 162.077,212.500 161.924 C 211.088 161.807,210.993 161.714,210.878 160.334 C 210.674 157.881,208.967 157.936,208.733 160.403 C 208.479 163.071,204.421 162.598,204.406 159.900 C 204.401 158.949,204.240 158.800,203.214 158.800 C 201.776 158.800,201.269 157.932,201.577 156.000 L 201.800 154.600 207.900 154.490 L 214.000 154.379 214.000 151.790 L 214.000 149.200 209.800 149.200 L 205.600 149.200 205.600 150.592 M218.180 149.707 C 218.073 149.986,218.034 154.711,218.093 160.207 L 218.200 170.200 228.500 170.307 L 238.800 170.414 238.800 159.807 L 238.800 149.200 228.587 149.200 C 220.709 149.200,218.330 149.316,218.180 149.707 M236.193 151.659 C 236.705 152.172,236.689 167.194,236.176 167.620 C 235.884 167.862,232.741 167.975,228.148 167.909 L 220.600 167.800 220.492 159.731 C 220.392 152.300,220.440 151.646,221.092 151.459 C 222.112 151.168,235.884 151.350,236.193 151.659 M193.006 152.500 C 193.128 152.995,193.176 156.730,193.114 160.800 L 193.000 168.200 185.200 168.200 L 177.400 168.200 177.291 160.412 C 177.231 156.128,177.270 152.393,177.379 152.112 C 177.789 151.041,192.739 151.413,193.006 152.500 M224.172 155.728 C 224.061 156.019,224.021 158.044,224.085 160.228 L 224.200 164.200 228.400 164.200 L 232.600 164.200 232.713 159.700 L 232.826 155.200 228.601 155.200 C 225.468 155.200,224.322 155.337,224.172 155.728 M180.800 159.960 L 180.800 164.347 184.839 164.473 C 189.613 164.623,189.256 164.992,189.265 159.891 L 189.272 155.800 185.036 155.686 L 180.800 155.573 180.800 159.960 M180.612 175.181 C 180.095 176.017,180.823 177.200,181.854 177.200 C 182.708 177.200,182.835 177.040,182.727 176.100 C 182.594 174.951,181.144 174.320,180.612 175.181 M224.615 175.280 C 224.518 175.566,224.385 176.250,224.320 176.800 C 224.206 177.746,224.039 177.811,221.200 178.000 C 218.368 178.189,218.192 178.256,218.062 179.200 C 217.862 180.641,217.265 181.200,215.924 181.200 C 214.153 181.200,214.409 183.344,216.200 183.514 C 216.860 183.577,217.805 183.832,218.300 184.082 C 218.997 184.433,219.437 184.408,220.252 183.972 C 220.831 183.662,221.725 183.464,222.238 183.531 C 222.980 183.628,223.222 183.422,223.419 182.527 C 223.854 180.547,223.931 180.456,225.277 180.327 C 226.452 180.214,226.622 180.043,226.800 178.800 C 226.978 177.556,227.148 177.386,228.324 177.273 C 229.499 177.160,229.634 177.025,229.524 176.073 C 229.382 174.846,225.000 174.138,224.615 175.280 M236.945 175.400 C 236.591 176.322,237.117 177.274,237.899 177.126 C 238.993 176.919,239.098 174.800,238.014 174.800 C 237.552 174.800,237.071 175.070,236.945 175.400 M230.545 178.600 C 230.111 179.730,230.723 180.400,232.187 180.400 C 233.477 180.400,233.600 180.500,233.600 181.551 C 233.600 183.087,234.215 183.473,236.600 183.433 C 239.141 183.391,239.752 181.511,237.301 181.275 C 236.262 181.175,235.956 180.934,235.768 180.075 C 235.318 178.016,235.297 178.000,233.000 178.000 C 231.391 178.000,230.711 178.166,230.545 178.600 M227.467 181.467 C 226.573 182.360,227.223 184.400,228.400 184.400 C 229.533 184.400,229.600 184.311,229.600 182.800 C 229.600 181.241,228.426 180.508,227.467 181.467 M156.430 185.368 C 153.276 188.725,157.906 193.220,161.200 190.000 L 162.428 188.800 206.661 188.800 L 250.894 188.800 252.261 190.000 C 254.861 192.282,257.800 191.152,257.800 187.869 C 257.800 184.516,254.865 183.314,252.261 185.600 L 250.894 186.800 206.661 186.800 L 162.428 186.800 161.061 185.600 C 159.358 184.105,157.695 184.022,156.430 185.368 M175.067 191.467 C 174.920 191.613,174.800 196.383,174.800 202.067 L 174.800 212.400 185.000 212.400 L 195.200 212.400 195.200 201.800 L 195.200 191.200 185.267 191.200 C 179.803 191.200,175.213 191.320,175.067 191.467 M199.345 191.799 C 199.207 192.159,199.279 192.639,199.504 192.864 C 200.156 193.516,201.400 193.077,201.400 192.195 C 201.400 191.177,199.709 190.851,199.345 191.799 M205.867 191.467 C 205.720 191.613,205.600 192.243,205.600 192.867 C 205.600 193.662,205.391 194.014,204.900 194.046 C 204.515 194.072,204.020 194.134,203.800 194.185 C 203.580 194.236,203.175 194.306,202.900 194.339 C 202.562 194.380,202.400 195.182,202.400 196.813 C 202.400 198.394,202.572 199.278,202.900 199.379 C 203.175 199.464,203.902 199.643,204.515 199.778 L 205.631 200.023 205.515 203.511 L 205.400 207.000 202.611 207.120 C 201.004 207.190,199.693 207.444,199.517 207.720 C 198.894 208.701,199.239 209.155,200.700 209.276 C 202.119 209.393,202.207 209.481,202.324 210.900 C 202.487 212.870,204.400 213.220,204.400 211.280 C 204.400 209.429,204.982 209.200,209.680 209.200 L 214.000 209.200 214.000 208.200 C 214.000 207.237,213.904 207.200,211.433 207.200 C 207.961 207.200,207.600 207.015,207.600 205.237 C 207.600 203.161,208.146 202.800,211.280 202.800 C 213.915 202.800,214.000 202.769,214.000 201.800 C 214.000 200.831,213.915 200.800,211.280 200.800 C 208.285 200.800,207.600 200.419,207.600 198.753 C 207.600 196.882,207.983 196.400,209.469 196.400 C 210.743 196.400,210.843 196.312,210.727 195.300 C 210.633 194.487,210.395 194.218,209.817 194.269 C 208.465 194.389,207.600 193.655,207.600 192.386 C 207.600 191.240,206.615 190.718,205.867 191.467 M212.000 192.228 C 212.000 193.065,212.167 193.232,212.900 193.128 C 214.281 192.932,214.396 191.200,213.028 191.200 C 212.191 191.200,212.000 191.391,212.000 192.228 M218.265 191.469 C 217.937 191.796,217.939 210.975,218.266 211.828 C 218.448 212.303,220.208 212.400,228.649 212.400 L 238.813 212.400 238.707 201.900 L 238.600 191.400 228.573 191.293 C 223.059 191.235,218.420 191.313,218.265 191.469 M236.285 193.700 C 237.041 194.685,236.846 209.147,236.071 209.562 C 235.308 209.971,222.049 210.147,221.046 209.762 C 220.375 209.505,220.018 194.116,220.667 193.467 C 221.190 192.943,235.873 193.162,236.285 193.700 M165.884 193.850 C 165.728 194.006,165.600 200.673,165.600 208.667 L 165.600 223.200 206.600 223.200 L 247.600 223.200 247.600 208.400 L 247.600 193.600 246.600 193.600 L 245.600 193.600 245.600 206.920 C 245.600 216.747,245.474 220.366,245.120 220.720 C 244.379 221.461,168.456 221.412,168.172 220.670 C 168.060 220.379,167.930 214.214,167.884 206.970 C 167.802 194.048,167.785 193.798,166.984 193.683 C 166.534 193.619,166.039 193.694,165.884 193.850 M193.109 201.548 C 193.246 211.287,194.062 210.400,184.965 210.400 C 177.057 210.400,176.897 210.355,177.056 208.200 C 177.088 207.760,177.134 204.291,177.157 200.492 L 177.200 193.583 185.100 193.692 L 193.000 193.800 193.109 201.548 M224.350 197.459 C 224.141 197.712,224.022 199.692,224.085 201.859 L 224.200 205.800 228.500 205.914 L 232.800 206.027 232.800 201.640 L 232.800 197.253 228.765 197.127 C 226.072 197.042,224.603 197.153,224.350 197.459 M180.733 197.592 C 180.660 197.807,180.657 199.883,180.726 202.205 L 180.852 206.427 185.105 206.313 L 189.357 206.200 189.298 202.094 C 189.266 199.836,189.130 197.811,188.996 197.594 C 188.678 197.079,180.908 197.077,180.733 197.592 M199.436 201.141 C 198.989 201.865,199.681 202.845,200.551 202.721 C 201.715 202.555,201.704 201.043,200.538 200.877 C 200.064 200.810,199.568 200.928,199.436 201.141 " stroke="none" fill="#1b1b1b" fill-rule="evenodd"></path><path id="path2" d="M164.800 152.957 C 164.800 169.700,164.672 168.800,167.045 168.800 C 168.469 168.800,168.466 168.829,168.536 154.518 L 168.600 141.400 206.600 141.400 L 244.600 141.400 244.706 154.566 C 244.777 163.467,244.955 167.904,245.255 168.266 C 246.293 169.517,249.060 168.343,248.501 166.888 C 248.283 166.320,248.196 166.374,248.000 167.200 C 247.814 167.988,247.513 168.200,246.582 168.200 L 245.400 168.200 245.200 154.600 L 245.000 141.000 206.825 140.898 C 176.549 140.817,168.584 140.900,168.331 141.298 C 168.156 141.574,168.009 147.684,168.006 154.876 C 168.000 168.605,167.989 168.685,166.177 168.230 L 165.200 167.985 165.200 153.026 C 165.200 141.433,165.313 138.021,165.700 137.865 C 165.999 137.744,165.918 137.650,165.500 137.632 C 164.845 137.602,164.800 138.586,164.800 152.957 M248.132 152.400 L 248.163 165.400 248.381 153.600 C 248.502 147.110,248.488 141.260,248.351 140.600 C 248.214 139.940,248.115 145.250,248.132 152.400 M174.480 148.880 C 173.663 149.697,173.808 171.041,174.633 171.357 C 175.458 171.674,194.542 171.674,195.367 171.357 C 195.715 171.224,196.000 170.829,196.000 170.481 C 196.000 169.929,195.935 169.936,195.500 170.531 C 195.047 171.150,194.035 171.204,184.800 171.107 L 174.600 171.000 174.493 160.228 C 174.411 151.876,174.501 149.383,174.893 149.134 C 175.753 148.588,194.964 148.724,195.520 149.280 C 195.841 149.601,196.000 149.615,196.000 149.323 C 196.000 148.272,175.510 147.850,174.480 148.880 M205.007 148.900 C 204.915 149.175,204.785 149.850,204.720 150.400 C 204.608 151.336,204.436 151.408,202.015 151.521 C 198.556 151.684,198.528 151.722,198.448 156.448 C 198.373 160.911,198.641 161.600,200.449 161.600 L 201.600 161.600 201.600 166.200 L 201.600 170.800 200.449 170.800 C 199.069 170.800,198.353 171.550,198.495 172.847 C 198.582 173.635,198.396 173.823,197.419 173.934 C 195.992 174.097,195.268 174.977,195.512 176.254 C 195.676 177.108,195.552 177.200,194.247 177.200 C 192.869 177.200,192.800 177.136,192.800 175.843 C 192.800 174.217,192.374 174.000,189.181 174.000 C 186.651 174.000,185.689 174.768,186.127 176.441 C 186.293 177.077,186.104 177.200,184.963 177.200 C 183.852 177.200,183.600 177.047,183.600 176.374 C 183.600 174.913,182.845 174.000,181.635 174.000 C 180.223 174.000,179.446 174.882,179.697 176.198 C 179.871 177.104,179.762 177.200,178.570 177.200 C 177.383 177.200,177.238 177.073,177.125 175.940 C 176.974 174.421,176.098 173.788,174.650 174.152 L 173.577 174.421 173.688 179.711 L 173.800 185.000 175.151 185.129 C 175.894 185.200,176.695 185.065,176.931 184.829 C 177.472 184.288,179.870 184.266,180.200 184.800 C 180.568 185.395,185.886 185.308,186.261 184.700 C 186.431 184.426,186.577 183.571,186.585 182.800 C 186.612 180.226,189.111 180.482,189.277 183.076 L 189.400 185.000 191.000 185.000 L 192.600 185.000 192.811 182.900 C 192.927 181.745,192.892 180.800,192.733 180.800 C 192.574 180.800,192.389 181.655,192.322 182.700 C 192.132 185.660,189.867 185.641,189.677 182.678 L 189.554 180.756 187.877 180.878 L 186.200 181.000 186.078 182.900 L 185.956 184.800 183.178 184.800 C 181.650 184.800,180.400 184.641,180.400 184.447 C 180.400 183.778,178.956 183.718,177.102 184.310 C 174.091 185.270,174.000 185.133,174.000 179.640 C 174.000 175.326,174.073 174.831,174.744 174.618 C 175.963 174.231,176.747 174.788,176.877 176.134 C 176.982 177.210,177.180 177.420,178.200 177.533 C 178.860 177.607,179.715 177.950,180.100 178.295 C 180.533 178.684,180.800 178.748,180.800 178.462 C 180.800 178.208,181.250 178.000,181.800 178.000 C 182.644 178.000,182.800 178.187,182.800 179.200 C 182.800 180.603,181.468 180.900,180.557 179.700 C 180.265 179.315,180.020 179.203,180.013 179.451 C 179.959 181.368,182.924 181.135,183.200 179.200 C 183.384 177.910,183.526 177.784,185.000 177.600 C 186.444 177.420,186.590 177.298,186.493 176.354 C 186.233 173.799,192.036 173.451,192.400 176.000 C 192.590 177.333,192.676 177.400,194.200 177.400 C 195.724 177.400,195.810 177.333,196.000 176.000 C 196.178 174.756,196.356 174.578,197.600 174.400 C 198.882 174.217,199.010 174.075,199.123 172.724 C 199.234 171.387,199.366 171.236,200.523 171.124 L 201.800 171.000 201.912 166.100 L 202.025 161.200 200.612 161.200 L 199.200 161.200 199.200 156.600 L 199.200 152.000 201.700 151.994 C 204.669 151.987,205.085 151.777,205.264 150.199 L 205.400 149.000 209.708 148.886 C 213.870 148.777,214.028 148.804,214.382 149.686 C 214.584 150.189,214.761 150.390,214.775 150.133 C 214.861 148.549,214.429 148.400,209.745 148.400 C 206.445 148.400,205.128 148.539,205.007 148.900 M217.473 148.660 C 216.958 149.175,217.155 170.195,217.680 170.720 C 218.423 171.463,238.538 171.398,239.158 170.651 C 239.480 170.263,239.582 166.948,239.507 159.351 L 239.400 148.600 228.573 148.494 C 222.618 148.435,217.623 148.510,217.473 148.660 M239.000 159.800 L 239.000 170.600 228.628 170.707 C 220.595 170.790,218.184 170.699,217.938 170.307 C 217.561 169.704,217.513 149.421,217.888 149.046 C 218.030 148.903,222.838 148.835,228.573 148.894 L 239.000 149.000 239.000 159.800 M195.724 153.000 C 195.726 154.320,195.801 154.812,195.890 154.093 C 195.979 153.374,195.977 152.294,195.886 151.693 C 195.795 151.092,195.722 151.680,195.724 153.000 M220.982 152.104 C 220.871 152.391,220.830 155.950,220.891 160.013 L 221.000 167.400 228.508 167.509 L 236.017 167.618 235.908 159.709 L 235.800 151.800 228.491 151.691 C 222.770 151.606,221.138 151.695,220.982 152.104 M177.381 152.504 C 177.271 152.791,177.230 156.350,177.291 160.413 L 177.400 167.800 185.000 167.800 L 192.600 167.800 192.600 160.000 L 192.600 152.200 185.091 152.091 C 179.207 152.006,177.538 152.095,177.381 152.504 M235.600 159.600 L 235.600 167.200 228.400 167.200 L 221.200 167.200 221.200 159.867 C 221.200 155.833,221.320 152.413,221.467 152.267 C 221.613 152.120,224.853 152.000,228.667 152.000 L 235.600 152.000 235.600 159.600 M192.200 160.000 L 192.200 167.400 184.900 167.509 L 177.600 167.618 177.600 160.000 L 177.600 152.382 184.900 152.491 L 192.200 152.600 192.200 160.000 M214.210 153.970 C 213.958 154.761,213.667 154.800,207.973 154.800 C 204.688 154.800,201.977 154.935,201.949 155.100 C 201.524 157.596,201.933 158.400,203.625 158.400 C 204.638 158.400,204.764 158.551,204.876 159.900 C 205.050 162.009,208.109 162.275,208.325 160.200 C 208.590 157.655,211.069 157.438,211.278 159.941 C 211.389 161.269,211.524 161.418,212.783 161.600 C 213.833 161.752,214.233 162.041,214.443 162.800 C 214.688 163.683,214.725 163.700,214.760 162.949 C 214.808 161.929,214.155 161.326,212.800 161.138 C 212.048 161.034,211.792 160.752,211.768 160.000 C 211.712 158.216,211.617 158.067,210.360 157.791 C 208.891 157.469,208.410 157.857,208.041 159.663 C 207.633 161.658,205.464 161.669,205.273 159.677 C 205.145 158.345,205.034 158.247,203.186 157.847 C 202.120 157.617,201.723 156.096,202.575 155.506 C 202.809 155.344,205.469 155.209,208.486 155.206 C 213.843 155.200,215.909 154.575,214.669 153.336 C 214.561 153.228,214.354 153.513,214.210 153.970 M223.692 154.868 C 222.786 155.774,223.028 164.280,223.974 164.786 C 225.160 165.421,225.386 165.279,224.428 164.500 C 223.628 163.849,223.576 163.493,223.684 159.400 L 223.800 155.000 228.400 155.000 L 233.000 155.000 233.114 159.546 C 233.213 163.521,233.137 164.160,232.514 164.633 C 232.121 164.931,232.003 165.180,232.251 165.187 C 233.364 165.219,233.624 164.014,233.513 159.343 L 233.400 154.600 228.792 154.488 C 225.548 154.409,224.038 154.522,223.692 154.868 M180.179 155.312 C 180.065 155.607,180.024 157.908,180.086 160.424 L 180.200 165.000 185.000 165.000 L 189.800 165.000 189.800 160.000 L 189.800 155.000 185.092 154.887 C 181.441 154.800,180.338 154.895,180.179 155.312 M189.600 160.000 L 189.600 164.800 185.000 164.800 L 180.400 164.800 180.400 160.000 L 180.400 155.200 185.000 155.200 L 189.600 155.200 189.600 160.000 M195.724 158.600 C 195.726 159.920,195.801 160.412,195.890 159.693 C 195.979 158.974,195.977 157.894,195.886 157.293 C 195.795 156.692,195.722 157.280,195.724 158.600 M195.772 161.730 C 195.660 162.022,195.622 163.957,195.687 166.030 L 195.806 169.800 196.003 165.499 C 196.198 161.238,196.165 160.704,195.772 161.730 M212.800 164.353 C 211.581 164.568,211.394 164.755,211.354 165.800 C 211.329 166.460,211.284 167.225,211.254 167.500 C 211.222 167.796,210.620 168.000,209.776 168.000 C 208.302 168.000,207.698 170.760,209.110 171.039 C 209.390 171.095,209.436 171.049,209.210 170.937 C 208.269 170.470,208.750 168.400,209.800 168.400 C 210.919 168.400,211.221 169.815,210.300 170.744 C 209.899 171.147,209.934 171.196,210.477 170.990 C 210.872 170.839,211.206 170.204,211.277 169.466 C 211.384 168.364,211.566 168.184,212.686 168.076 C 214.037 167.945,214.098 168.036,214.534 170.800 C 214.658 171.588,214.703 171.519,214.746 170.474 C 214.819 168.687,214.171 167.600,213.033 167.600 C 212.326 167.600,212.041 167.328,211.883 166.502 C 211.608 165.061,211.814 164.800,213.224 164.800 C 213.871 164.800,214.400 164.620,214.400 164.400 C 214.400 164.180,214.355 164.024,214.300 164.053 C 214.245 164.082,213.570 164.217,212.800 164.353 M205.300 174.265 C 205.025 174.376,204.800 175.070,204.800 175.807 C 204.800 176.957,204.644 177.173,203.700 177.331 C 202.655 177.507,202.660 177.513,203.800 177.458 C 204.852 177.407,205.025 177.227,205.200 176.000 L 205.400 174.600 208.200 174.600 L 211.000 174.600 211.125 175.900 C 211.242 177.106,211.164 177.200,210.049 177.200 C 209.388 177.200,208.754 177.350,208.641 177.534 C 208.527 177.718,209.101 177.761,209.917 177.630 C 211.524 177.371,212.354 175.124,211.130 174.348 C 210.565 173.990,206.138 173.927,205.300 174.265 M215.470 174.287 C 217.927 174.595,218.375 177.600,215.964 177.600 C 214.746 177.600,214.047 178.902,214.554 180.225 C 215.066 181.559,217.374 180.783,217.600 179.200 L 217.800 177.800 220.800 177.600 L 223.800 177.400 224.000 176.000 L 224.200 174.600 226.861 174.483 C 229.453 174.368,229.532 174.394,229.929 175.483 C 230.153 176.097,230.351 176.363,230.368 176.074 C 230.461 174.532,229.614 174.000,227.066 174.000 C 224.282 174.000,223.600 174.409,223.600 176.080 L 223.600 177.200 220.800 177.200 L 218.000 177.200 218.000 176.080 C 218.000 174.567,217.316 173.988,215.620 174.064 L 214.200 174.128 215.470 174.287 M236.498 174.462 C 236.224 174.736,236.000 175.438,236.000 176.023 L 236.000 177.085 231.775 177.301 C 226.928 177.548,227.314 177.390,227.137 179.200 L 227.000 180.600 230.000 181.010 C 232.799 181.393,232.991 181.482,232.871 182.334 C 232.651 183.890,233.466 184.400,236.169 184.400 C 240.156 184.400,241.402 180.864,237.600 180.338 C 236.456 180.180,235.922 178.149,236.868 177.550 C 237.304 177.273,237.305 177.211,236.873 177.206 C 236.136 177.198,236.432 175.186,237.246 174.677 C 238.278 174.031,239.200 174.637,239.200 175.960 C 239.200 176.809,238.964 177.221,238.370 177.410 C 237.913 177.554,237.628 177.761,237.736 177.869 C 238.416 178.550,239.637 177.050,239.523 175.674 C 239.389 174.072,237.603 173.357,236.498 174.462 M182.782 174.978 C 183.617 175.985,183.135 177.384,181.903 177.526 C 181.052 177.624,180.703 177.425,180.345 176.638 C 179.552 174.898,181.573 173.521,182.782 174.978 M202.017 178.000 C 201.955 178.330,201.937 178.838,201.977 179.130 C 202.098 180.026,201.160 180.800,199.951 180.800 C 198.852 180.800,198.611 181.122,198.782 182.354 C 198.991 183.847,198.380 184.800,197.214 184.800 C 196.102 184.800,196.038 184.706,195.922 182.900 C 195.807 181.103,195.735 180.996,194.600 180.922 C 193.481 180.848,193.468 180.863,194.400 181.140 C 195.212 181.382,195.403 181.698,195.415 182.819 C 195.435 184.723,195.830 185.200,197.381 185.200 C 198.863 185.200,199.200 184.713,199.200 182.567 C 199.200 181.406,199.339 181.200,200.124 181.200 C 201.703 181.200,202.483 180.332,202.295 178.782 C 202.203 178.022,202.078 177.670,202.017 178.000 M235.935 179.000 C 236.086 180.339,236.677 181.238,237.353 181.158 C 238.932 180.972,239.250 181.212,239.125 182.500 C 239.001 183.788,238.978 183.801,236.666 183.921 C 234.222 184.048,233.123 183.574,233.231 182.439 C 233.358 181.107,233.171 180.800,232.233 180.800 C 230.285 180.800,229.110 179.023,230.283 177.850 C 231.249 176.884,235.801 177.810,235.935 179.000 M217.127 179.300 C 217.236 180.250,217.112 180.400,216.214 180.400 C 215.107 180.400,214.559 179.604,214.955 178.572 C 215.370 177.492,216.981 178.032,217.127 179.300 M229.600 179.200 C 229.600 180.213,229.444 180.400,228.600 180.400 C 227.756 180.400,227.600 180.213,227.600 179.200 C 227.600 178.187,227.756 178.000,228.600 178.000 C 229.444 178.000,229.600 178.187,229.600 179.200 M208.073 181.067 C 207.968 185.204,207.964 185.200,211.443 185.200 C 213.148 185.200,214.400 185.031,214.400 184.800 C 214.400 184.580,215.019 184.400,215.776 184.400 C 216.533 184.400,217.264 184.580,217.400 184.800 C 217.536 185.020,218.256 185.200,219.000 185.200 C 219.744 185.200,220.464 185.020,220.600 184.800 C 220.736 184.580,221.456 184.400,222.200 184.400 C 222.944 184.400,223.664 184.580,223.800 184.800 C 224.237 185.507,229.876 185.300,230.157 184.567 C 230.532 183.591,230.422 183.320,229.968 184.100 C 229.646 184.652,229.015 184.800,226.980 184.800 C 224.432 184.800,223.368 184.172,225.500 183.927 C 227.378 183.710,227.404 180.692,225.526 180.873 C 224.458 180.975,224.173 181.195,224.062 182.000 C 223.864 183.428,223.267 184.000,221.975 184.000 C 221.355 184.000,220.736 184.180,220.600 184.400 C 220.464 184.620,219.834 184.800,219.200 184.800 C 218.566 184.800,217.936 184.620,217.800 184.400 C 217.664 184.180,217.128 184.000,216.609 184.000 C 214.897 184.000,214.400 183.586,214.400 182.157 C 214.400 180.666,212.636 180.151,211.640 181.351 C 210.884 182.263,211.769 184.000,212.990 184.000 C 213.546 184.000,214.000 184.188,214.000 184.418 C 214.000 184.680,212.987 184.792,211.300 184.718 L 208.600 184.600 208.373 181.400 L 208.147 178.200 208.073 181.067 M214.000 182.400 C 214.000 183.413,213.844 183.600,213.000 183.600 C 212.156 183.600,212.000 183.413,212.000 182.400 C 212.000 181.387,212.156 181.200,213.000 181.200 C 213.844 181.200,214.000 181.387,214.000 182.400 M226.400 182.400 C 226.400 183.413,226.244 183.600,225.400 183.600 C 224.556 183.600,224.400 183.413,224.400 182.400 C 224.400 181.387,224.556 181.200,225.400 181.200 C 226.244 181.200,226.400 181.387,226.400 182.400 M156.705 184.029 C 156.323 184.252,155.817 184.832,155.582 185.317 L 155.155 186.200 155.944 185.297 C 157.295 183.751,158.973 183.701,160.985 185.146 L 162.731 186.400 206.710 186.400 L 250.690 186.400 252.200 185.200 C 253.979 183.786,255.448 183.677,257.046 184.839 L 258.200 185.678 257.078 184.639 C 255.587 183.259,254.076 183.309,252.200 184.800 L 250.690 186.000 206.645 185.984 L 162.600 185.967 161.215 184.784 C 159.775 183.553,158.025 183.260,156.705 184.029 M202.267 183.867 C 201.779 184.354,201.991 185.200,202.600 185.200 C 202.930 185.200,203.155 184.975,203.100 184.700 C 203.045 184.425,203.270 184.200,203.600 184.200 C 203.930 184.200,204.155 184.425,204.100 184.700 C 204.045 184.975,204.180 185.200,204.400 185.200 C 204.620 185.200,204.800 184.840,204.800 184.400 C 204.800 183.602,202.926 183.208,202.267 183.867 M258.200 187.800 C 258.200 188.748,258.332 189.316,258.494 189.062 C 258.656 188.808,258.788 188.240,258.788 187.800 C 258.788 187.360,258.656 186.792,258.494 186.538 C 258.332 186.284,258.200 186.852,258.200 187.800 M154.617 187.147 C 154.197 188.470,155.838 191.600,156.951 191.600 C 157.186 191.600,156.992 191.329,156.520 190.999 C 155.524 190.301,154.663 188.023,155.032 187.061 C 155.171 186.697,155.188 186.400,155.070 186.400 C 154.951 186.400,154.747 186.736,154.617 187.147 M161.294 190.412 C 160.575 191.065,160.139 191.600,160.324 191.600 C 160.509 191.600,161.077 191.157,161.586 190.615 L 162.511 189.631 206.592 189.623 L 250.674 189.614 251.607 190.607 C 252.120 191.153,252.823 191.595,253.170 191.588 C 253.676 191.578,253.654 191.491,253.055 191.143 C 252.645 190.905,251.970 190.370,251.555 189.955 C 250.824 189.224,249.396 189.200,206.700 189.212 L 162.600 189.223 161.294 190.412 M256.856 190.834 C 256.336 191.255,256.066 191.594,256.256 191.587 C 256.744 191.569,258.176 190.443,257.971 190.239 C 257.877 190.145,257.375 190.413,256.856 190.834 M174.181 190.906 C 174.074 191.184,174.035 196.269,174.093 202.206 L 174.200 213.000 184.773 213.107 C 190.588 213.166,195.485 213.076,195.653 212.907 C 195.822 212.738,191.154 212.600,185.280 212.600 L 174.600 212.600 174.494 201.700 L 174.387 190.800 184.849 190.800 C 194.331 190.800,195.365 190.866,195.878 191.500 C 196.389 192.132,196.402 192.112,196.008 191.300 C 195.482 190.214,174.591 189.837,174.181 190.906 M198.773 191.251 C 198.055 192.593,198.883 194.000,200.391 194.000 L 201.600 194.000 201.600 197.000 L 201.600 200.000 200.480 200.000 C 198.627 200.000,197.655 201.895,198.880 203.120 C 200.214 204.454,202.652 203.231,202.303 201.402 C 202.128 200.491,202.235 200.400,203.473 200.400 L 204.835 200.400 204.718 203.300 L 204.600 206.200 202.015 206.321 C 197.874 206.516,196.571 209.532,200.400 210.062 C 201.192 210.171,201.442 210.481,201.600 211.556 C 201.954 213.956,205.200 214.046,205.200 211.656 C 205.200 210.151,205.652 210.000,210.153 210.000 C 213.716 210.000,214.818 209.672,214.788 208.620 C 214.781 208.389,214.592 208.515,214.368 208.900 C 214.023 209.492,213.350 209.600,210.013 209.600 C 205.112 209.600,204.800 209.712,204.800 211.468 C 204.800 213.585,202.307 213.346,202.000 211.200 C 201.823 209.963,201.649 209.785,200.500 209.675 C 199.313 209.560,199.200 209.431,199.200 208.192 L 199.200 206.835 202.100 206.718 L 205.000 206.600 205.116 203.325 L 205.232 200.050 203.716 199.925 L 202.200 199.800 202.079 197.210 C 201.980 195.116,202.091 194.523,202.655 194.110 C 203.241 193.682,203.253 193.600,202.732 193.600 C 202.285 193.600,202.165 193.319,202.303 192.598 C 202.695 190.542,199.753 189.419,198.773 191.251 M205.298 190.862 C 205.024 191.136,204.824 191.909,204.853 192.580 C 204.905 193.791,204.907 193.789,205.153 192.400 C 205.531 190.256,208.000 190.024,208.000 192.132 C 208.000 193.024,208.225 193.601,208.633 193.757 C 209.631 194.140,209.809 194.043,209.101 193.500 C 208.743 193.225,208.394 192.460,208.325 191.800 C 208.186 190.465,206.284 189.876,205.298 190.862 M211.201 191.397 C 210.993 191.945,210.921 192.649,211.041 192.962 C 211.170 193.298,210.961 193.607,210.529 193.719 C 209.942 193.870,209.927 193.916,210.453 193.954 C 212.350 194.088,211.477 196.682,209.470 196.877 C 207.772 197.041,207.271 199.825,208.877 200.173 C 210.442 200.513,214.401 200.616,214.401 200.318 C 214.400 200.162,213.095 199.982,211.500 199.918 L 208.600 199.800 208.475 198.500 C 208.355 197.255,208.409 197.200,209.761 197.200 C 211.337 197.200,212.227 196.144,211.795 194.785 C 211.585 194.123,211.736 194.000,212.759 194.000 C 213.962 194.000,214.839 193.095,214.768 191.926 C 214.751 191.637,214.553 191.905,214.328 192.523 C 213.698 194.250,211.850 193.923,211.671 192.053 C 211.545 190.729,211.567 190.709,212.943 190.869 C 213.714 190.959,214.256 190.890,214.148 190.716 C 213.661 189.927,211.577 190.408,211.201 191.397 M217.686 190.874 C 217.173 191.387,216.950 210.883,217.443 212.167 C 217.576 212.515,217.949 212.800,218.271 212.800 C 218.768 212.800,218.761 212.704,218.229 212.171 C 217.537 211.480,217.267 192.344,217.934 191.293 C 218.183 190.901,220.597 190.810,228.628 190.893 L 239.000 191.000 239.106 201.665 L 239.213 212.329 238.106 212.733 C 237.498 212.955,237.281 213.151,237.624 213.168 C 239.566 213.267,239.621 212.926,239.507 201.400 L 239.400 190.600 228.786 190.494 C 220.867 190.414,218.049 190.511,217.686 190.874 M201.782 191.544 C 202.172 192.771,201.610 193.600,200.391 193.600 C 199.167 193.600,198.848 193.128,199.118 191.715 C 199.345 190.531,201.418 190.397,201.782 191.544 M195.746 196.200 C 195.747 198.400,195.814 199.249,195.895 198.087 C 195.976 196.924,195.976 195.124,195.893 194.087 C 195.811 193.049,195.745 194.000,195.746 196.200 M165.295 193.133 C 164.900 193.384,164.813 196.754,164.895 208.627 L 165.000 223.800 206.357 223.902 C 250.446 224.010,248.654 224.095,248.713 221.902 C 248.742 220.853,248.672 220.735,248.356 221.297 C 248.140 221.680,248.017 222.310,248.082 222.697 C 248.194 223.364,246.073 223.400,206.800 223.400 L 165.400 223.400 165.400 208.400 L 165.400 193.400 166.600 193.400 L 167.800 193.400 167.902 206.600 C 167.994 218.441,168.074 219.851,168.679 220.300 C 169.450 220.872,243.799 221.042,244.695 220.474 C 245.068 220.237,245.215 216.873,245.295 206.780 L 245.400 193.400 246.346 193.266 C 248.010 193.031,248.060 193.428,248.113 207.251 L 248.163 220.600 248.382 207.400 C 248.616 193.216,248.572 192.800,246.835 192.800 C 244.845 192.800,244.818 192.977,244.706 207.034 L 244.600 220.200 207.400 220.310 C 186.940 220.370,169.791 220.321,169.290 220.200 L 168.381 219.980 168.411 206.785 C 168.427 199.527,168.331 193.412,168.197 193.195 C 167.905 192.722,166.006 192.682,165.295 193.133 M220.978 194.113 C 220.870 194.395,220.830 197.950,220.891 202.013 L 221.000 209.400 228.400 209.400 L 235.800 209.400 235.908 201.500 L 236.017 193.600 228.596 193.600 C 222.929 193.600,221.128 193.721,220.978 194.113 M177.467 194.267 C 176.778 194.955,177.181 209.162,177.900 209.538 C 178.711 209.963,191.086 210.172,192.112 209.779 C 192.836 209.500,193.218 194.001,192.500 194.000 C 192.335 193.999,192.253 197.419,192.317 201.600 L 192.433 209.200 185.000 209.200 L 177.567 209.200 177.683 201.600 C 177.747 197.419,177.785 193.999,177.767 194.000 C 177.748 194.000,177.613 194.120,177.467 194.267 M235.600 201.600 L 235.600 209.200 228.400 209.200 L 221.200 209.200 221.200 201.600 L 221.200 194.000 228.400 194.000 L 235.600 194.000 235.600 201.600 M223.900 196.432 C 223.032 196.937,222.842 205.482,223.680 206.320 C 224.183 206.823,231.769 207.017,232.967 206.557 C 234.020 206.153,233.893 196.985,232.826 196.414 C 231.832 195.882,224.820 195.896,223.900 196.432 M180.433 196.771 C 179.814 197.163,179.747 206.292,180.359 206.914 C 180.529 207.086,182.722 207.176,185.234 207.114 L 189.800 207.000 189.913 202.032 C 190.029 196.937,189.879 196.384,188.400 196.431 C 188.070 196.442,188.211 196.616,188.713 196.817 C 189.600 197.174,189.622 197.314,189.513 201.892 L 189.400 206.600 185.000 206.600 L 180.600 206.600 180.600 201.800 L 180.600 197.000 184.200 196.776 L 187.800 196.551 184.400 196.482 C 182.530 196.444,180.745 196.574,180.433 196.771 M233.000 201.600 L 233.000 206.200 228.400 206.200 L 223.800 206.200 223.686 201.858 C 223.542 196.370,223.360 196.555,228.664 196.800 L 233.000 197.000 233.000 201.600 M201.830 201.377 C 202.164 202.707,201.771 203.200,200.376 203.200 C 199.299 203.200,199.200 203.083,199.200 201.800 C 199.200 199.990,201.393 199.638,201.830 201.377 M195.728 204.800 C 195.728 206.230,195.801 206.815,195.889 206.100 C 195.978 205.385,195.978 204.215,195.889 203.500 C 195.801 202.785,195.728 203.370,195.728 204.800 M211.200 203.172 L 208.200 203.400 208.200 205.000 L 208.200 206.600 211.000 206.713 C 213.042 206.796,213.935 207.006,214.300 207.490 C 214.575 207.855,214.800 207.961,214.800 207.725 C 214.800 206.863,213.709 206.440,211.185 206.321 C 208.606 206.200,208.600 206.197,208.600 205.000 C 208.600 203.802,208.605 203.800,211.200 203.679 C 212.630 203.612,213.971 203.387,214.180 203.179 C 214.389 202.970,214.479 202.832,214.380 202.872 C 214.281 202.912,212.850 203.047,211.200 203.172 " stroke="none" fill="#a1a1a1" fill-rule="evenodd"></path><path id="path3" d="M206.760 137.997 C 247.254 138.198,247.723 138.209,248.032 139.000 C 248.247 139.553,248.352 139.608,248.372 139.180 C 248.445 137.578,248.967 137.596,206.620 137.697 L 165.800 137.794 206.760 137.997 M180.100 149.099 C 182.905 149.168,187.495 149.168,190.300 149.099 C 193.105 149.030,190.810 148.974,185.200 148.974 C 179.590 148.974,177.295 149.030,180.100 149.099 M217.751 153.600 C 217.751 156.130,217.816 157.165,217.896 155.900 C 217.975 154.635,217.975 152.565,217.896 151.300 C 217.816 150.035,217.751 151.070,217.751 153.600 M214.120 152.000 C 214.120 153.210,214.195 153.705,214.287 153.100 C 214.378 152.495,214.378 151.505,214.287 150.900 C 214.195 150.295,214.120 150.790,214.120 152.000 M236.167 159.800 C 236.167 163.980,236.226 165.636,236.298 163.479 C 236.371 161.323,236.370 157.903,236.298 155.879 C 236.225 153.856,236.166 155.620,236.167 159.800 M223.773 155.327 C 223.661 155.617,223.623 157.732,223.688 160.027 L 223.805 164.200 224.003 159.499 C 224.198 154.852,224.167 154.299,223.773 155.327 M217.759 164.400 C 217.759 167.590,217.821 168.895,217.897 167.300 C 217.973 165.705,217.973 163.095,217.897 161.500 C 217.821 159.905,217.759 161.210,217.759 164.400 M226.300 164.695 C 227.455 164.776,229.345 164.776,230.500 164.695 C 231.655 164.614,230.710 164.548,228.400 164.548 C 226.090 164.548,225.145 164.614,226.300 164.695 M224.880 167.898 C 226.794 167.971,230.034 167.971,232.080 167.898 C 234.126 167.826,232.560 167.766,228.600 167.765 C 224.640 167.765,222.966 167.824,224.880 167.898 M245.541 168.101 C 245.743 168.303,246.333 168.401,246.854 168.319 C 247.655 168.193,247.598 168.137,246.487 167.952 C 245.693 167.821,245.319 167.879,245.541 168.101 M211.354 168.577 C 211.232 168.894,211.203 169.479,211.289 169.877 C 211.387 170.328,211.524 170.112,211.654 169.300 C 211.871 167.938,211.730 167.596,211.354 168.577 M214.131 171.400 C 214.133 172.940,214.205 173.521,214.292 172.691 C 214.379 171.861,214.377 170.601,214.289 169.891 C 214.200 169.181,214.129 169.860,214.131 171.400 M180.700 171.099 C 183.395 171.168,187.805 171.168,190.500 171.099 C 193.195 171.030,190.990 170.973,185.600 170.973 C 180.210 170.973,178.005 171.030,180.700 171.099 M188.105 174.687 C 188.714 174.779,189.614 174.777,190.105 174.682 C 190.597 174.587,190.100 174.511,189.000 174.514 C 187.900 174.517,187.497 174.595,188.105 174.687 M226.305 174.683 C 226.802 174.779,227.522 174.775,227.905 174.675 C 228.287 174.575,227.880 174.496,227.000 174.501 C 226.120 174.505,225.807 174.587,226.305 174.683 M182.752 176.313 C 182.621 177.107,182.679 177.481,182.901 177.259 C 183.103 177.057,183.201 176.467,183.119 175.946 C 182.993 175.145,182.937 175.202,182.752 176.313 M229.552 176.313 C 229.421 177.107,229.479 177.481,229.701 177.259 C 229.903 177.057,230.001 176.467,229.919 175.946 C 229.793 175.145,229.737 175.202,229.552 176.313 M174.140 179.600 C 174.140 181.470,174.209 182.235,174.293 181.300 C 174.377 180.365,174.377 178.835,174.293 177.900 C 174.209 176.965,174.140 177.730,174.140 179.600 M183.445 177.928 C 183.333 178.108,183.773 178.177,184.421 178.082 C 185.070 177.987,185.600 177.840,185.600 177.755 C 185.600 177.450,183.643 177.607,183.445 177.928 M208.645 177.928 C 208.533 178.108,208.973 178.177,209.621 178.082 C 210.270 177.987,210.800 177.840,210.800 177.755 C 210.800 177.450,208.843 177.607,208.645 177.928 M217.861 177.900 C 217.759 178.065,218.603 178.148,219.738 178.084 C 223.147 177.894,223.563 177.712,220.724 177.654 C 219.252 177.625,217.964 177.735,217.861 177.900 M232.500 177.887 C 233.105 177.978,234.095 177.978,234.700 177.887 C 235.305 177.795,234.810 177.720,233.600 177.720 C 232.390 177.720,231.895 177.795,232.500 177.887 M226.901 181.800 C 226.905 182.680,226.987 182.993,227.083 182.495 C 227.179 181.998,227.175 181.278,227.075 180.895 C 226.975 180.513,226.896 180.920,226.901 181.800 M229.709 182.800 C 229.709 183.790,229.787 184.195,229.882 183.700 C 229.978 183.205,229.978 182.395,229.882 181.900 C 229.787 181.405,229.709 181.810,229.709 182.800 M211.238 182.800 C 211.231 183.130,211.445 183.670,211.713 184.000 C 212.272 184.689,214.000 184.987,214.000 184.395 C 214.000 184.178,213.544 184.000,212.987 184.000 C 212.311 184.000,211.854 183.701,211.612 183.100 C 211.413 182.605,211.245 182.470,211.238 182.800 M236.400 183.600 L 233.800 183.862 236.276 183.931 C 237.638 183.969,238.864 183.820,239.000 183.600 C 239.136 183.380,239.192 183.231,239.124 183.269 C 239.056 183.307,237.830 183.456,236.400 183.600 M225.500 183.887 C 224.895 183.978,224.400 184.202,224.400 184.384 C 224.400 184.910,226.370 184.654,226.583 184.100 C 226.688 183.825,226.736 183.627,226.687 183.660 C 226.639 183.693,226.105 183.795,225.500 183.887 M203.017 184.372 C 202.721 184.851,203.474 185.325,204.007 184.996 C 204.454 184.719,204.160 184.000,203.600 184.000 C 203.406 184.000,203.144 184.168,203.017 184.372 M217.774 201.600 C 217.774 207.210,217.830 209.505,217.899 206.700 C 217.968 203.895,217.968 199.305,217.899 196.500 C 217.830 193.695,217.774 195.990,217.774 201.600 M177.461 193.900 C 177.358 194.065,179.553 194.153,182.337 194.096 C 191.679 193.904,192.656 193.757,185.124 193.678 C 181.012 193.635,177.563 193.735,177.461 193.900 M235.999 201.681 C 235.890 206.015,235.939 209.422,236.109 209.252 C 236.279 209.081,236.369 205.535,236.308 201.371 L 236.198 193.800 235.999 201.681 M223.667 201.476 C 223.630 203.938,223.735 206.037,223.900 206.140 C 224.065 206.242,224.152 204.858,224.092 203.063 C 223.907 197.456,223.737 196.821,223.667 201.476 M182.512 206.695 C 183.564 206.777,185.184 206.776,186.112 206.692 C 187.040 206.608,186.180 206.541,184.200 206.542 C 182.220 206.543,181.460 206.612,182.512 206.695 M213.952 208.087 C 214.137 209.198,214.193 209.255,214.319 208.454 C 214.401 207.933,214.303 207.343,214.101 207.141 C 213.879 206.919,213.821 207.293,213.952 208.087 M223.723 212.699 C 226.541 212.768,231.041 212.768,233.723 212.699 C 236.405 212.630,234.100 212.573,228.600 212.573 C 223.100 212.574,220.905 212.630,223.723 212.699 " stroke="none" fill="#7c7c7c" fill-rule="evenodd"></path><path id="path4" d="M165.469 138.265 C 165.097 138.636,165.128 167.508,165.500 167.738 C 165.665 167.841,165.751 161.281,165.690 153.162 L 165.581 138.400 206.586 138.400 L 247.590 138.400 247.702 153.100 L 247.815 167.800 247.807 153.000 L 247.800 138.200 206.769 138.098 C 184.201 138.042,165.616 138.117,165.469 138.265 M168.263 140.698 C 168.160 140.864,185.427 140.953,206.633 140.896 L 245.189 140.792 245.303 154.096 L 245.416 167.400 245.408 154.000 L 245.400 140.600 206.925 140.498 C 185.764 140.442,168.366 140.532,168.263 140.698 M207.715 149.096 C 208.988 149.176,210.968 149.175,212.115 149.094 C 213.262 149.014,212.220 148.949,209.800 148.950 C 207.380 148.951,206.442 149.016,207.715 149.096 M218.000 149.093 C 218.000 149.262,222.677 149.349,228.393 149.287 L 238.787 149.174 238.903 159.487 L 239.020 169.800 239.010 159.400 L 239.000 149.000 228.500 148.893 C 222.725 148.835,218.000 148.925,218.000 149.093 M174.400 159.720 C 174.400 170.153,174.524 171.200,175.756 171.200 C 175.975 171.200,175.843 170.973,175.463 170.696 C 174.835 170.237,174.784 169.249,174.887 159.695 C 174.949 153.923,174.865 149.200,174.700 149.200 C 174.535 149.200,174.400 153.934,174.400 159.720 M195.375 160.000 C 195.375 166.050,195.431 168.525,195.499 165.500 C 195.567 162.475,195.567 157.525,195.499 154.500 C 195.431 151.475,195.375 153.950,195.375 160.000 M205.016 151.573 C 204.871 151.808,203.604 152.000,202.200 152.000 C 200.796 152.000,199.564 152.135,199.462 152.300 C 199.359 152.465,200.594 152.510,202.205 152.400 C 204.974 152.211,206.019 151.886,205.507 151.373 C 205.382 151.249,205.161 151.339,205.016 151.573 M224.500 151.497 C 226.205 151.572,228.995 151.572,230.700 151.497 C 232.405 151.422,231.010 151.361,227.600 151.361 C 224.190 151.361,222.795 151.422,224.500 151.497 M177.461 151.900 C 177.358 152.065,179.643 152.153,182.537 152.096 C 192.105 151.907,193.104 151.758,185.324 151.678 C 181.102 151.635,177.563 151.735,177.461 151.900 M220.492 159.667 C 220.583 166.436,220.697 167.760,221.200 167.897 C 221.661 168.023,221.680 167.977,221.283 167.696 C 220.884 167.415,220.793 165.547,220.883 159.466 C 220.947 155.139,220.861 151.599,220.692 151.600 C 220.522 151.600,220.432 155.230,220.492 159.667 M236.244 152.600 C 236.573 154.071,236.802 154.390,236.794 153.367 C 236.791 152.945,236.605 152.330,236.382 152.000 C 236.085 151.562,236.048 151.724,236.244 152.600 M192.891 160.116 L 192.800 168.033 185.038 167.916 C 180.768 167.852,177.359 167.935,177.461 168.100 C 177.810 168.663,192.803 168.458,193.022 167.888 C 193.130 167.606,193.165 163.961,193.100 159.788 L 192.981 152.200 192.891 160.116 M199.331 156.600 C 199.333 158.140,199.405 158.721,199.492 157.891 C 199.579 157.061,199.577 155.801,199.489 155.091 C 199.400 154.381,199.329 155.060,199.331 156.600 M201.861 154.700 C 201.758 154.865,203.502 154.952,205.737 154.894 C 213.090 154.703,213.891 154.549,207.924 154.474 C 204.692 154.433,201.963 154.535,201.861 154.700 M224.260 155.100 C 224.158 155.265,225.452 155.351,227.137 155.292 C 232.511 155.101,233.127 154.936,228.724 154.867 C 226.372 154.830,224.363 154.935,224.260 155.100 M180.573 155.727 C 180.461 156.017,180.422 158.132,180.485 160.427 L 180.600 164.600 184.501 164.623 L 188.402 164.646 184.601 164.508 L 180.800 164.371 180.800 159.961 L 180.800 155.550 185.163 155.675 C 187.563 155.744,189.442 155.665,189.339 155.500 C 188.988 154.936,180.795 155.148,180.573 155.727 M232.798 159.882 C 232.689 162.347,232.742 164.221,232.915 164.047 C 233.088 163.873,233.177 161.856,233.112 159.565 L 232.996 155.400 232.798 159.882 M189.342 159.800 C 189.341 161.780,189.408 162.640,189.492 161.712 C 189.576 160.784,189.577 159.164,189.495 158.112 C 189.412 157.060,189.343 157.820,189.342 159.800 M201.841 158.466 C 201.954 158.650,202.565 158.800,203.198 158.800 C 204.194 158.800,204.373 158.976,204.527 160.100 L 204.704 161.400 204.652 160.005 C 204.604 158.717,204.485 158.591,203.117 158.370 C 202.301 158.239,201.727 158.282,201.841 158.466 M208.667 158.667 C 208.520 158.813,208.400 159.523,208.400 160.245 C 208.400 161.509,208.335 161.562,206.597 161.715 L 204.795 161.874 206.697 161.837 C 208.571 161.801,208.602 161.778,208.733 160.403 C 208.805 159.635,209.075 158.873,209.333 158.710 C 209.636 158.516,209.648 158.410,209.367 158.406 C 209.128 158.403,208.813 158.520,208.667 158.667 M210.267 158.673 C 210.525 158.857,210.795 159.635,210.867 160.403 C 210.990 161.699,211.101 161.803,212.400 161.836 C 213.747 161.870,213.751 161.865,212.523 161.713 C 211.380 161.571,211.233 161.402,211.123 160.108 C 211.049 159.240,210.760 158.597,210.400 158.500 C 209.991 158.390,209.949 158.445,210.267 158.673 M199.441 160.866 C 199.554 161.050,200.162 161.200,200.790 161.200 C 201.419 161.200,202.025 161.385,202.137 161.610 C 202.249 161.836,202.294 161.791,202.237 161.511 C 202.181 161.232,201.482 160.897,200.684 160.767 C 199.887 160.638,199.327 160.682,199.441 160.866 M202.144 166.000 C 202.144 168.090,202.212 168.945,202.294 167.900 C 202.376 166.855,202.376 165.145,202.294 164.100 C 202.212 163.055,202.144 163.910,202.144 166.000 M211.300 164.265 C 210.998 164.387,210.822 165.127,210.857 166.133 L 210.914 167.800 211.157 166.200 C 211.377 164.750,211.531 164.577,212.800 164.353 C 214.131 164.118,214.141 164.104,213.000 164.084 C 212.340 164.073,211.575 164.154,211.300 164.265 M236.460 165.820 C 236.427 166.491,236.176 167.301,235.903 167.620 C 235.629 167.940,235.733 167.910,236.135 167.554 C 236.625 167.119,236.807 166.531,236.692 165.754 L 236.520 164.600 236.460 165.820 M208.267 167.867 C 207.893 168.240,207.932 171.200,208.311 171.200 C 208.481 171.200,208.554 170.494,208.471 169.630 C 208.332 168.167,208.399 168.049,209.461 167.890 C 210.562 167.726,210.565 167.718,209.567 167.660 C 208.998 167.627,208.413 167.720,208.267 167.867 M211.862 168.300 C 211.760 168.465,212.182 168.600,212.800 168.600 C 213.418 168.600,213.840 168.465,213.738 168.300 C 213.636 168.135,213.214 168.000,212.800 168.000 C 212.386 168.000,211.964 168.135,211.862 168.300 M225.100 170.699 C 227.575 170.769,231.625 170.769,234.100 170.699 C 236.575 170.628,234.550 170.571,229.600 170.571 C 224.650 170.571,222.625 170.628,225.100 170.699 M200.800 171.153 C 199.610 171.363,199.380 171.580,199.265 172.600 C 199.190 173.260,198.943 174.025,198.716 174.300 C 198.440 174.634,198.437 174.800,198.708 174.800 C 199.215 174.800,199.600 173.836,199.600 172.567 C 199.600 171.764,199.799 171.600,200.776 171.600 C 201.423 171.600,202.064 171.420,202.200 171.200 C 202.336 170.980,202.392 170.824,202.324 170.853 C 202.256 170.882,201.570 171.017,200.800 171.153 M206.691 173.889 C 207.401 173.977,208.661 173.979,209.491 173.892 C 210.321 173.805,209.740 173.733,208.200 173.731 C 206.660 173.729,205.981 173.800,206.691 173.889 M204.558 174.566 C 204.438 174.878,204.405 175.643,204.484 176.266 C 204.602 177.191,204.664 177.087,204.825 175.700 C 205.027 173.951,204.938 173.575,204.558 174.566 M211.580 175.710 C 211.775 177.358,211.783 177.367,211.919 176.049 C 211.996 175.306,211.906 174.546,211.720 174.360 C 211.533 174.173,211.471 174.781,211.580 175.710 M224.267 175.067 C 224.120 175.213,224.000 175.828,224.000 176.433 C 224.000 177.038,223.816 177.625,223.590 177.737 C 223.365 177.849,223.409 177.894,223.689 177.837 C 223.968 177.781,224.304 177.074,224.436 176.267 C 224.689 174.707,224.682 174.652,224.267 175.067 M238.752 175.913 C 238.621 176.707,238.679 177.081,238.901 176.859 C 239.103 176.657,239.201 176.067,239.119 175.546 C 238.993 174.745,238.937 174.802,238.752 175.913 M192.144 176.369 C 192.178 177.212,192.431 177.800,192.800 177.900 C 193.205 178.009,193.249 177.953,192.936 177.729 C 192.681 177.547,192.386 176.858,192.280 176.199 C 192.103 175.101,192.092 175.115,192.144 176.369 M214.243 177.833 C 214.109 178.181,214.000 178.901,214.000 179.433 C 214.000 180.225,213.798 180.400,212.880 180.400 C 211.473 180.400,210.786 181.068,210.847 182.380 C 210.891 183.326,210.913 183.313,211.149 182.200 C 211.370 181.157,211.600 180.984,212.902 180.876 C 214.314 180.759,214.400 180.674,214.400 179.396 C 214.400 178.526,214.651 177.893,215.100 177.632 C 215.721 177.270,215.726 177.223,215.143 177.212 C 214.781 177.205,214.376 177.485,214.243 177.833 M227.045 177.528 C 226.933 177.708,227.373 177.777,228.021 177.682 C 228.670 177.587,229.200 177.440,229.200 177.355 C 229.200 177.050,227.243 177.207,227.045 177.528 M230.480 178.080 C 229.920 178.640,229.831 180.400,230.363 180.400 C 230.562 180.400,230.624 180.013,230.500 179.540 C 230.352 178.974,230.527 178.496,231.014 178.140 C 231.420 177.843,231.575 177.600,231.356 177.600 C 231.138 177.600,230.744 177.816,230.480 178.080 M179.653 179.020 C 179.521 182.060,183.149 182.105,183.697 179.070 C 183.809 178.448,183.758 178.088,183.584 178.270 C 183.410 178.451,183.207 179.050,183.134 179.600 C 182.896 181.375,180.279 181.046,179.953 179.200 C 179.707 177.811,179.705 177.809,179.653 179.020 M217.811 178.500 C 217.721 178.775,217.589 179.360,217.519 179.800 C 217.427 180.373,216.995 180.657,215.995 180.800 C 214.566 181.005,213.833 182.393,214.699 183.259 C 214.921 183.481,214.995 183.147,214.887 182.413 C 214.723 181.293,214.801 181.200,215.906 181.200 C 217.265 181.200,217.806 180.680,218.091 179.100 C 218.292 177.982,218.110 177.590,217.811 178.500 M235.515 179.200 C 235.612 179.860,235.760 180.400,235.845 180.400 C 235.930 180.400,236.000 179.860,236.000 179.200 C 236.000 178.540,235.851 178.000,235.669 178.000 C 235.487 178.000,235.418 178.540,235.515 179.200 M208.534 181.200 C 208.534 182.850,208.605 183.525,208.691 182.700 C 208.778 181.875,208.778 180.525,208.691 179.700 C 208.605 178.875,208.534 179.550,208.534 181.200 M225.232 180.353 C 224.479 180.489,223.818 180.830,223.762 181.110 C 223.706 181.391,223.751 181.436,223.863 181.210 C 223.975 180.985,224.682 180.800,225.433 180.800 C 226.185 180.800,226.800 180.620,226.800 180.400 C 226.800 180.180,226.755 180.024,226.700 180.053 C 226.645 180.082,225.984 180.217,225.232 180.353 M189.072 180.676 C 189.332 180.861,189.602 181.820,189.672 182.807 C 189.793 184.504,189.864 184.600,191.000 184.600 C 192.136 184.600,192.207 184.504,192.328 182.807 C 192.398 181.820,192.668 180.861,192.928 180.676 C 193.254 180.443,193.215 180.389,192.800 180.501 C 192.400 180.609,192.159 181.285,192.078 182.531 C 191.969 184.201,191.854 184.400,191.000 184.400 C 190.146 184.400,190.031 184.201,189.922 182.531 C 189.841 181.285,189.600 180.609,189.200 180.501 C 188.785 180.389,188.746 180.443,189.072 180.676 M227.200 181.131 C 227.200 181.313,227.740 181.382,228.400 181.285 C 229.060 181.188,229.600 181.040,229.600 180.955 C 229.600 180.870,229.060 180.800,228.400 180.800 C 227.740 180.800,227.200 180.949,227.200 181.131 M196.161 182.894 C 196.201 184.630,197.144 185.416,198.073 184.487 C 198.323 184.237,198.105 184.167,197.455 184.292 C 196.532 184.468,196.437 184.349,196.286 182.839 L 196.122 181.194 196.161 182.894 M238.600 182.362 C 238.600 183.001,238.735 183.440,238.900 183.338 C 239.065 183.236,239.200 182.713,239.200 182.176 C 239.200 181.639,239.065 181.200,238.900 181.200 C 238.735 181.200,238.600 181.723,238.600 182.362 M220.297 183.905 C 219.391 184.467,219.053 184.501,218.403 184.094 C 217.301 183.407,216.881 183.474,217.824 184.187 C 218.869 184.978,219.609 184.932,220.800 184.000 C 222.032 183.036,221.776 182.988,220.297 183.905 M226.688 183.733 C 226.264 184.810,226.257 184.805,228.100 184.736 C 229.533 184.682,229.600 184.647,228.525 184.512 C 227.734 184.414,227.198 184.096,227.113 183.677 C 226.990 183.069,226.947 183.074,226.688 183.733 M176.580 183.966 C 176.371 184.168,175.750 184.413,175.200 184.512 L 174.200 184.691 175.251 184.746 C 175.829 184.775,176.526 184.530,176.800 184.200 C 177.344 183.544,177.189 183.379,176.580 183.966 M180.349 184.100 C 180.916 184.824,185.334 185.151,185.739 184.500 C 185.842 184.335,184.856 184.261,183.548 184.336 C 181.981 184.426,180.936 184.290,180.485 183.936 C 179.867 183.453,179.854 183.469,180.349 184.100 M211.200 183.951 C 211.200 184.170,210.615 184.422,209.900 184.511 C 208.773 184.650,208.826 184.680,210.300 184.736 C 211.896 184.796,212.504 184.358,211.600 183.800 C 211.380 183.664,211.200 183.732,211.200 183.951 M252.000 185.400 L 251.061 186.400 206.630 186.498 L 162.200 186.596 206.545 186.700 L 250.890 186.804 252.259 185.602 C 253.012 184.941,253.473 184.400,253.284 184.400 C 253.094 184.400,252.517 184.850,252.000 185.400 M155.109 187.106 C 155.007 187.495,155.054 188.170,155.213 188.606 C 155.422 189.182,155.504 188.988,155.511 187.900 C 155.521 186.262,155.395 186.013,155.109 187.106 M206.632 189.100 L 251.064 189.203 252.002 190.202 C 252.517 190.751,253.094 191.200,253.284 191.200 C 253.473 191.200,253.013 190.660,252.261 190.000 L 250.894 188.800 206.547 188.898 L 162.200 188.996 206.632 189.100 M174.583 191.300 C 174.475 191.582,174.434 196.490,174.493 202.207 L 174.600 212.600 185.000 212.600 L 195.400 212.600 195.400 201.800 L 195.400 191.000 185.090 190.893 C 176.990 190.809,174.738 190.897,174.583 191.300 M199.462 191.100 C 199.360 191.265,199.799 191.400,200.438 191.400 C 201.077 191.400,201.600 191.265,201.600 191.100 C 201.600 190.935,201.161 190.800,200.624 190.800 C 200.087 190.800,199.564 190.935,199.462 191.100 M205.381 191.875 C 205.244 192.494,205.064 193.225,204.979 193.500 C 204.894 193.775,204.988 194.000,205.187 194.000 C 205.386 194.000,205.606 193.415,205.675 192.700 C 205.854 190.844,207.600 190.525,207.600 192.349 C 207.600 193.011,207.750 193.646,207.934 193.759 C 208.118 193.873,208.161 193.299,208.030 192.483 C 207.708 190.485,205.783 190.044,205.381 191.875 M211.754 191.377 C 211.317 192.513,211.791 193.398,212.903 193.527 C 213.507 193.596,214.000 193.486,214.000 193.282 C 214.000 193.078,213.550 192.997,213.000 193.102 C 212.145 193.266,212.000 193.146,212.000 192.273 C 212.000 191.467,212.231 191.218,213.100 191.087 L 214.200 190.920 213.087 190.860 C 212.442 190.825,211.882 191.042,211.754 191.377 M218.000 191.100 C 218.000 191.265,222.635 191.400,228.300 191.400 L 238.600 191.400 238.810 201.800 L 239.020 212.200 239.110 202.133 C 239.160 196.596,239.091 191.781,238.957 191.433 C 238.697 190.755,218.000 190.427,218.000 191.100 M255.000 191.200 L 253.800 191.505 254.876 191.553 C 255.468 191.579,256.064 191.420,256.200 191.200 C 256.336 190.980,256.392 190.821,256.324 190.847 C 256.256 190.873,255.660 191.032,255.000 191.200 M195.200 201.800 L 195.200 212.400 185.000 212.400 L 174.800 212.400 174.800 202.067 C 174.800 196.383,174.920 191.613,175.067 191.467 C 175.213 191.320,179.803 191.200,185.267 191.200 L 195.200 191.200 195.200 201.800 M199.462 193.300 C 199.564 193.465,199.986 193.600,200.400 193.600 C 200.814 193.600,201.236 193.465,201.338 193.300 C 201.440 193.135,201.018 193.000,200.400 193.000 C 199.782 193.000,199.360 193.135,199.462 193.300 M165.644 193.747 C 165.319 194.138,165.220 198.439,165.295 208.847 L 165.400 223.400 206.600 223.400 L 247.800 223.400 247.808 208.400 L 247.815 193.400 247.703 208.300 L 247.590 223.200 206.595 223.200 L 165.600 223.200 165.600 208.680 C 165.600 197.920,165.724 194.036,166.080 193.680 C 166.344 193.416,166.456 193.200,166.329 193.200 C 166.202 193.200,165.894 193.446,165.644 193.747 M220.565 193.748 C 220.449 194.049,220.421 195.264,220.503 196.448 L 220.652 198.600 220.726 196.100 L 220.800 193.600 228.413 193.600 C 235.934 193.600,236.030 193.611,236.388 194.500 C 236.609 195.052,236.759 195.160,236.775 194.780 C 236.833 193.355,236.000 193.200,228.307 193.200 C 222.301 193.200,220.732 193.311,220.565 193.748 M192.600 201.738 L 192.600 209.800 184.938 209.800 C 180.724 209.800,177.359 209.935,177.461 210.100 C 177.789 210.629,192.181 210.459,192.720 209.920 C 193.259 209.381,193.429 194.189,192.900 193.862 C 192.735 193.759,192.600 197.304,192.600 201.738 M210.709 195.161 C 210.873 196.278,210.793 196.357,209.341 196.521 L 207.800 196.695 209.400 196.648 C 211.034 196.599,211.872 195.312,210.901 194.341 C 210.679 194.119,210.604 194.443,210.709 195.161 M245.197 207.200 L 245.000 220.600 206.538 220.600 C 185.384 220.600,168.160 220.735,168.262 220.900 C 168.635 221.503,244.654 221.258,245.157 220.652 C 245.481 220.262,245.580 216.329,245.503 206.952 L 245.394 193.800 245.197 207.200 M202.067 196.667 C 201.975 199.501,202.234 200.009,203.743 199.953 L 205.000 199.905 203.800 199.651 C 202.664 199.410,202.588 199.268,202.367 196.998 L 202.134 194.600 202.067 196.667 M228.999 197.092 L 232.800 197.229 232.800 201.639 L 232.800 206.050 228.418 205.925 C 226.008 205.856,224.179 205.942,224.353 206.115 C 224.527 206.288,226.544 206.378,228.835 206.315 L 233.000 206.200 233.000 201.600 L 233.000 197.000 229.099 196.977 L 225.198 196.954 228.999 197.092 M207.657 198.420 C 207.575 200.466,208.132 200.811,211.380 200.728 L 214.200 200.656 211.200 200.428 L 208.200 200.200 207.957 198.600 L 207.714 197.000 207.657 198.420 M236.493 198.400 C 236.493 199.170,236.575 199.485,236.676 199.100 C 236.776 198.715,236.776 198.085,236.676 197.700 C 236.575 197.315,236.493 197.630,236.493 198.400 M180.548 202.400 C 180.548 204.710,180.614 205.655,180.695 204.500 C 180.776 203.345,180.776 201.455,180.695 200.300 C 180.614 199.145,180.548 200.090,180.548 202.400 M189.340 201.600 C 189.340 203.470,189.409 204.235,189.493 203.300 C 189.577 202.365,189.577 200.835,189.493 199.900 C 189.409 198.965,189.340 199.730,189.340 201.600 M220.482 204.257 C 220.385 210.505,219.877 210.030,226.533 209.918 L 231.400 209.837 226.200 209.618 L 221.000 209.400 220.782 204.200 L 220.563 199.000 220.482 204.257 M236.537 203.000 C 236.539 204.760,236.609 205.430,236.693 204.489 C 236.778 203.549,236.777 202.109,236.691 201.289 C 236.605 200.470,236.536 201.240,236.537 203.000 M199.462 200.700 C 199.360 200.865,199.782 201.000,200.400 201.000 C 201.018 201.000,201.440 200.865,201.338 200.700 C 201.236 200.535,200.814 200.400,200.400 200.400 C 199.986 200.400,199.564 200.535,199.462 200.700 M199.303 202.400 C 199.504 203.139,200.737 203.423,201.300 202.860 C 201.587 202.573,201.438 202.517,200.817 202.680 C 200.270 202.823,199.766 202.696,199.529 202.357 C 199.205 201.894,199.167 201.901,199.303 202.400 M209.700 203.091 C 210.525 203.178,211.875 203.178,212.700 203.091 C 213.525 203.005,212.850 202.934,211.200 202.934 C 209.550 202.934,208.875 203.005,209.700 203.091 M207.664 205.057 C 207.617 206.266,207.778 206.783,208.257 206.966 C 208.755 207.158,208.811 207.096,208.489 206.708 C 208.256 206.427,207.989 205.568,207.897 204.798 C 207.732 203.431,207.727 203.436,207.664 205.057 M205.200 206.316 C 205.200 206.595,204.117 206.809,202.332 206.882 C 200.405 206.961,199.431 207.167,199.362 207.510 C 199.306 207.790,199.351 207.836,199.463 207.610 C 199.575 207.385,200.901 207.200,202.410 207.200 C 204.880 207.200,206.095 206.762,205.440 206.107 C 205.308 205.975,205.200 206.069,205.200 206.316 M210.307 207.090 C 211.026 207.179,212.106 207.177,212.707 207.086 C 213.308 206.995,212.720 206.922,211.400 206.924 C 210.080 206.926,209.588 207.001,210.307 207.090 M236.352 208.313 C 236.221 209.107,236.279 209.481,236.501 209.259 C 236.703 209.057,236.801 208.467,236.719 207.946 C 236.593 207.145,236.537 207.202,236.352 208.313 M199.600 209.356 C 199.600 209.442,200.217 209.585,200.972 209.673 C 201.727 209.761,202.256 209.690,202.148 209.516 C 201.955 209.203,199.600 209.055,199.600 209.356 M204.880 209.680 C 204.616 209.944,204.400 210.651,204.400 211.252 C 204.400 212.061,204.166 212.395,203.500 212.538 C 202.707 212.708,202.719 212.723,203.600 212.666 C 204.421 212.612,204.636 212.349,204.800 211.200 L 205.000 209.800 209.600 209.580 L 214.200 209.360 209.780 209.280 C 206.779 209.226,205.206 209.354,204.880 209.680 M232.905 209.887 C 233.514 209.979,234.414 209.977,234.905 209.882 C 235.397 209.787,234.900 209.711,233.800 209.714 C 232.700 209.717,232.297 209.795,232.905 209.887 " stroke="none" fill="#747474" fill-rule="evenodd"></path></g></svg>